<svg xmlns="http://www.w3.org/2000/svg" style="display: none;">
	<symbol id="svg-calendar" viewBox="0 0 60 60">
		<path d="M41.5,10.75V7.25h-2v3.5h-19V7.25h-2v3.5H7.5v42h45v-42Zm9,40H9.5V22.25h41Zm0-30.5H9.5v-7.5h9v4h2v-4h19v4h2v-4h9Z" />
	</symbol>

	<symbol id="svg-maleok" viewBox="0 0 60 60">
		<path d="M45.64,12.49A1,1,0,0,1,47,12.14l4.08,2.45,4-8a1,1,0,0,1,1.78.9l-4.5,9a1,1,0,0,1-.61.51.9.9,0,0,1-.28,0,1,1,0,0,1-.51-.14l-5-3A1,1,0,0,1,45.64,12.49ZM58,30A28,28,0,0,1,11.41,50.92a.86.86,0,0,1-.14-.13A28,28,0,0,1,30,2a1,1,0,0,1,0,2A26,26,0,0,0,11,47.73V45a6.4,6.4,0,0,1,6.4-6.23h4.94l2.07-4.21a.6.6,0,0,1,.06-.11,11,11,0,0,1-5.25-7.86A3.48,3.48,0,0,1,17,23.35v-.7a3.51,3.51,0,0,1,2.12-3.2V17.56A7.56,7.56,0,0,1,26.67,10H40a1,1,0,0,1,1,1v8.5a3.49,3.49,0,0,1,2,3.15v.7a3.47,3.47,0,0,1-2.1,3.19,11,11,0,0,1-5.69,8.16l2,4.07h5.63A6.15,6.15,0,0,1,49,44.89v2.84A25.9,25.9,0,0,0,56,30a1,1,0,0,1,2,0ZM30.06,34A9,9,0,0,0,39,25.71a1,1,0,0,1,.82-.91A1.48,1.48,0,0,0,41,23.35v-.7a1.49,1.49,0,0,0-1.19-1.45,1,1,0,0,1-.81-1V12H26.67a5.56,5.56,0,0,0-5.55,5.56V20.2a1,1,0,0,1-.86,1A1.46,1.46,0,0,0,19,22.65v.7a1.48,1.48,0,0,0,1.28,1.46,1,1,0,0,1,.86.92A9,9,0,0,0,30.06,34ZM47,44.89a4.15,4.15,0,0,0-4.16-4.12H36.58a1,1,0,0,1-.89-.56l-2.32-4.73a11.13,11.13,0,0,1-7.12-.17.5.5,0,0,1-.05.13l-2.34,4.77a1,1,0,0,1-.89.56H17.4A4.44,4.44,0,0,0,13,45v4.66a26,26,0,0,0,34,0Z"/>
	</symbol>

	<symbol id="svg-profile" viewBox="0 0 60 60">
		<path d="M22.5,36h15a1,1,0,0,0,1-1V33a3.11,3.11,0,0,0-3.17-3h-2L33,29.29a6.78,6.78,0,0,0,3.66-4.91A2.45,2.45,0,0,0,38,22.21v-.42a2.45,2.45,0,0,0-1.24-2.12V15a1,1,0,0,0-1-1H30a6.79,6.79,0,0,0-6.67,5.62A2.45,2.45,0,0,0,22,21.79v.42a2.46,2.46,0,0,0,1.33,2.17,6.75,6.75,0,0,0,3.44,4.79l-.38.74H24.67a3.11,3.11,0,0,0-3.17,3v2A1,1,0,0,0,22.5,36Zm2.75-12.43a1,1,0,0,0-.87-.93.45.45,0,0,1-.38-.43v-.42a.43.43,0,0,1,.38-.43,1,1,0,0,0,.87-.93A4.76,4.76,0,0,1,30,16h4.76v4.37a1,1,0,0,0,.86,1,.45.45,0,0,1,.38.43v.42a.43.43,0,0,1-.38.43,1,1,0,0,0-.87.93,4.76,4.76,0,0,1-9.5,0ZM23.5,33a1.11,1.11,0,0,1,1.17-1H27a1,1,0,0,0,.89-.54l.77-1.5a7,7,0,0,0,2.42,0l.74,1.46a1,1,0,0,0,.89.54h2.62a1.11,1.11,0,0,1,1.17,1v1h-13ZM57,9H3a1,1,0,0,0-1,1V50a1,1,0,0,0,1,1H57a1,1,0,0,0,1-1V10A1,1,0,0,0,57,9ZM56,49H4V11H56ZM20,43H40v2H20Zm24-2H16V39H44Z"/>
	</symbol>

	<symbol id="svg-chipcard" viewBox="0 0 60 60">
		<path d="M54,12H6a4,4,0,0,0-4,4V44a4,4,0,0,0,4,4H54a4,4,0,0,0,4-4V16A4,4,0,0,0,54,12Zm2,32a2,2,0,0,1-2,2H6a2,2,0,0,1-2-2V16a2,2,0,0,1,2-2H54a2,2,0,0,1,2,2ZM8,36H29v2H8Zm23,0H52v2H31ZM11,30H22a3,3,0,0,0,3-3V21a3,3,0,0,0-3-3H11a3,3,0,0,0-3,3v6A3,3,0,0,0,11,30Zm12-3a1,1,0,0,1-1,1H19V24h4Zm-1-7a1,1,0,0,1,1,1v1H19V20ZM10,21a1,1,0,0,1,1-1h6v4H10Zm7,5v2H11a1,1,0,0,1-1-1V26Z"/>
	</symbol>

	<symbol id="svg-refresh" viewBox="0 0 60 60">
		<path d="M54,30A24,24,0,0,1,8.24,40.16L6,45.18a1,1,0,0,1-.91.6,1,1,0,0,1-.41-.09,1,1,0,0,1-.51-1.32l3.26-7.31a1,1,0,0,1,1.32-.51l7.31,3.26a1,1,0,1,1-.82,1.82l-5.19-2.31A22,22,0,0,0,52,30a1,1,0,1,1,2,0Zm1.33-15.73a1,1,0,0,0-1.32.51l-2.27,5.08A24,24,0,0,0,6,30a1,1,0,0,0,2,0,22,22,0,0,1,41.88-9.4l-5.11-2.28a1,1,0,0,0-.82,1.83l7.31,3.25a1,1,0,0,0,.41.09,1,1,0,0,0,.91-.59l3.26-7.31A1,1,0,0,0,55.31,14.27Z"/>
	</symbol>

	<symbol id="svg-optioninterface" viewBox="0 0 60 60">
		<path d="M57,51H3a1,1,0,0,1-1-1V10A1,1,0,0,1,3,9H57a1,1,0,0,1,1,1V50A1,1,0,0,1,57,51ZM4,49H56V11H4ZM30,23a6,6,0,0,0-6-6H17a6,6,0,0,0,0,12h7A6,6,0,0,0,30,23Zm-6,4H17a4,4,0,0,1,0-8h7a4,4,0,0,1,0,8Zm24,14H35V39h13Zm0-4H35V35h13Zm-6-4H35V31h7Zm3-10H35V21H45Zm5-4H35V17H50ZM24,26a3,3,0,1,1,3-3A3,3,0,0,1,24,26Zm0-4a1,1,0,1,0,1,1A1,1,0,0,0,24,22Zm6,15a6,6,0,0,0-6-6H17a6,6,0,0,0,0,12h7A6,6,0,0,0,30,37Zm-6,4H17a4,4,0,0,1,0-8h7a4,4,0,0,1,0,8Zm-7-1a3,3,0,1,1,3-3A3,3,0,0,1,17,40Zm0-4a1,1,0,1,0,1,1A1,1,0,0,0,17,36Z"/>
	</symbol>

	<symbol id="svg-browserstats" viewBox="0 0 60 60">
		<path d="M59,54H1V6H59ZM3,52H57V16H3ZM3,14H57V8H3Zm13-1a2,2,0,1,1,2-2A2,2,0,0,1,16,13Zm-5,0a2,2,0,1,1,2-2A2,2,0,0,1,11,13ZM6,13a2,2,0,1,1,2-2A2,2,0,0,1,6,13ZM32.74,48l5.45-15.83,2.67,5.33a1,1,0,0,0,.89.55h0a1,1,0,0,0,.89-.54l8.2-16.07a1,1,0,0,0-.43-1.34,1,1,0,0,0-1.35.43l-7.3,14.31-2.85-5.7a1,1,0,0,0-1.84.12l-5.16,15L26.7,24.27a1,1,0,0,0-.85-.75,1,1,0,0,0-1,.54L19.4,34.66l-4.09-5a1,1,0,0,0-.82-.37,1,1,0,0,0-.78.45L6.94,39.91A1,1,0,0,0,8.61,41l6-9,4.2,5.1a1,1,0,0,0,.88.36,1,1,0,0,0,.78-.53l4.95-9.63,5.39,20.6a1,1,0,0,0,.93.75h0A1,1,0,0,0,32.74,48Z"/>
	</symbol>

	<symbol id="svg-appnotification25" viewBox="0 0 60 60">
		<path d="M42.81,54.5H14.19A8.7,8.7,0,0,1,5.5,45.81V17.19A8.7,8.7,0,0,1,14.2,8.5H39.5a1,1,0,0,1,0,2H14.2a6.7,6.7,0,0,0-6.7,6.69V45.81a6.7,6.7,0,0,0,6.69,6.69H42.81a6.7,6.7,0,0,0,6.69-6.7V20.5a1,1,0,0,1,2,0V45.8A8.7,8.7,0,0,1,42.81,54.5ZM48,18.5A6.5,6.5,0,1,1,54.5,12,6.51,6.51,0,0,1,48,18.5Zm0-11A4.5,4.5,0,1,0,52.5,12,4.51,4.51,0,0,0,48,7.5ZM14.86,39.94V36.61l6.57-5.95a6.16,6.16,0,0,0,1-1.22,2.6,2.6,0,0,0,.38-1.38,1.92,1.92,0,0,0-.58-1.46,2.28,2.28,0,0,0-3.15.15,3.15,3.15,0,0,0-.75,1.84l-3.84-.52a6.14,6.14,0,0,1,.7-2.29,6.25,6.25,0,0,1,1.42-1.72,6.18,6.18,0,0,1,2-1.08,7.54,7.54,0,0,1,2.34-.37,8.58,8.58,0,0,1,2.27.31,5.9,5.9,0,0,1,1.95.95,4.78,4.78,0,0,1,1.37,1.62A4.92,4.92,0,0,1,27,27.78a5.44,5.44,0,0,1-.23,1.63,5.29,5.29,0,0,1-.66,1.35,8.75,8.75,0,0,1-.95,1.16c-.36.35-.73.71-1.11,1.06l-3.91,3.48h6.89v3.48ZM42.5,34.36A6,6,0,0,1,42,37a5.32,5.32,0,0,1-1.46,1.87A6.56,6.56,0,0,1,38.4,40a8.14,8.14,0,0,1-2.41.37,7.81,7.81,0,0,1-2.18-.3,7,7,0,0,1-1.88-.85,5.61,5.61,0,0,1-1.45-1.34,5.25,5.25,0,0,1-.9-1.8L33.23,35a2.76,2.76,0,0,0,1,1.45,2.89,2.89,0,0,0,3.5,0,2.63,2.63,0,0,0,.44-3.08,2.36,2.36,0,0,0-.8-.8,3.22,3.22,0,0,0-1.1-.41A6.59,6.59,0,0,0,35,32a11.5,11.5,0,0,0-2.06.2,11.76,11.76,0,0,0-2.07.53l.41-9.65H41.64V26.5H34.85l-.14,2.66a6.2,6.2,0,0,1,.84-.13l.85,0a8.35,8.35,0,0,1,2.38.33,5.35,5.35,0,0,1,1.94,1A4.88,4.88,0,0,1,42,32,5.37,5.37,0,0,1,42.5,34.36Z"/>
	</symbol>

	<symbol id="svg-billpaid" viewBox="0 0 60 60">
		<path d="M49.12,10,46.39,4.53a1,1,0,0,0-1.78,0L42.5,8.74,40.39,4.53a1,1,0,0,0-1.78,0L36.5,8.74,34.39,4.53a1,1,0,0,0-1.78,0L30,9.74,27.39,4.53a1,1,0,0,0-1.78,0L23.5,8.74,21.39,4.53a1,1,0,0,0-1.78,0L17.5,8.74,15.39,4.53a1,1,0,0,0-1.78,0L10.88,10A1,1,0,0,0,10,11V55a1,1,0,0,0,1,1H49a1,1,0,0,0,1-1V11A1,1,0,0,0,49.12,10ZM48,54H12V11.84a.91.91,0,0,0,.39-.41L14.5,7.21l2.11,4.22a1,1,0,0,0,1.78,0L20.5,7.21l2.11,4.22a1,1,0,0,0,1.78,0L26.5,7.21l2.11,4.22a1,1,0,0,0,.89.55h1a1,1,0,0,0,.89-.55L33.5,7.21l2.11,4.22a1,1,0,0,0,1.78,0L39.5,7.21l2.11,4.22a1,1,0,0,0,1.78,0L45.5,7.21l2.11,4.22a.91.91,0,0,0,.39.41ZM25.27,26.12,21,37.88a1,1,0,0,1-.56.58,1,1,0,0,1-.38.07,1,1,0,0,1-.43-.09l-4.26-2a1,1,0,0,1-.47-1.34,1,1,0,0,1,1.33-.47l3.27,1.57,3.88-10.72a1,1,0,0,1,1.28-.6A1,1,0,0,1,25.27,26.12ZM44,38a1,1,0,0,1-1,1H29a1,1,0,1,1,0-2H43A1,1,0,0,1,44,38Zm0-15a1,1,0,0,1-1,1H29a1,1,0,0,1,0-2H43A1,1,0,0,1,44,23Zm0,10a1,1,0,0,1-1,1H29a1,1,0,0,1,0-2H43A1,1,0,0,1,44,33Zm0-5a1,1,0,0,1-1,1H29a1,1,0,0,1,0-2H43A1,1,0,0,1,44,28ZM28,48H44V42H28Zm2-4H42v2H30Z"/>
	</symbol>

	<symbol id="svg-invoice" viewBox="0 0 60 60">
		<path d="M46,3.5H14a6,6,0,0,0-6,6v41a6,6,0,0,0,6,6H46a6,6,0,0,0,6-6V9.5A6,6,0,0,0,46,3.5Zm4,47a4,4,0,0,1-4,4H17v-3H15v3H14a4,4,0,0,1-4-4V9.5a4,4,0,0,1,4-4h1v4h2v-4H46a4,4,0,0,1,4,4Zm-35-23h2v6H15Zm0-16h2v6H15Zm0,8h2v6H15Zm0,16h2v6H15Zm0,8h2v6H15Zm7-25H45v-8H22Zm2-6H43v4H24Zm-2,34h6.12v2H22Zm0-24H42v2H22Zm8,24H41v2H30Zm7-18H22v-2H37Z"/>
	</symbol>

	<symbol id="svg-softwares" viewBox="0 0 60 60">
		<path d="M27,16h2v2H27Zm-6,2h2V16H21Zm3,0h2V16H24ZM14,30h2V28H14ZM58,10V50a1,1,0,0,1-1,1H3a1,1,0,0,1-1-1V10A1,1,0,0,1,3,9H57A1,1,0,0,1,58,10Zm-2,1H4V49H56ZM17,30h2V28H17ZM8,46V26a1,1,0,0,1,1-1h9V14a1,1,0,0,1,1-1H51a1,1,0,0,1,1,1V34a1,1,0,0,1-1,1H42V46a1,1,0,0,1-1,1H9A1,1,0,0,1,8,46ZM20,25H41a1,1,0,0,1,1,1v7h8V15H20ZM10,45H40V27H10Zm1-15h2V28H11Z"/>
	</symbol>

	<symbol id="svg-browsersettings" viewBox="0 0 60 60">
		<path d="M59,54H1V6H59ZM3,52H57V16H3ZM3,14H57V8H3Zm13-1a2,2,0,1,1,2-2A2,2,0,0,1,16,13Zm-5,0a2,2,0,1,1,2-2A2,2,0,0,1,11,13ZM6,13a2,2,0,1,1,2-2A2,2,0,0,1,6,13ZM30,46a2.7,2.7,0,0,1-2.69-2.69v-.24a9.06,9.06,0,0,1-1.82-.75l-.17.17a2.69,2.69,0,0,1-4.59-1.91,2.65,2.65,0,0,1,.78-1.9l.17-.17a9.06,9.06,0,0,1-.75-1.82h-.24a2.69,2.69,0,0,1,0-5.38h.24a9.06,9.06,0,0,1,.75-1.82l-.17-.17a2.69,2.69,0,0,1,1.91-4.59h0a2.65,2.65,0,0,1,1.9.78l.17.17a9.06,9.06,0,0,1,1.82-.75v-.24a2.69,2.69,0,1,1,5.38,0v.24a9.06,9.06,0,0,1,1.82.75l.17-.17a2.69,2.69,0,0,1,4.59,1.91,2.65,2.65,0,0,1-.78,1.9l-.17.17a9.06,9.06,0,0,1,.75,1.82h.24a2.69,2.69,0,0,1,0,5.38h-.24a9.06,9.06,0,0,1-.75,1.82l.17.17a2.69,2.69,0,0,1-1.91,4.59h0a2.65,2.65,0,0,1-1.9-.78l-.17-.17a9.06,9.06,0,0,1-1.82.75v.24A2.7,2.7,0,0,1,30,46Zm-4.67-5.94a1,1,0,0,1,.56.17,7.38,7.38,0,0,0,2.62,1.08,1,1,0,0,1,.8,1v1A.69.69,0,0,0,30,44a.68.68,0,0,0,.69-.69v-1a1,1,0,0,1,.8-1,7.38,7.38,0,0,0,2.62-1.08,1,1,0,0,1,1.26.12l.72.72a.69.69,0,0,0,1,0,.68.68,0,0,0,0-1l-.72-.72a1,1,0,0,1-.12-1.26,7.28,7.28,0,0,0,1.08-2.62,1,1,0,0,1,1-.8h1A.69.69,0,0,0,40,34a.68.68,0,0,0-.69-.69h-1a1,1,0,0,1-1-.8,7.28,7.28,0,0,0-1.08-2.62,1,1,0,0,1,.12-1.26l.72-.72a.7.7,0,0,0,.2-.49.69.69,0,0,0-1.18-.49l-.72.72a1,1,0,0,1-1.26.12,7.38,7.38,0,0,0-2.62-1.08,1,1,0,0,1-.8-1v-1A.69.69,0,0,0,30,24a.68.68,0,0,0-.69.69v1a1,1,0,0,1-.8,1,7.38,7.38,0,0,0-2.62,1.08,1,1,0,0,1-1.26-.12l-.72-.72a.69.69,0,0,0-1,0,.68.68,0,0,0,0,1l.72.72a1,1,0,0,1,.12,1.26,7.28,7.28,0,0,0-1.08,2.62,1,1,0,0,1-1,.8h-1A.69.69,0,0,0,20,34a.68.68,0,0,0,.69.69h1a1,1,0,0,1,1,.8,7.28,7.28,0,0,0,1.08,2.62,1,1,0,0,1-.12,1.26l-.72.72a.7.7,0,0,0-.2.49.69.69,0,0,0,1.18.49l.72-.72A1,1,0,0,1,25.33,40.06ZM30,37.54a3.54,3.54,0,1,1,2.5-1A3.52,3.52,0,0,1,30,37.54Zm0-5.08a1.54,1.54,0,1,0,1.09.45A1.55,1.55,0,0,0,30,32.46Z"/>
	</symbol>

	<symbol id="svg-dashinterface" viewBox="0 0 60 60">
		<path d="M57,51H3a1,1,0,0,1-1-1V10A1,1,0,0,1,3,9H57a1,1,0,0,1,1,1V50A1,1,0,0,1,57,51ZM18,49H56V11H18ZM4,49H16V11H4Zm9-13H5V34h8Zm0-4H5V30h8Zm0-4H5V26h8Zm0-4H5V22h8Zm2-9H5V13H15ZM52,43H22a1,1,0,0,1-1-1V18a1,1,0,0,1,1-1H52a1,1,0,0,1,1,1V42A1,1,0,0,1,52,43ZM23,41H51V19H23Z"/>
	</symbol>

	<symbol id="svg-chart" viewBox="0 0 60 60">
		<path d="M6,53H4V47H6Zm0-8H4V39H6Zm0-8H4V31H6Zm0-8H4V23H6Zm0-8H4V15H6Zm0-8H4V7H6ZM56,55H7V53H56ZM56,7H7V5H56ZM49,50H43a1,1,0,0,1-1-1V42a1,1,0,0,1,1-1h6a1,1,0,0,1,1,1v7A1,1,0,0,1,49,50Zm-5-2h4V43H44Zm-5,2H33a1,1,0,0,1-1-1V27a1,1,0,0,1,1-1h6a1,1,0,0,1,1,1V49A1,1,0,0,1,39,50Zm-5-2h4V28H34Zm-5,2H23a1,1,0,0,1-1-1V17a1,1,0,0,1,1-1h6a1,1,0,0,1,1,1V49A1,1,0,0,1,29,50Zm-5-2h4V18H24Zm-5,2H13a1,1,0,0,1-1-1V34a1,1,0,0,1,1-1h6a1,1,0,0,1,1,1V49A1,1,0,0,1,19,50Zm-5-2h4V35H14Z"/>
	</symbol>

	<symbol id="svg-photoedit" viewBox="0 0 60 60">
		<path d="M26.5,37a1,1,0,0,1-1,1H7.5a1,1,0,0,1-1-1V10a1,1,0,0,1,1-1h36a1,1,0,0,1,1,1V23.5a1,1,0,0,1-2,0V11H8.5V27.09l4.29-4.3a1,1,0,0,1,1.3-.1l6.84,5,10.9-9.95a1,1,0,0,1,.77-.25,1,1,0,0,1,.71.41l5,7a1,1,0,0,1-1.62,1.16L32.34,20,21.67,29.74a1,1,0,0,1-1.26.07l-6.81-5-5.1,5.1V36h17A1,1,0,0,1,26.5,37Zm-1,3H4.5V7h42V23.5a1,1,0,0,0,2,0V6a1,1,0,0,0-1-1H3.5a1,1,0,0,0-1,1V41a1,1,0,0,0,1,1h22a1,1,0,0,0,0-2Zm32,1a14,14,0,1,1-14-14A14,14,0,0,1,57.5,41Zm-2,0a12,12,0,1,0-12,12A12,12,0,0,0,55.5,41Zm-3.87-4.8a1,1,0,0,1,0,1.41L42.44,46.8a1,1,0,0,1-.71.3,1,1,0,0,1-.7-.3L39.26,45l1.06,1.06L38.2,48.21l-1.41-1.42,2.11-2.11L38.2,44a1,1,0,0,1,0-1.41l9.19-9.19a1,1,0,0,1,.71-.29,1,1,0,0,1,.7.29Zm-2.12.7L48.1,35.49l-7.78,7.78,1.41,1.41ZM17.5,13a4,4,0,1,1-4,4A4,4,0,0,1,17.5,13Zm0,2a2,2,0,1,0,2,2A2,2,0,0,0,17.5,15Z"/>
	</symbol>

	<symbol id="svg-ticket" viewBox="0 0 60 60">
		<path d="M53.5,35.54V30.09H45L20.83,5.91,17,9.77,14.15,6.94,4.89,16.2,7.72,19,3.86,22.88l7.21,7.21H6.5v5.45h-4V48.63h4v5.46h47V48.63h4V35.54ZM13.06,29.25l3.53-3.54L15.18,24.3l-3.54,3.53L6.69,22.88l2.44-2.44A2,2,0,0,0,9.72,19a2,2,0,0,0-.59-1.41L7.72,16.2l6.43-6.43,1.41,1.41a2,2,0,0,0,1.42.59,2,2,0,0,0,1.41-.59l2.44-2.44,5,4.95-3.53,3.53,1.41,1.42L27.2,15.1l15,15H13.9ZM55.5,46.64h-2a2,2,0,0,0-2,2v3.45h-34v-5h-2v5h-7V48.64a2,2,0,0,0-2-2h-2v-9.1h2a2,2,0,0,0,2-2V32.09h7v5h2v-5h34v3.45a2,2,0,0,0,2,2h2Zm-40-7.55h2v6h-2Zm25-2h-17v-2h17Zm-17,2h22v2h-22Zm0,4h6v2h-6Zm8,0h6v2h-6ZM20.83,18.64l1.42,1.41L18,24.3l-1.42-1.42Z"/>
	</symbol>

	<symbol id="svg-bubblechat" viewBox="0 0 60 60">
		<path d="M10.65,56.5a1.06,1.06,0,0,1-.57-.17,1,1,0,0,1-.43-1l1.42-10.61a25,25,0,1,1,9,6.6l-8.93,5A.94.94,0,0,1,10.65,56.5ZM30,5.5A22.94,22.94,0,0,0,12.87,43.77a1,1,0,0,1,.24.8L11.9,53.65l7.62-4.28a1,1,0,0,1,.91,0A23,23,0,1,0,30,5.5Zm7,27a3,3,0,1,1,3-3A3,3,0,0,1,37,32.5Zm0-4a1,1,0,1,0,1,1A1,1,0,0,0,37,28.5Zm-7,4a3,3,0,1,1,3-3A3,3,0,0,1,30,32.5Zm0-4a1,1,0,1,0,1,1A1,1,0,0,0,30,28.5Zm-7,4a3,3,0,1,1,3-3A3,3,0,0,1,23,32.5Zm0-4a1,1,0,1,0,1,1A1,1,0,0,0,23,28.5Z"/>
	</symbol>

	<symbol id="svg-chat" viewBox="0 0 60 60">
		<path d="M11,24H43v3a1,1,0,0,0,.64.93A.92.92,0,0,0,44,28a1,1,0,0,0,.74-.33L48.08,24H49a5,5,0,0,0,0-10H11a5,5,0,0,0,0,10Zm0-8H49a3,3,0,0,1,0,6H47.64a1,1,0,0,0-.74.33L45,24.41V23a1,1,0,0,0-1-1H11a3,3,0,0,1,0-6ZM57,9H3a1,1,0,0,0-1,1V50a1,1,0,0,0,1,1H57a1,1,0,0,0,1-1V10A1,1,0,0,0,57,9ZM56,49H4V11H56ZM11,42h.92l3.34,3.67A1,1,0,0,0,16,46a.92.92,0,0,0,.36-.07A1,1,0,0,0,17,45V42H49a5,5,0,0,0,0-10H11a5,5,0,0,0,0,10Zm0-8H49a3,3,0,0,1,0,6H16a1,1,0,0,0-1,1v1.41l-1.9-2.08a1,1,0,0,0-.74-.33H11a3,3,0,0,1,0-6ZM10,19a2,2,0,1,1,2,2A2,2,0,0,1,10,19Zm12,0a2,2,0,1,1,2,2A2,2,0,0,1,22,19Zm-6,0a2,2,0,1,1,2,2A2,2,0,0,1,16,19ZM34,37a2,2,0,1,1,2,2A2,2,0,0,1,34,37Zm6,0a2,2,0,1,1,2,2A2,2,0,0,1,40,37Zm6,0a2,2,0,1,1,2,2A2,2,0,0,1,46,37Z"/>
	</symbol>

	<symbol id="svg-settings" viewBox="0 0 60 60">
		<path d="M35,14a6.64,6.64,0,0,1,.09-1H4v2H35.09A6.64,6.64,0,0,1,35,14Z" />
		<path d="M46.91,13A6.64,6.64,0,0,1,47,14a6.64,6.64,0,0,1-.09,1H56V13Z" />
		<path d="M41,10a4,4,0,1,0,4,4A4,4,0,0,0,41,10Zm0,6a2,2,0,1,1,2-2A2,2,0,0,1,41,16Z" />
		<path d="M24.91,29a5.6,5.6,0,0,1,0,2H56V29Z" />
		<path d="M13,30a6.64,6.64,0,0,1,.09-1H4v2h9.09A6.64,6.64,0,0,1,13,30Z" />
		<path d="M19,26a4,4,0,1,0,4,4A4,4,0,0,0,19,26Zm0,6a2,2,0,1,1,2-2A2,2,0,0,1,19,32Z" />
		<path d="M35,46a6.64,6.64,0,0,1,.09-1H4v2H35.09A6.64,6.64,0,0,1,35,46Z" />
		<path d="M46.91,45a5.6,5.6,0,0,1,0,2H56V45Z" />
		<path d="M41,42a4,4,0,1,0,4,4A4,4,0,0,0,41,42Zm0,6a2,2,0,1,1,2-2A2,2,0,0,1,41,48Z" />
	</symbol>

	<symbol id="svg-infinity" viewBox="0 0 60 60">
		<path d="M45,20c-5,0-12.68,6.55-15,8.64C27.68,26.55,20,20,15,20,8.63,20,4,24.21,4,30S8.63,40,15,40c5,0,12.68-6.55,15-8.64C32.32,33.45,40,40,45,40c6.37,0,11-4.21,11-10S51.37,20,45,20ZM15,38c-5.3,0-9-3.29-9-8s3.7-8,9-8c3.83,0,10.45,5.24,13.52,8C25.45,32.76,18.83,38,15,38Zm30,0c-3.83,0-10.45-5.24-13.52-8,3.07-2.76,9.69-8,13.52-8,5.3,0,9,3.29,9,8S50.3,38,45,38Z"/>
	</symbol>

	<symbol id="svg-robot" viewBox="0 0 60 60">
		<path d="M44.5,14.25h-5V9.11a4,4,0,1,0-2,0v5.14h-22a6,6,0,0,0-6,6v24a6,6,0,0,0,6,6h10v8.5h2v-8.5h5v8.5h2v-8.5h10a6,6,0,0,0,6-6v-24A6,6,0,0,0,44.5,14.25Zm-8-9a2,2,0,1,1,2,2A2,2,0,0,1,36.5,5.25Zm12,39a4,4,0,0,1-4,4h-29a4,4,0,0,1-4-4v-24a4,4,0,0,1,4-4h29a4,4,0,0,1,4,4Zm-10-8h-17a1,1,0,0,0-1,1v7a1,1,0,0,0,1,1h17a1,1,0,0,0,1-1v-7A1,1,0,0,0,38.5,36.25Zm-5,2v5h-7v-5Zm-11,0h2v5h-2Zm15,5h-2v-5h2Zm1-14h-6v-2h6Zm-11-2v2h-6v-2Zm-11.5-4H44v2H16Z"/>
	</symbol>

	<symbol id="svg-sharethis" viewBox="0 0 60 60">
		<path d="M43.13,54.61c-4.5,0-8.16-4.07-8.26-9.11L21.55,38.22a7.89,7.89,0,0,1-4.86,1.71c-4.7,0-8.52-4.31-8.52-9.62s3.82-9.63,8.52-9.63a7.92,7.92,0,0,1,4.85,1.71l13.08-7.86c.27-5.09,4-9.14,8.6-9.14,4.75,0,8.61,4.36,8.61,9.72S48,24.84,43.22,24.84A8,8,0,0,1,38.14,23l-12.2,7.31,12.74,7.18A7.48,7.48,0,0,1,43.13,36c4.55,0,8.25,4.18,8.25,9.32S47.68,54.61,43.13,54.61ZM21.27,35.79,36.9,44.33l0,1c0,4,2.81,7.31,6.26,7.31s6.25-3.28,6.25-7.31S46.58,38,43.13,38a5.68,5.68,0,0,0-3.71,1.43l-.53.46L23.21,31V29.59l15.2-9.11L39,21a6.12,6.12,0,0,0,4.26,1.82c3.65,0,6.61-3.47,6.61-7.73s-3-7.72-6.61-7.72-6.61,3.46-6.62,7.71v.57L21.31,24.86l-.55-.51a5.92,5.92,0,0,0-4.07-1.67c-3.6,0-6.52,3.42-6.52,7.63s2.92,7.62,6.52,7.62a5.88,5.88,0,0,0,4-1.65Z"/>
	</symbol>

	<symbol id="svg-graphicpanel" viewBox="0 0 60 60">
		<path d="M9.9,24a1,1,0,0,1,1.29-.58l6.16,2.33,8.37-3.14,6.64-8.27a1,1,0,0,1,.7-.37,1,1,0,0,1,.75.25l7.47,6.71,8.46.23a1,1,0,0,1,1,1,1,1,0,0,1-1,1l-8.82-.24a1,1,0,0,1-.64-.26l-7-6.24-6.15,7.66a1,1,0,0,1-.43.31l-9,3.36a.91.91,0,0,1-.7,0L10.49,25.3A1,1,0,0,1,9.9,24Zm32.42,3.86-4.21-4a1,1,0,0,0-.79-.27,1,1,0,0,0-.73.44l-4.81,7.1-2.47-1.8a.88.88,0,0,0-.6-.19l-10.61.08c-.31,0-.9,0-7,3.94A1,1,0,0,0,11.67,35a1,1,0,0,0,.54-.16c2.42-1.57,5.33-3.35,6-3.62l10.18-.08,3,2.22a1,1,0,0,0,1.42-.25l4.73-7,3.8,3.61a1,1,0,0,0,1,.22l8.81-3.12A1,1,0,1,0,50.55,25ZM59,8a3,3,0,0,1-3,3H55V37a4,4,0,0,1-4,4H32.36l5,12h2.77a1,1,0,0,1,0,2H36.71a1,1,0,0,1-.93-.61L30.19,41h-.76L23.84,54.39a1,1,0,0,1-.93.61H19.48a1,1,0,0,1,0-2h2.77l5-12H10a4,4,0,0,1-4-4V11H4A3,3,0,0,1,4,5H56A3,3,0,0,1,59,8Zm-6,3H8V37a2,2,0,0,0,2,2H51a2,2,0,0,0,2-2Zm4-3a1,1,0,0,0-1-1H4A1,1,0,0,0,4,9H56A1,1,0,0,0,57,8Z"/>
	</symbol>

	<symbol id="svg-timelapse" viewBox="0 0 60 60">
		<path d="M29,39V37a1,1,0,0,1,2,0v2a1,1,0,0,1-2,0ZM47,54a3,3,0,0,1-3,3H16a3,3,0,0,1-1-5.82c.23-10,4.62-18.36,10.59-21.17-2.95-1.37-5.57-4.1-7.51-8a.94.94,0,0,1-.07-.22,31.43,31.43,0,0,1-3-13A3,3,0,0,1,16,3H44a3,3,0,0,1,1,5.82,32.61,32.61,0,0,1-1.84,10.27,1.05,1.05,0,0,1,0,.19C41.18,24.51,38,28.3,34.37,30c6,2.8,10.38,11.19,10.61,21.18A3,3,0,0,1,47,54ZM15,6a1,1,0,0,0,1,1H44a1,1,0,0,0,0-2H16A1,1,0,0,0,15,6Zm4.58,14.54L41.42,18A31.17,31.17,0,0,0,43,9H17A29.81,29.81,0,0,0,19.58,20.54ZM30,29h0c4.19,0,8.15-3.36,10.58-8.87l-20,2.3C23,26.62,26.41,29,30,29ZM17,51h8.37l3.73-7.45a1,1,0,0,1,1.78,0L34.62,51H43c-.31-10.58-5.49-19.12-12-19.92V33a1,1,0,0,1-2,0V31.08C22.5,31.88,17.32,40.42,17,51Zm13-4.76L27.62,51h4.76ZM45,54a1,1,0,0,0-1-1H16a1,1,0,0,0,0,2H44A1,1,0,0,0,45,54Z"/>
	</symbol>

	<symbol id="svg-pin" viewBox="0 0 60 60">
		<path d="M30.5,8.5a1,1,0,0,1,0-2A8.51,8.51,0,0,1,39,15a1,1,0,0,1-2,0A6.51,6.51,0,0,0,30.5,8.5ZM43,52.5c0,3.28-6.54,5-13,5s-13-1.72-13-5c0-3.11,5.88-4.82,12-5V27.4a12.56,12.56,0,1,1,2,.07V47.52C37.12,47.68,43,49.39,43,52.5Zm-12.5-27A10.5,10.5,0,1,0,20,15,10.51,10.51,0,0,0,30.5,25.5ZM41,52.5c0-1-3.52-2.81-10-3v3H29v-3c-6.48.17-10,2-10,3s3.88,3,11,3S41,53.52,41,52.5Z"/>
	</symbol>

	<symbol id="svg-education" viewBox="0 0 60 60">
		<path d="M54.43,18.9,32.24,7.53a5.39,5.39,0,0,0-4.48,0L5.57,18.9a2.1,2.1,0,0,0-1.28,1.8,2.1,2.1,0,0,0,1.28,1.81l6.68,3.42V39a1,1,0,0,0,.48.85C13,40,19.64,44,30.25,44a39.92,39.92,0,0,0,12-1.81v2.93a4,4,0,1,0,2,0V41.46a24,24,0,0,0,3.52-1.65,1,1,0,0,0,.48-.85V26a1.09,1.09,0,0,0,0-.26l6.23-3.19a2.1,2.1,0,0,0,1.28-1.81A2.1,2.1,0,0,0,54.43,18.9ZM30.25,42a35.53,35.53,0,0,1-16-3.59V27l13.51,6.93a5.36,5.36,0,0,0,4.48,0l10-5.13V40A37.81,37.81,0,0,1,30.25,42Zm15,7a2,2,0,1,1-2-2A2,2,0,0,1,45.25,49Zm1-10.59c-.42.22-1.09.55-2,.92V28a.87.87,0,0,0,0-.22l2-1Zm7.27-17.64L31.32,32.1a3.45,3.45,0,0,1-2.64,0L6.48,20.73l0,0,0,0L28.68,9.31a3.45,3.45,0,0,1,2.64,0l22.2,11.37,0,0Zm-34.83-.88-4,2a1,1,0,0,1-.44.11,1,1,0,0,1-.9-.56,1,1,0,0,1,.45-1.34l4-2a1,1,0,0,1,1.34.45A1,1,0,0,1,18.69,19.85Zm4.45.66a1,1,0,0,1-.45,1.34l-4,2a1,1,0,0,1-.44.11,1,1,0,0,1-.9-.56,1,1,0,0,1,.45-1.34l4-2A1,1,0,0,1,23.14,20.51Z"/>
	</symbol>

	<symbol id="svg-add" viewBox="0 0 60 60">
		<path d="M30,57A27,27,0,1,1,57,30,27,27,0,0,1,30,57ZM30,5A25,25,0,1,0,55,30,25,25,0,0,0,30,5Zm0,39a1,1,0,0,1-1-1V31H17a1,1,0,0,1,0-2H29V17a1,1,0,0,1,2,0V29H43a1,1,0,0,1,0,2H31V43A1,1,0,0,1,30,44Z" />
	</symbol>

	<symbol id="svg-likehand" viewBox="0 0 60 60">
		<path d="M55.08,22.21a1.09,1.09,0,0,0-.25,0l-13.72-.6.62-1c.56-.9,1.16-1.85,1.6-2.52,1-1.52,1.82-2.72,1.82-4.55,0-3.34-.61-5.45-1.81-6.26a2.27,2.27,0,0,0-2.21-.17c-1.53.62-2.24,2.23-3,3.93s-1.51,3.43-3,4.08c-3.3,1.41-9.46,8.24-10.92,9.89H17V22a1,1,0,0,0-1-1H6a1,1,0,0,0-1,1V46a1,1,0,0,0,1,1H16a1,1,0,0,0,1-1V43.27h7.86A22.13,22.13,0,0,0,31.43,46a.85.85,0,0,0,.23,0H45.32a3.57,3.57,0,0,0,3.82-3.73,2.43,2.43,0,0,0-.92-1.88l.43,0c2.52,0,4.14-1.39,4.14-3.54a3.74,3.74,0,0,0-.64-2.21,3.15,3.15,0,0,0,2.37-3.11,4.18,4.18,0,0,0-.7-2.38H55a3.54,3.54,0,0,0,3-3.52C58,23.64,56.16,22.55,55.08,22.21ZM15,45H7V23h8V45ZM55,27.12l-7.07.09a1,1,0,0,0-.11,2l3.79.45a2.12,2.12,0,0,1,1,1.86,1.22,1.22,0,0,1-1.27,1.24l-4,.63a1,1,0,0,0-.85,1.08,1,1,0,0,0,1,.91l2.6-.06a1.47,1.47,0,0,1,.82,1.52c0,1.28-1.16,1.54-2.14,1.54A39.51,39.51,0,0,0,44,39a1,1,0,0,0,.09,2c1.39.13,3.09.75,3.09,1.27A1.6,1.6,0,0,1,45.32,44H31.78c-1.26-.31-4.46-1.29-6-2.5a1,1,0,0,0-.63-.23H17V27h7.65a1,1,0,0,0,.75-.35c2-2.3,7.8-8.54,10.49-9.7,2.26-1,3.23-3.17,4.08-5.11.58-1.32,1.13-2.57,1.9-2.88.25-.1.32,0,.35,0,.45.3.93,1.87.93,4.6,0,1.17-.48,1.95-1.48,3.45-.46.68-1.06,1.65-1.63,2.56s-1.31,2.09-1.52,2.36a1,1,0,0,0,.74,1.62l15.32.67c.35.13,1.42.63,1.42,1.44A1.72,1.72,0,0,1,55,27.12Z" />
		<circle cx="11" cy="26" r="2" />
	</symbol>

	<symbol id="svg-cloudspread" viewBox="0 0 60 60">
		<path d="M53.71,43.05a1,1,0,0,0-1.42,0,1,1,0,0,0,0,1.41L54.83,47H40.09V35h3.15a13.07,13.07,0,1,0-6.39-24.59A12.35,12.35,0,0,0,14,13.67,10.65,10.65,0,0,0,14.71,35h6.2V47H6.17l2.54-2.54a1,1,0,0,0,0-1.41,1,1,0,0,0-1.42,0L2.34,48l5,5a1,1,0,0,0,1.42,0,1,1,0,0,0,0-1.41L6.17,49H22.91V35H29V55.83l-2.54-2.54a1,1,0,0,0-1.41,0,1,1,0,0,0,0,1.42L30,59.66l5-4.95a1,1,0,0,0,0-1.42,1,1,0,0,0-1.41,0L31,55.83V35h7.09V49H54.83l-2.54,2.54a1,1,0,0,0,0,1.41,1,1,0,0,0,1.42,0l4.95-5ZM31,33H14.71a8.65,8.65,0,1,1,0-17.3h1l.13-.87a10.35,10.35,0,0,1,19.7-2.62L36,13.24l1-.64a11.16,11.16,0,0,1,17.2,9.29A11.14,11.14,0,0,1,43.23,33Z" />
	</symbol>

	<symbol id="svg-iot" viewBox="0 0 700 700">
		<path d="M318.92,297.72a33.47,33.47,0,0,1,24.25-10.41,33.87,33.87,0,0,1,29.51,17.49,40.75,40.75,0,0,1,16.68-3.55,41.6,41.6,0,1,1-8.13,82.39A30.12,30.12,0,0,1,341.74,396a34.39,34.39,0,0,1-63.93-1.55,31.63,31.63,0,0,1-6.57.68,32.33,32.33,0,0,1-16-60.2,37.15,37.15,0,0,1,63.64-37.25M208,284V265a2,2,0,0,0-2-2H157a2,2,0,0,0-2,2v19a2,2,0,0,0,2,2h10a2,2,0,0,1,2,2V411a2,2,0,0,1-2,2H157a2,2,0,0,0-2,2v19a2,2,0,0,0,2,2h49a2,2,0,0,0,2-2V415a2,2,0,0,0-2-2H196a2,2,0,0,1-2-2V288a2,2,0,0,1,2-2h10A2,2,0,0,0,208,284Zm334-19H449a2,2,0,0,0-2,2v19a2,2,0,0,0,2,2h32a2,2,0,0,1,2,2V434a2,2,0,0,0,2,2h21a2,2,0,0,0,2-2V290a2,2,0,0,1,2-2h32a2,2,0,0,0,2-2V267A2,2,0,0,0,542,265Z"/>
	</symbol>

	<symbol id="svg-heroku" viewBox="0 0 700 700">
		<path d="M475.56,175H224.44a31.37,31.37,0,0,0-31.5,31.5v287a31.37,31.37,0,0,0,31.5,31.5H475.56a31.37,31.37,0,0,0,31.5-31.5v-287A31.37,31.37,0,0,0,475.56,175Zm14,318.5a13.81,13.81,0,0,1-14,14H224.44a13.81,13.81,0,0,1-14-14v-287a13.82,13.82,0,0,1,14-14H475.56a13.82,13.82,0,0,1,14,14v287Zm-217.87-21,39.37-35-39.37-35ZM413.44,330.75c-7-7-20.13-15.75-42-15.75-23.63,0-48.13,6.13-65.63,12.25V227.5H271.69V378.88l24.5-11.38s40.25-18.37,75.25-18.37c17.5,0,21.87,9.62,21.87,18.37v105h35v-105C428.31,364.88,428.31,345.63,413.44,330.75Zm-46.38-46.37h35c15.75-18.38,23.63-36.75,26.25-56.88h-35C389.81,247.63,381.06,266,367.06,284.38Z"/>
	</symbol>

	<symbol id="svg-community-cloud" viewBox="0 0 700 700">
		<path d="M385,520.55q-59.81,0-119.62,0a77.93,77.93,0,0,1-15.18-1.27c-13.5-2.69-22-10-25.5-24-8.28-33.49-6.52-66,8.55-97.19a125,125,0,0,1,44.34-50.51c7.13-4.73,7-4.88.84-11.07-33.95-33.91-41-78.21-19.27-120.68,1.25-2.45,4.17-5,2-8.07s-5.48-1.57-8.29-1.38c-29.55,2-55.48,24.91-60.87,53.61-5.93,31.65,8.89,62,37,75,4.75,2.19,6.79,4.91,6.33,10.14v14.62c.43,5.09-1.49,7.49-6.36,9.18-29.81,10.33-48.78,31.14-57.78,61.19-2.5,8.37-3.21,17.05-3.21,25.78,0,15.91,0,31.81,0,47.72,0,10.12-6.09,16.91-15,16.9s-15-6.68-15-16.9c.14-19.71-.84-39.45.55-59.14,2.48-35.21,18.5-63.39,45.68-85.34,11.26-9.1,11.42-8.62,2.09-19-24.76-27.61-33.11-59.72-21.89-95,11.32-35.6,36.5-58,73.13-66.32,15.43-3.5,31.18-3.26,46.48,1.82,2.91,1,5.12.44,7.68-1.14,37-22.77,74.19-23.59,111.28-.12,2.92,1.84,5.48,1.34,8.44.58,47.66-12.17,94.58,10.3,114.83,54.92,16.17,35.65,8,79.35-20.11,107.65-8,8-7.87,7.89,1.06,14.46,33.71,24.81,49.62,58.62,49.87,100,.07,11.19,1.44,22.44-.91,33.61-2.79,13.23-9.85,21.85-23.55,25.24a150.86,150.86,0,0,1-38.26,4.82C458,520.3,421.49,520.55,385,520.55Zm1.76-30q59.79,0,119.6.05a41.83,41.83,0,0,0,13.12-2c4.44-1.43,7.4-4.45,7.56-9.19.51-15.86,2.13-31.89-2.24-47.43-8.64-30.69-28.27-51.63-58.15-62.57-5.44-2-8.16-4.14-7.54-10.19l0-15.25c-.31-4.49,1.49-6.68,5.52-8.56,27.93-13,43.38-41.71,39-71.79-4.27-29.43-28.17-52.74-58.59-57-3.45-.48-7.8-2.11-10.26.91-2.83,3.46,1,6.64,2.55,9.69,15.7,31.41,15.81,62.68-.72,93.81a96.36,96.36,0,0,1-20.54,26.5c-4.07,3.66-4,6.63.91,9.32a39.91,39.91,0,0,1,4.24,2.81q47.55,34.89,53.38,93.58c.85,8.63-5.55,16.38-13.51,17.2-7.52.78-14.38-4.92-16-13.25-.35-1.88-.8-3.74-1.07-5.62C439,405.77,420,379.14,386.86,365.72c-14.66-5.94-17.13-13.35-16.18-26.53.43-6,1.9-9.15,7.49-12,25.51-13,39.84-33.88,40.5-62.74s-13.11-50.53-38-64.38c-32.75-18.24-74.4-5.73-94.51,27.47-19.1,31.54-10.45,75,21.47,94,13.7,8.12,18.44,16.4,16.55,31.05-.65,5-2,7.42-6.82,9-25.83,8.45-44.71,25.29-57.58,49-9.31,17.16-10.71,35.81-10.42,54.9.37,23.3,1.87,25.11,24.79,25.11Z"/>
	</symbol>

	<symbol id="svg-app-cloud" viewBox="0 0 700 700">
		<path d="M176.26,353.5c0-26.17.1-52.33-.08-78.5,0-5,1.61-7.8,6.39-9.78,47.08-19.61,94.05-39.5,141.11-59.16,17.14-7.16,34.2-7.8,51.77-.24,35.41,15.24,71.13,29.74,106.71,44.54,1.08.45,2.15.9,3.18,1.44,2.56,1.34,2.7,3.18.12,4.29q-16,6.93-32.22,13.4c-2.11.85-4.16-.79-6.11-1.6-27.28-11.41-54.58-22.79-81.79-34.37-10.42-4.43-20.47-4.36-30.91.09-38.82,16.55-77.74,32.85-116.63,49.24a12.84,12.84,0,0,0-1.38.56c-1.34.8-3.66.72-3.54,2.94.1,1.86,2.15,1.88,3.43,2.42q18.15,7.64,36.35,15.14c26.09,10.83,52.26,21.45,78.23,32.55,13.4,5.73,26.4,5.38,39.63-.12q73.43-30.48,146.89-60.86c6.72-2.78,6.79-2.75,6.79,4.49q0,75-.09,150c0,3.12.33,7.1-.68,10.33-2,6.34-8.25,10.27-15.26,9.74a14.19,14.19,0,0,1-13-12.46,46.64,46.64,0,0,1-.24-6.48q0-53.75,0-107.5c0-6.17,0-6.17-5.78-3.76q-49.43,20.67-98.84,41.38a114.37,114.37,0,0,1-19.95,6.22c-3.74.81-4.67,2.45-4.66,6.06q.17,63.5.05,127a35.83,35.83,0,0,1-.56,6.95c-1.52,7.68-7.53,12.1-15.58,11.65a14.74,14.74,0,0,1-13.76-13.38c-.18-2-.15-4-.15-6q0-62.76,0-125.5c0-2.59.62-5.31-3.18-6.28-26.72-6.83-51-19.83-76.47-30-14.66-5.84-29.1-12.22-43.65-18.34-5.5-2.31-6-2-6,3.89q0,54,0,108c0,3,.16,6-.81,8.91a14.28,14.28,0,0,1-14,9.93c-7.23-.26-13.08-4.75-14.53-11.43a35.51,35.51,0,0,1-.7-7.43Q176.23,392.49,176.26,353.5Z"/>
	</symbol>

	<symbol id="svg-sales-cloud" viewBox="0 0 700 700">
		<path d="M350.6,514.46c-38.83,0-77.66-.13-116.48.06-15.84.08-28.91-5.35-38.94-17.67A39.81,39.81,0,0,1,186,471.52c-.11-13.66.12-27.33-.15-41-.09-4.3.91-5.7,5.46-5.64,20.66.26,41.33,0,62,.22,4.5.05,6.78-1.29,8.57-5.52q27.3-64.51,55-128.86c2.88-6.74,2.94-6.77,9.3-3.3,20.14,11,40.32,21.94,60.36,33.12,3.59,2,5.48,1.91,8-1.62q38.1-52.59,76.59-104.88c1.48-2,1.46-3.54.84-5.79-4.38-15.72,5.2-32.93,20.48-37.11a29.88,29.88,0,0,1,36.91,21.3,30.28,30.28,0,0,1-15.12,34.38,25.93,25.93,0,0,1-11.27,2.7c-5.63.2-8.67,4.59-12,9.1q-43.18,59.07-86.63,118c-4.07,5.53-4.66,5.69-10.56,2.46-18.55-10.11-37.14-20.13-55.56-30.46-3.47-1.95-4.55-1.3-6,2.09-17.4,40.09-35,80.09-52.32,120.22-1.5,3.47-3.33,4.18-6.67,4.16-17.5-.13-35,0-52.49-.14-3.56,0-5.27.63-4.86,4.61.34,3.3,0,6.66.08,10C216.2,479,222.36,485,231.83,485H470.29c9.4,0,15.63-6.09,15.68-15.59.1-16.5,0-33,0-49.49q0-69.24,0-138.48c0-8.28,4-14.47,10.44-16.4,9-2.71,18.42,3.68,19.47,13.32a53.08,53.08,0,0,1,.11,5.5q0,91.48,0,183c0,24.09-11.89,39.81-35.08,46.46-4.55,1.31-9.24,1.14-13.87,1.15Q408.84,514.51,350.6,514.46ZM333.89,186c-34.81,0-69.63-.38-104.44.13-24.84.36-43.4,20-43.47,44.79-.06,17.66,0,35.32,0,53,0,35.49.08,71-.09,106.45,0,4.21,1.17,5.47,5.31,5.26h19.48c4.52.28,5.45-1.28,5.44-5.59-.16-51.64.13-103.29-.29-154.92-.09-11.11,5.39-19.51,19.34-19.42,67,.43,133.93.19,200.9.2A30.69,30.69,0,0,0,445,215a14.67,14.67,0,0,0,6.49-24.38c-3.44-3.62-7.66-4.82-12.61-4.81-35,.1-70,.06-104.95.06Z"/>
	</symbol>

	<symbol id="svg-service-cloud" viewBox="0 0 700 700">
		<path d="M522.08,309.21c.24,27.72-7.14,49.16-18.75,69.44C484,412.47,456.22,438.29,425.2,461c-4.3,3.14-8.83,6-13.05,9.22-3.35,2.56-6.3,2.82-9.93.41-5.54-3.69-11.38-6.91-17.07-10.35-4.9-3-5-4.08-.22-7.11a329.68,329.68,0,0,0,42.81-31.89c18.54-16.59,35.89-34.32,49.63-55.2,24-36.44,17.31-85.05-.86-110.09-13.95-19.23-37.54-27.36-60.7-21.5-22.52,5.69-39.64,19-53.51,37.05-2.73,3.56-5.55,7.09-7.95,10.88-2,3.12-3,2.32-4.78-.15-6.93-9.36-13.19-19.28-21.76-27.31-19.24-18-41.33-27-68-21-15.32,3.48-27.19,12.33-34.53,25.89-20.62,38.07-19.73,75.78,5.44,111.46a277.44,277.44,0,0,0,61.6,63c21.52,16,44.44,29.9,67.45,43.65Q373.06,486,386,494.45c6.32,4.12,8.08,11.17,4.92,17.9-2.76,5.88-9.55,8.72-16.47,6.85a22.09,22.09,0,0,1-4.24-1.45c-53.43-27-102.81-59.58-143.32-104.29C213,398.14,200,382.23,191.6,363c-9.9-22.74-11.51-46.31-8.17-70.48,2.9-21,9.92-40.42,23.35-57,20.59-25.42,47.48-35.08,79.77-31.13,24.14,3,44.25,13.74,61.47,30.4,3,2.9,4.56,3.1,7.84.06C377,215.19,401.69,203.07,431,203.76c36.95.88,63.07,19.38,79.1,52.37C518.79,274.15,521.8,293.45,522.08,309.21Z"/>
	</symbol>

	<symbol id="svg-marketing-cloud" viewBox="0 0 700 700">
		<path d="M201.69,314c-.39-43.6,18.77-81.5,53.5-111.57,24.49-21.19,53.48-32.8,86-34.53,47-2.5,87.45,12.94,119.45,47.24s44.9,76,38.83,122.93c-3.54,27.39-14.63,51.68-31.87,73.21q-36.86,46-73.67,92.11c-4.53,5.66-4.79,5.66-9.38-.17-3.61-4.58-6.95-9.4-10.88-13.68-3-3.22-2.32-5.34.17-8.44,24.09-30,48-60.18,72-90.22,18.33-22.88,26.3-49.2,24.92-78.15-2.25-47-25.3-81.54-66.77-102.73-40.76-20.82-97.15-16.55-136.07,21.27-40.6,39.45-45.47,100.12-22.17,143.09,7.45,13.74,18.05,25.12,27.57,37.31Q320,471.35,369.14,529c3.26,3.8,5.58,7.88,5.36,13-.29,6.75-3.81,11.53-9.86,13.6-5.62,1.93-12,0-16.52-5.42-7.26-8.69-14.37-17.51-21.54-26.28q-46.83-57.27-93.67-114.52C212.65,384.56,201,350.16,201.69,314Zm59.38,2.32C260,365.39,300.34,404.62,345.44,407c53.59,2.85,94.73-39.95,95.5-87.14.85-51.21-38.18-91.74-89.68-92.68C302.57,226.31,262.13,266.33,261.07,316.3Zm149.75,1.59a59.83,59.83,0,0,1-119.65-1.37c.48-32.68,27.54-59.26,60-58.92A59.91,59.91,0,0,1,410.82,317.89Zm-89.59-1.12A29.33,29.33,0,0,0,350,347c17.2.35,30.47-12.25,30.8-29.21.31-16.13-13.07-29.79-29.56-30.18C335.37,287.2,321.77,300.43,321.23,316.77Z"/>
	</symbol>
	
	<symbol id="svg-cloudspread" viewBox="0 0 60 60">
		<path d="M53.71,43.05a1,1,0,0,0-1.42,0,1,1,0,0,0,0,1.41L54.83,47H40.09V35h3.15a13.07,13.07,0,1,0-6.39-24.59A12.35,12.35,0,0,0,14,13.67,10.65,10.65,0,0,0,14.71,35h6.2V47H6.17l2.54-2.54a1,1,0,0,0,0-1.41,1,1,0,0,0-1.42,0L2.34,48l5,5a1,1,0,0,0,1.42,0,1,1,0,0,0,0-1.41L6.17,49H22.91V35H29V55.83l-2.54-2.54a1,1,0,0,0-1.41,0,1,1,0,0,0,0,1.42L30,59.66l5-4.95a1,1,0,0,0,0-1.42,1,1,0,0,0-1.41,0L31,55.83V35h7.09V49H54.83l-2.54,2.54a1,1,0,0,0,0,1.41,1,1,0,0,0,1.42,0l4.95-5ZM31,33H14.71a8.65,8.65,0,1,1,0-17.3h1l.13-.87a10.35,10.35,0,0,1,19.7-2.62L36,13.24l1-.64a11.16,11.16,0,0,1,17.2,9.29A11.14,11.14,0,0,1,43.23,33Z"/>
	</symbol>

	<symbol id="svg-3dblocks" viewBox="0 0 60 60">
		<path d="M52,57V17l-9-3.38V8.82a3,3,0,1,0-2,0v4.06L36,11,23,14V35.56L20,35,7,38V57H3v2H58V57ZM42,5a1,1,0,1,1-1,1A1,1,0,0,1,42,5ZM25,15.59l9-2.08V37.62l-9-1.68ZM9,57V39.59l11-2.54V57Zm13,0V37.41l12,2.25V57Zm28,0H36V13.14l14,5.25Z"/>
		<path d="M18,54H10V52h8Zm-7.82-4.85-.33-2,8-1.33.33,2Zm0-5-.33-2,8-1.33.33,2Zm16.09-8.94-.48-1.94,5.94-1.48.48,1.94Zm0-5-.48-1.94,5.94-1.48.48,1.94Zm0-5-.48-1.94,5.94-1.48.48,1.94Zm0-5-.48-1.94,5.94-1.48.48,1.94Z"/>
	</symbol>

	<symbol id="svg-snakeup" viewBox="0 0 60 60">
		<path d="M55.1,18.79,46.71,10.4a1,1,0,0,0-1.42,0L36.9,18.79a1,1,0,0,0,1.42,1.42L45,13.53V42a7,7,0,0,1-14,0V19a9,9,0,0,0-18,0V49h2V19a7,7,0,0,1,14,0V42a9,9,0,0,0,18,0V13.53l6.68,6.68a1,1,0,0,0,1.42,0A1,1,0,0,0,55.1,18.79Z"/>
	</symbol>

	<symbol id="svg-arrow-down" viewBox="0 0 60 60">
		<path d="M30,32.83l9.9-9.9a2,2,0,1,1,2.83,2.83L31.41,37.07a2,2,0,0,1-2.82,0L17.27,25.76a2,2,0,0,1,2.83-2.83Z"/>
	</symbol>

	<symbol id="svg-booker" viewBox="0 0 1814.09 513.66" preserveAspectRatio="xMinYMin meet">
        <path fill="currentColor" d="M197.48,241.16c10.14-5.8,18.13-12.94,23.8-21.27,6.85-10.06,10.32-22.74,10.32-37.68,0-13.73-2.32-25.48-6.9-34.92a58.14,58.14,0,0,0-19.61-23c-8.29-5.67-18.34-9.79-29.86-12.26a181.92,181.92,0,0,0-37.83-3.67H0V400H141.4a149.67,149.67,0,0,0,38.16-4.89,103.59,103.59,0,0,0,33.37-15.25A76.2,76.2,0,0,0,236.45,353c5.81-10.92,8.75-24,8.75-38.8,0-18.4-4.55-34.38-13.52-47.5C223.81,255.22,212.33,246.65,197.48,241.16ZM68.8,272.8h65.4c12.86,0,23.29,3,31,8.79,7.44,5.65,11.21,15.41,11.21,29,0,6.94-1.16,12.66-3.45,17a27.45,27.45,0,0,1-9.2,10.3A40.27,40.27,0,0,1,150,343.47a81.23,81.23,0,0,1-17,1.74H68.8Zm86.41-56.21c-6.63,4.92-15.31,7.41-25.81,7.41H68.8V163.21h55.8a89,89,0,0,1,15.67,1.35,37.74,37.74,0,0,1,12.79,4.62,23.81,23.81,0,0,1,8.52,8.89c2.14,3.8,3.22,8.82,3.22,14.93C164.8,204.1,161.66,211.82,155.21,216.59Zm291.92-4.29a99.83,99.83,0,0,0-34.83-22.69c-13.49-5.31-28.73-8-45.3-8s-31.75,2.7-45.11,8A97.55,97.55,0,0,0,265,247.75c-5.17,13.74-7.79,29.23-7.79,46.05s2.62,32.27,7.79,45.87a100.48,100.48,0,0,0,22.27,35.24,97.73,97.73,0,0,0,34.66,22.49c13.36,5.18,28.52,7.81,45.08,7.81s31.78-2.63,45.27-7.8a97.6,97.6,0,0,0,34.87-22.5,100.46,100.46,0,0,0,22.26-35.24c5.18-13.62,7.8-29.05,7.8-45.87s-2.62-32.3-7.79-46.05A100.31,100.31,0,0,0,447.13,212.3ZM389.71,351.6c-6,3.45-13.68,5.2-22.71,5.2s-16.59-1.74-22.49-5.19a40.75,40.75,0,0,1-14.36-14,61.66,61.66,0,0,1-7.81-20.22h0A118.83,118.83,0,0,1,320,293.8,122,122,0,0,1,322.34,270a59.48,59.48,0,0,1,7.8-20.19,43.29,43.29,0,0,1,14.41-14c5.9-3.56,13.46-5.36,22.45-5.36s16.63,1.81,22.67,5.38a42.71,42.71,0,0,1,14.59,14,59.72,59.72,0,0,1,7.8,20.19,122,122,0,0,1,2.34,23.81,118.83,118.83,0,0,1-2.34,23.61,61.84,61.84,0,0,1-7.81,20.22A40.43,40.43,0,0,1,389.71,351.6ZM679.15,212.3a100,100,0,0,0-34.83-22.69c-13.5-5.31-28.74-8-45.3-8s-31.76,2.7-45.11,8A97.55,97.55,0,0,0,497,247.75c-5.17,13.74-7.79,29.23-7.79,46.05s2.62,32.27,7.79,45.87a100.34,100.34,0,0,0,22.27,35.24,97.78,97.78,0,0,0,34.65,22.49c13.36,5.18,28.53,7.81,45.09,7.81s31.78-2.63,45.27-7.8a97.47,97.47,0,0,0,34.86-22.5,100.57,100.57,0,0,0,22.27-35.24c5.17-13.62,7.8-29.05,7.8-45.87s-2.63-32.29-7.8-46.05A100.15,100.15,0,0,0,679.15,212.3ZM621.73,351.6c-6,3.45-13.68,5.2-22.71,5.2s-16.59-1.74-22.49-5.19a40.75,40.75,0,0,1-14.36-14,61.66,61.66,0,0,1-7.81-20.22h0A118.09,118.09,0,0,1,552,293.8,121.21,121.21,0,0,1,554.36,270a59.68,59.68,0,0,1,7.79-20.19,43.32,43.32,0,0,1,14.42-14c5.9-3.56,13.45-5.36,22.45-5.36s16.62,1.81,22.67,5.38a42.79,42.79,0,0,1,14.59,14A59.79,59.79,0,0,1,644.07,270a121.37,121.37,0,0,1,2.35,23.81,119,119,0,0,1-2.34,23.61,61.72,61.72,0,0,1-7.82,20.22A40.32,40.32,0,0,1,621.73,351.6Zm228-85L938.23,400H862.16l-55.72-90.65L788,327.08V400h-62.8V108.4H788V257.16l67.32-70h75.86Zm252.38-46.19a95.35,95.35,0,0,0-33.23-28.29c-13.44-7-29.39-10.54-47.39-10.54-16.07,0-30.94,2.91-44.19,8.65a103,103,0,0,0-56.61,59.29,124,124,0,0,0-7.8,44.26,129.2,129.2,0,0,0,7.59,45,103.1,103.1,0,0,0,21.63,35.42,94.74,94.74,0,0,0,34.27,22.93c13.36,5.32,28.54,8,45.11,8,23.94,0,44.68-5.55,61.63-16.48s29.85-29.44,38-54.8l1.26-3.93H1066l-.63,2.16c-1.66,5.7-6.38,11.28-14,16.58s-17.09,8.06-27.89,8.06c-15.12,0-26.8-3.88-34.71-11.55h0c-7.44-7.2-11.78-18.92-12.91-34.84h148.83l.18-2.81a149.86,149.86,0,0,0-4.08-46.94A116.39,116.39,0,0,0,1102.1,220.43ZM998.65,234.68c5.55-2.84,12.69-4.27,21.23-4.27,12.92,0,22.6,3.43,28.78,10.21,5.83,6.4,10.11,15.74,12.76,27.79H976a70.08,70.08,0,0,1,2.15-9.77,39.15,39.15,0,0,1,7.07-13.37A40.27,40.27,0,0,1,998.65,234.68Zm279.63-51,2.15.63v58.7l-3.58-.71c-2.59-.52-5.73-1-9.34-1.36a97.81,97.81,0,0,0-10.48-.58c-9.89,0-18.33,1.64-25.1,4.9a42.94,42.94,0,0,0-16.28,13.27,54.24,54.24,0,0,0-8.9,19.9A112.08,112.08,0,0,0,1204,303.8V400h-62.8V187.21h60V217.7a74.64,74.64,0,0,1,22.55-23.4,79.66,79.66,0,0,1,19.54-9.35A71.08,71.08,0,0,1,1265,181.6,47.59,47.59,0,0,1,1278.28,183.73Z"/>
        <path d="M1764.09,0H1350.43a50,50,0,0,0-50,50V463.66a50,50,0,0,0,50,50h413.66a50,50,0,0,0,50-50V50A50,50,0,0,0,1764.09,0ZM1548,400h-211.6v-3c0-16.57,2.43-31.2,7.21-43.49a116.14,116.14,0,0,1,19.5-33,169.7,169.7,0,0,1,28.71-26.68c10.75-8,22.29-16.19,34.28-24.46,6.21-4.32,12.84-8.71,19.7-13.06A128.26,128.26,0,0,0,1464.4,242a75.18,75.18,0,0,0,13.85-17.31,41.88,41.88,0,0,0,5.39-21.3c0-12.69-3.66-22.66-10.88-29.64s-16.55-10.56-28.12-10.56c-7.61,0-14.12,1.78-19.32,5.29a40.48,40.48,0,0,0-12.85,14.16,67,67,0,0,0-7.08,19.92,116,116,0,0,0-2.15,22v3h-60.3l-.1-2.9a138,138,0,0,1,5.74-45.59h0a107.11,107.11,0,0,1,19.76-37,90.44,90.44,0,0,1,33.29-24.82c13.26-5.88,28.67-8.86,45.81-8.86a115.23,115.23,0,0,1,37.58,6.16,97.86,97.86,0,0,1,31.56,17.75,85.09,85.09,0,0,1,21.77,28.6c5.37,11.3,8.09,24.11,8.09,38.09,0,14.49-2.37,27.15-7.06,37.63a99.35,99.35,0,0,1-18.56,27.84,157.13,157.13,0,0,1-25.9,21.82c-9.65,6.52-19.28,12.92-28.64,19s-18.86,13-27.77,20a123.29,123.29,0,0,0-19.83,19.85H1548Zm221.39-56.76a106,106,0,0,1-23.26,33.13,103.66,103.66,0,0,1-34,21.62,106,106,0,0,1-39,7.23l-2.16,0a142.75,142.75,0,0,1-39.78-5.52,101,101,0,0,1-34-17.11,86.58,86.58,0,0,1-23.82-28.79c-5.92-11.42-9.06-24.86-9.33-39.93l-.06-3.05h62.56l.28,2.69c1.25,12,5.77,21.65,13.45,28.7s17.6,10.61,29.57,10.61a41,41,0,0,0,18.83-4.27A45.38,45.38,0,0,0,1703,337.29a51.55,51.55,0,0,0,9.06-16.25,58.5,58.5,0,0,0,3.24-19.22,61.52,61.52,0,0,0-3-19.45,45.18,45.18,0,0,0-9-15.76,42.48,42.48,0,0,0-14.2-10.46,46.24,46.24,0,0,0-19.15-3.73c-9.57,0-17.42,1.69-23.33,5s-11.73,8.8-17,16.14l-.9,1.24h-56.32L1601,114H1762.9v52.8H1646.81l-9.55,54.23a70.22,70.22,0,0,1,20.37-12.23,87.63,87.63,0,0,1,31.07-5.2c14.23,0,27,2.66,38.08,7.89a84.33,84.33,0,0,1,28,21.15,92.47,92.47,0,0,1,17.37,31.21,120,120,0,0,1,6,37.95A100,100,0,0,1,1769.43,343.26Z"/>
    </symbol>

    <symbol id="svg-social" viewBox="0 0 1603.91 513.66" preserveAspectRatio="xMinYMin meet">
        <path fill="currentColor" d="M68.51,327.08a45.64,45.64,0,0,0,13.9,16.32,60.18,60.18,0,0,0,20.36,9.27,96.28,96.28,0,0,0,24.18,3,126.06,126.06,0,0,0,18.13-1.41,63.07,63.07,0,0,0,18.14-5.44,39.58,39.58,0,0,0,14.1-11.08q5.64-7,5.64-17.94,0-11.69-7.45-18.94T156,288.79a196.22,196.22,0,0,0-27.4-8.46q-15.33-3.63-31-8.06a275.25,275.25,0,0,1-31.44-9.87,107.79,107.79,0,0,1-27.4-15.12,71.06,71.06,0,0,1-19.55-23.17q-7.46-13.91-7.45-33.65,0-22.15,9.47-38.49a85.71,85.71,0,0,1,24.78-27.2A108.23,108.23,0,0,1,80.6,108.65a147.56,147.56,0,0,1,38.69-5.24,183,183,0,0,1,43.32,5,108.16,108.16,0,0,1,36.88,16.32,82.8,82.8,0,0,1,25.59,28.81q9.46,17.53,9.47,42.52H173.29q-.81-12.89-5.44-21.36a35.7,35.7,0,0,0-12.29-13.3A52.25,52.25,0,0,0,138,154.59a108.24,108.24,0,0,0-21.56-2,74.46,74.46,0,0,0-15.32,1.61,41.19,41.19,0,0,0-13.9,5.64A35,35,0,0,0,77,169.91q-4,6-4,15.31,0,8.46,3.23,13.7t12.69,9.67q9.47,4.44,26.2,8.87t43.72,11.29q8.06,1.6,22.37,5.84a107.33,107.33,0,0,1,28.41,13.5,85.9,85.9,0,0,1,24.38,24.78q10.27,15.53,10.28,39.7a88,88,0,0,1-7.66,36.67,79.49,79.49,0,0,1-22.77,29.22q-15.1,12.3-37.48,19.14t-51.78,6.85a182,182,0,0,1-46.15-5.84,115.94,115.94,0,0,1-39.49-18.34,90.44,90.44,0,0,1-27.2-31.83Q1.61,329.09,2,302.49H63.27Q63.27,317,68.51,327.08Zm56,79.37a184.85,184.85,0,0,1-46.65-5.91,118.4,118.4,0,0,1-40.17-18.65,92.85,92.85,0,0,1-27.8-32.53C3.07,336.23-.26,320.45,0,302.46l0-2H65.27v2c0,9.31,1.69,17.27,5,23.66h0a44,44,0,0,0,13.29,15.62,58.41,58.41,0,0,0,19.69,9,94.67,94.67,0,0,0,23.68,3,124.27,124.27,0,0,0,17.84-1.39A61.2,61.2,0,0,0,162.36,347a37.65,37.65,0,0,0,13.4-10.52c3.45-4.32,5.2-9.93,5.2-16.69,0-7.29-2.24-13-6.85-17.5-4.76-4.64-11.12-8.56-18.89-11.67a194,194,0,0,0-27.12-8.37c-10.26-2.43-20.73-5.15-31.12-8.09a275.76,275.76,0,0,1-31.6-9.93,110.05,110.05,0,0,1-27.91-15.39,73.46,73.46,0,0,1-20.09-23.81c-5.1-9.52-7.69-21.16-7.69-34.6,0-15.07,3.27-28.36,9.74-39.49a88.06,88.06,0,0,1,25.35-27.83,110.53,110.53,0,0,1,35.3-16.42,150.37,150.37,0,0,1,39.21-5.31,186,186,0,0,1,43.79,5.1,110.55,110.55,0,0,1,37.55,16.62,85.13,85.13,0,0,1,26.21,29.5c6.44,11.94,9.71,26.57,9.71,43.47v2H171.41l-.12-1.87c-.52-8.27-2.27-15.17-5.2-20.53a33.85,33.85,0,0,0-11.6-12.57,50.54,50.54,0,0,0-16.86-6.58,106.75,106.75,0,0,0-21.16-2,72.85,72.85,0,0,0-14.91,1.57,39.29,39.29,0,0,0-13.23,5.36A33.16,33.16,0,0,0,78.64,171c-2.45,3.67-3.7,8.45-3.7,14.2,0,5.25,1,9.51,2.93,12.65s5.91,6.14,11.84,8.91c6.16,2.89,14.86,5.83,25.86,8.75s25.25,6.6,43.65,11.26c5.42,1.09,13,3.07,22.5,5.88a109.92,109.92,0,0,1,28.94,13.75,88.21,88.21,0,0,1,25,25.35c7,10.63,10.61,24.36,10.61,40.8a90.4,90.4,0,0,1-7.84,37.5A82,82,0,0,1,215.05,380c-10.22,8.32-23.06,14.88-38.15,19.5S144.24,406.45,124.53,406.45ZM4,304.49c0,16.5,3.18,31,9.46,43a88.8,88.8,0,0,0,26.61,31.15,114.32,114.32,0,0,0,38.82,18,180.57,180.57,0,0,0,45.64,5.78c19.31,0,36.54-2.27,51.2-6.76s27-10.79,36.8-18.78a78.09,78.09,0,0,0,22.21-28.49,86.45,86.45,0,0,0,7.48-35.85c0-15.64-3.35-28.63-9.95-38.59a84.26,84.26,0,0,0-23.81-24.22,105.51,105.51,0,0,0-27.88-13.25c-9.42-2.79-16.88-4.74-22.19-5.8l-.1,0c-18.44-4.67-32.75-8.37-43.75-11.29-11.23-3-20.15-6-26.53-9-6.74-3.16-11.17-6.57-13.55-10.44s-3.52-8.75-3.52-14.75c0-6.56,1.47-12.08,4.37-16.42a37,37,0,0,1,10.86-10.65,43.26,43.26,0,0,1,14.57-5.92,76.57,76.57,0,0,1,15.73-1.65,111,111,0,0,1,22,2,54.55,54.55,0,0,1,18.2,7.12,37.84,37.84,0,0,1,13,14c3,5.46,4.85,12.29,5.55,20.32h57.38c-.24-15.38-3.34-28.69-9.21-39.56a81.09,81.09,0,0,0-25-28.13,106.84,106.84,0,0,0-36.2-16,182.35,182.35,0,0,0-42.85-5,146.3,146.3,0,0,0-38.17,5.17,106.57,106.57,0,0,0-34,15.82A84.06,84.06,0,0,0,22.89,153c-6.11,10.51-9.2,23.13-9.2,37.48,0,12.78,2.43,23.78,7.22,32.7a69.44,69.44,0,0,0,19,22.54A106.47,106.47,0,0,0,66.8,260.53,276.39,276.39,0,0,0,98,270.33c10.4,2.93,20.81,5.64,31,8.05a198.46,198.46,0,0,1,27.68,8.55c8.26,3.31,15.06,7.52,20.2,12.52,5.35,5.2,8.06,12.06,8.06,20.37,0,7.69-2,14.14-6.08,19.19a41.72,41.72,0,0,1-14.81,11.64,65.19,65.19,0,0,1-18.7,5.61A127.89,127.89,0,0,1,127,357.69a98.55,98.55,0,0,1-24.69-3.09,62.45,62.45,0,0,1-21-9.58,47.84,47.84,0,0,1-14.5-17c-3.38-6.5-5.21-14.39-5.44-23.51Zm264.77-55.8a95.32,95.32,0,0,1,55.61-56.82Q344.12,184,368.71,184t44.53,7.86a94.91,94.91,0,0,1,55.82,56.82Q476.71,269,476.72,294t-7.66,45.14a98,98,0,0,1-21.76,34.45,94.84,94.84,0,0,1-34.06,22q-19.94,7.65-44.53,7.65t-44.33-7.65a95.12,95.12,0,0,1-33.85-22,97.68,97.68,0,0,1-21.76-34.45Q261.11,319,261.11,294T268.77,248.69Zm52,69.72A64.75,64.75,0,0,0,329,339.77a43.93,43.93,0,0,0,15.51,15.11q9.68,5.65,24.18,5.65t24.38-5.65a43.49,43.49,0,0,0,15.72-15.11,65,65,0,0,0,8.26-21.36A122.11,122.11,0,0,0,419.49,294a125.23,125.23,0,0,0-2.42-24.58,62.8,62.8,0,0,0-8.26-21.36A45.83,45.83,0,0,0,393.09,233q-9.87-5.85-24.38-5.85T344.53,233A46.34,46.34,0,0,0,329,248.09a62.6,62.6,0,0,0-8.26,21.36A124.47,124.47,0,0,0,318.34,294,121.37,121.37,0,0,0,320.76,318.41Zm47.95,86.83c-16.55,0-31.71-2.62-45-7.79A97.48,97.48,0,0,1,289.11,375a100.29,100.29,0,0,1-22.21-35.15c-5.17-13.59-7.79-29-7.79-45.85s2.62-32.31,7.79-46a97.3,97.3,0,0,1,56.74-58c13.34-5.31,28.5-8,45.07-8s31.79,2.69,45.27,8a96.89,96.89,0,0,1,56.95,58c5.17,13.74,7.79,29.23,7.79,46s-2.62,32.24-7.79,45.85A100.29,100.29,0,0,1,448.72,375,97.15,97.15,0,0,1,414,397.45C400.48,402.62,385.26,405.24,368.71,405.24Zm0-219.23c-16.06,0-30.72,2.6-43.59,7.72a93.25,93.25,0,0,0-54.48,55.67h0c-5,13.27-7.53,28.29-7.53,44.63s2.53,31.29,7.53,44.43A96.33,96.33,0,0,0,292,372.22a93.65,93.65,0,0,0,33.16,21.5c12.87,5,27.55,7.52,43.6,7.52s30.8-2.53,43.82-7.52a93.11,93.11,0,0,0,33.34-21.5,96.21,96.21,0,0,0,21.32-33.76c5-13.16,7.53-28.1,7.53-44.43s-2.54-31.34-7.53-44.63a92.93,92.93,0,0,0-54.68-55.67C399.51,188.61,384.77,186,368.71,186Zm0,176.52c-10,0-18.46-2-25.19-5.92a46.09,46.09,0,0,1-16.21-15.79,67.23,67.23,0,0,1-8.51-22A124.56,124.56,0,0,1,316.34,294a127.59,127.59,0,0,1,2.45-25,65.12,65.12,0,0,1,8.54-22,48.49,48.49,0,0,1,16.17-15.76c6.74-4.06,15.22-6.13,25.21-6.13s18.53,2.06,25.4,6.12A48.11,48.11,0,0,1,410.5,247a64.81,64.81,0,0,1,8.53,22,127.6,127.6,0,0,1,2.46,25A124.56,124.56,0,0,1,419,318.81a67.15,67.15,0,0,1-8.52,22,45.66,45.66,0,0,1-16.42,15.8C387.23,360.54,378.7,362.53,368.71,362.53Zm0-133.4c-9.25,0-17,1.87-23.14,5.56a44.55,44.55,0,0,0-14.86,14.47,60.79,60.79,0,0,0-8,20.68A123.47,123.47,0,0,0,320.34,294a120.32,120.32,0,0,0,2.38,24h0a63,63,0,0,0,8,20.71,42.18,42.18,0,0,0,14.82,14.44c6.1,3.56,13.9,5.37,23.17,5.37s17.15-1.81,23.39-5.38a41.64,41.64,0,0,0,15-14.43,63.08,63.08,0,0,0,8-20.71,120.32,120.32,0,0,0,2.38-24,123.47,123.47,0,0,0-2.38-24.19,61.25,61.25,0,0,0-8-20.69,44.09,44.09,0,0,0-15.05-14.45C385.83,231,378,229.13,368.71,229.13Zm230.38-2q-13.7,0-23,6.25A49.65,49.65,0,0,0,561,249.5a69.58,69.58,0,0,0-8.26,21.76,118.28,118.28,0,0,0-2.42,23.58,113.33,113.33,0,0,0,2.42,23A70.92,70.92,0,0,0,560.61,339a45,45,0,0,0,14.71,15.51q9.25,6,22.56,6,20.57,0,31.64-11.49t13.9-30.83h55.21q-5.64,41.52-32.24,63.27t-68.1,21.76a114.18,114.18,0,0,1-42.92-7.85,95,95,0,0,1-33.25-22,99.74,99.74,0,0,1-21.36-33.65,116.55,116.55,0,0,1-7.66-42.92,138.57,138.57,0,0,1,7.06-44.93,100.77,100.77,0,0,1,20.75-35.87,95.08,95.08,0,0,1,33.45-23.58Q574.1,184,599.5,184a130.41,130.41,0,0,1,35.66,4.84,95.15,95.15,0,0,1,30.63,14.71,78.73,78.73,0,0,1,22,24.58q8.46,14.72,9.67,34.86h-56Q635.76,227.14,599.09,227.13Zm-.8,178.11a116.57,116.57,0,0,1-43.67-8,97.48,97.48,0,0,1-33.94-22.43A102.35,102.35,0,0,1,498.9,340.5a119.18,119.18,0,0,1-7.8-43.65,141.48,141.48,0,0,1,7.16-45.58,103.51,103.51,0,0,1,21.17-36.56,97.37,97.37,0,0,1,34.14-24.07c13.35-5.73,28.8-8.63,45.93-8.63a133.27,133.27,0,0,1,36.21,4.91,98,98,0,0,1,31.26,15,81.26,81.26,0,0,1,22.52,25.2c5.77,10,9.11,22.06,9.93,35.74l.13,2.12H639.7l-.27-1.69c-3.62-23-16.81-34.18-40.34-34.18-8.68,0-16,2-21.85,5.91a47.82,47.82,0,0,0-14.51,15.48,68,68,0,0,0-8,21.14,116.49,116.49,0,0,0-2.38,23.18,111.44,111.44,0,0,0,2.38,22.56A69.46,69.46,0,0,0,562.34,338a43.3,43.3,0,0,0,14.07,14.83c5.82,3.8,13,5.73,21.47,5.73,13.07,0,23.23-3.66,30.2-10.88s11.55-17.31,13.36-29.73l.25-1.71h59.23l-.3,2.27c-3.82,28.06-14.91,49.78-33,64.55S626.3,405.24,598.29,405.24ZM599.5,186c-16.58,0-31.5,2.79-44.35,8.3a93.43,93.43,0,0,0-32.76,23.08,99.58,99.58,0,0,0-20.34,35.17,137.43,137.43,0,0,0-6.95,44.29A115.16,115.16,0,0,0,502.62,339a98.42,98.42,0,0,0,20.93,33,93.57,93.57,0,0,0,32.56,21.5,112.55,112.55,0,0,0,42.18,7.71c27.07,0,49.56-7.17,66.84-21.31,16.75-13.71,27.24-33.79,31.2-59.72h-51.2c-2.09,12.48-6.86,22.64-14.17,30.22-7.75,8-18.88,12.1-33.08,12.1-9.22,0-17.18-2.15-23.66-6.37A47.39,47.39,0,0,1,558.87,340a73.46,73.46,0,0,1-8.08-21.75,115.84,115.84,0,0,1-2.46-23.37,120.81,120.81,0,0,1,2.46-24,71.93,71.93,0,0,1,8.5-22.38A51.89,51.89,0,0,1,575,231.72c6.49-4.37,14.6-6.59,24.09-6.59,24.89,0,39.68,12.07,44,35.87h52.18c-1-12.17-4.1-22.88-9.26-31.86a77.31,77.31,0,0,0-21.41-24,93.87,93.87,0,0,0-30-14.4A129.28,129.28,0,0,0,599.5,186Zm115.66-28.6V110.26h57.23v47.15Zm57.23,32.24V398H715.16V189.65Zm2,210.35H713.16V187.65h61.23Zm-57.23-4h53.23V191.65H717.16Zm57.23-236.59H713.16V108.26h61.23Zm-57.23-4h53.23V112.26H717.16Zm78,98.32q1.22-20.14,10.08-33.45a68.69,68.69,0,0,1,22.57-21.36,98.18,98.18,0,0,1,30.83-11.48A175.45,175.45,0,0,1,893.06,184a233.22,233.22,0,0,1,31.84,2.22,97.8,97.8,0,0,1,29.42,8.66,57.91,57.91,0,0,1,21.76,17.94q8.46,11.47,8.46,30.42V351.66a216.48,216.48,0,0,0,1.62,27q1.61,12.9,5.64,19.34h-58a78.75,78.75,0,0,1-2.62-9.87,82.3,82.3,0,0,1-1.41-10.28A74.58,74.58,0,0,1,897.5,397.6a129.54,129.54,0,0,1-37.89,5.64,102.18,102.18,0,0,1-27.8-3.62,63.64,63.64,0,0,1-22.57-11.29A52.39,52.39,0,0,1,794.13,369q-5.45-11.69-5.44-27.81,0-17.73,6.24-29.22a52.27,52.27,0,0,1,16.12-18.33,72.33,72.33,0,0,1,22.57-10.28,243.2,243.2,0,0,1,25.59-5.44q12.9-2,25.39-3.22a153.81,153.81,0,0,0,22.17-3.63q9.66-2.42,15.31-7.05t5.24-13.5q0-9.27-3-14.71a22.26,22.26,0,0,0-8-8.47,32.06,32.06,0,0,0-11.69-4,97.31,97.31,0,0,0-14.31-1q-16.92,0-26.6,7.25t-11.28,24.18Zm132.19,42.32a25.67,25.67,0,0,1-9.07,5,93,93,0,0,1-11.69,3c-4.17.8-8.53,1.48-13.09,2s-9.14,1.21-13.71,2a102.53,102.53,0,0,0-12.69,3.22,37.59,37.59,0,0,0-10.88,5.44,26,26,0,0,0-7.46,8.66q-2.82,5.25-2.82,13.3a26.92,26.92,0,0,0,2.82,12.9,21.64,21.64,0,0,0,7.66,8.26,32,32,0,0,0,11.28,4.23,71.68,71.68,0,0,0,13.3,1.21q16.93,0,26.2-5.64t13.7-13.5a43.21,43.21,0,0,0,5.44-15.92,109.74,109.74,0,0,0,1-12.89ZM859.61,405.24a104.76,104.76,0,0,1-28.35-3.7A65.68,65.68,0,0,1,808,389.9a54.66,54.66,0,0,1-15.69-20.07c-3.73-8-5.62-17.66-5.62-28.65,0-12.11,2.18-22.26,6.49-30.17a54.51,54.51,0,0,1,16.73-19,74.83,74.83,0,0,1,23.19-10.56,245.71,245.71,0,0,1,25.8-5.48c8.62-1.35,17.2-2.44,25.51-3.24a152.42,152.42,0,0,0,21.87-3.58c6.13-1.53,11-3.77,14.53-6.66,3.27-2.68,4.75-6.57,4.51-11.86,0-5.9-.93-10.52-2.77-13.83a20.29,20.29,0,0,0-7.34-7.72,29.94,29.94,0,0,0-11-3.77,95.09,95.09,0,0,0-14-1c-10.79,0-19.33,2.3-25.4,6.85s-9.48,12.13-10.49,22.77l-.17,1.81H793l.13-2.12c.82-13.73,4.32-25.32,10.4-34.44a71.09,71.09,0,0,1,23.22-22,100.9,100.9,0,0,1,31.45-11.72A178.38,178.38,0,0,1,893.06,182a236.24,236.24,0,0,1,32.11,2.24,100,100,0,0,1,30,8.84,60.34,60.34,0,0,1,22.5,18.55c5.88,8,8.85,18.61,8.85,31.61V351.66a216,216,0,0,0,1.6,26.75c1,8.27,2.83,14.5,5.35,18.53l1.92,3.06H932.33l-.46-1.36a82.91,82.91,0,0,1-2.69-10.12c-.41-2.08-.76-4.19-1-6.33a76.37,76.37,0,0,1-30.08,17.32A131.82,131.82,0,0,1,859.61,405.24ZM890.24,220.3a97.75,97.75,0,0,1,14.61,1,33.81,33.81,0,0,1,12.41,4.29,24.17,24.17,0,0,1,8.78,9.21c2.18,3.91,3.28,9.18,3.28,15.68.29,6.46-1.72,11.55-6,15-4,3.27-9.39,5.77-16.1,7.45a154.82,154.82,0,0,1-22.46,3.68c-8.23.79-16.73,1.87-25.27,3.21a242.8,242.8,0,0,0-25.38,5.39,70.83,70.83,0,0,0-21.95,10,50.54,50.54,0,0,0-15.5,17.65c-4,7.32-6,16.83-6,28.26,0,10.4,1.76,19.48,5.25,27a50.74,50.74,0,0,0,14.54,18.61,61.87,61.87,0,0,0,21.87,10.93,100.68,100.68,0,0,0,27.26,3.55,128.3,128.3,0,0,0,37.3-5.55,72.89,72.89,0,0,0,31.39-19.23l3.1-3.19.33,4.43a83.6,83.6,0,0,0,1.38,10,79.35,79.35,0,0,0,2.11,8.26h53.25c-2-4.32-3.42-10.05-4.3-17.09a220.29,220.29,0,0,1-1.63-27.25V243.25c0-12.13-2.71-22-8.07-29.24a56.33,56.33,0,0,0-21-17.32,96.1,96.1,0,0,0-28.82-8.48,233.12,233.12,0,0,0-31.57-2.2A174.23,174.23,0,0,0,859,189.4a96.68,96.68,0,0,0-30.21,11.25,67,67,0,0,0-21.92,20.74c-5.37,8.06-8.59,18.26-9.59,30.34h53.29c1.35-10.89,5.34-18.88,11.87-23.78C869.22,222.87,878.57,220.3,890.24,220.3ZM881,367.36a74.82,74.82,0,0,1-13.67-1.24,34.45,34.45,0,0,1-12-4.5,23.72,23.72,0,0,1-8.36-9,29,29,0,0,1-3.06-13.85c0-5.68,1-10.47,3.06-14.24a27.88,27.88,0,0,1,8-9.33,39.63,39.63,0,0,1,11.45-5.73,105,105,0,0,1,12.95-3.29c4.54-.8,9.19-1.49,13.83-2,4.47-.52,8.82-1.19,12.95-2a91.26,91.26,0,0,0,11.44-2.95,23.73,23.73,0,0,0,8.37-4.64l3.33-3v25.82a111.1,111.1,0,0,1-1,13.14,45.29,45.29,0,0,1-5.68,16.65c-3.12,5.53-8,10.31-14.4,14.23S892.58,367.36,881,367.36ZM925.32,300a30,30,0,0,1-6.44,3,95.31,95.31,0,0,1-11.94,3.09c-4.22.82-8.68,1.5-13.24,2s-9.14,1.21-13.59,2a101,101,0,0,0-12.43,3.15,35.87,35.87,0,0,0-10.3,5.15,24,24,0,0,0-6.89,8c-1.71,3.18-2.58,7.34-2.58,12.35a25.07,25.07,0,0,0,2.58,11.95,19.69,19.69,0,0,0,7,7.51,30.45,30.45,0,0,0,10.59,4A70.35,70.35,0,0,0,881,363.36c10.86,0,19.33-1.8,25.16-5.35a36,36,0,0,0,13-12.77,41.56,41.56,0,0,0,5.2-15.19,110.62,110.62,0,0,0,1-12.64Zm142.07-189.75V398h-57.23V110.26Zm2,289.74h-61.23V108.26h61.23Zm-57.23-4h53.23V112.26h-53.23Z"/>
        <path d="M1553.91,0H1140.25a50,50,0,0,0-50,50V463.66a50,50,0,0,0,50,50h413.66a50,50,0,0,0,50-50V50A50,50,0,0,0,1553.91,0ZM1337.86,400h-211.6v-3c0-16.57,2.43-31.2,7.21-43.49a116.14,116.14,0,0,1,19.5-33,169.7,169.7,0,0,1,28.71-26.68c10.75-8,22.29-16.19,34.28-24.46,6.21-4.32,12.84-8.71,19.7-13.06A128.26,128.26,0,0,0,1254.22,242a75.18,75.18,0,0,0,13.85-17.31,41.88,41.88,0,0,0,5.39-21.3c0-12.69-3.66-22.66-10.88-29.64s-16.55-10.56-28.12-10.56c-7.61,0-14.11,1.78-19.32,5.29a40.48,40.48,0,0,0-12.85,14.16,67,67,0,0,0-7.08,19.92,116.77,116.77,0,0,0-2.15,22v3h-60.3l-.09-2.9a137.73,137.73,0,0,1,5.73-45.59h0a107.11,107.11,0,0,1,19.76-37,90.44,90.44,0,0,1,33.29-24.82c13.26-5.88,28.67-8.86,45.81-8.86a115.23,115.23,0,0,1,37.58,6.16,97.86,97.86,0,0,1,31.56,17.75,85.09,85.09,0,0,1,21.77,28.6c5.37,11.3,8.09,24.11,8.09,38.09,0,14.49-2.37,27.15-7.06,37.63a99.14,99.14,0,0,1-18.56,27.84,157.13,157.13,0,0,1-25.9,21.82c-9.65,6.52-19.28,12.92-28.64,19s-18.86,13-27.77,20a123.29,123.29,0,0,0-19.83,19.85h129.36Zm221.39-56.76A106,106,0,0,1,1536,376.39,103.72,103.72,0,0,1,1502,398a106.07,106.07,0,0,1-39,7.23l-2.16,0a142.8,142.8,0,0,1-39.78-5.52,101,101,0,0,1-34-17.11,86.58,86.58,0,0,1-23.82-28.79c-5.92-11.42-9.06-24.86-9.33-39.93l-.06-3.05h62.56l.28,2.69c1.25,12,5.77,21.65,13.45,28.7s17.6,10.61,29.57,10.61a41,41,0,0,0,18.83-4.27,45.27,45.27,0,0,0,14.27-11.26,51.16,51.16,0,0,0,9.06-16.25,58.5,58.5,0,0,0,3.24-19.22,61.52,61.52,0,0,0-3-19.45,45,45,0,0,0-9-15.76,42.48,42.48,0,0,0-14.2-10.46,46.24,46.24,0,0,0-19.15-3.73c-9.57,0-17.42,1.69-23.33,5s-11.72,8.8-17,16.14l-.9,1.24h-56.32L1390.8,114h161.92v52.8H1436.63l-9.54,54.23a70,70,0,0,1,20.36-12.23,87.63,87.63,0,0,1,31.07-5.2c14.24,0,27,2.66,38.08,7.89a84.33,84.33,0,0,1,28,21.15A92.3,92.3,0,0,1,1562,263.87a120,120,0,0,1,6,37.95A100,100,0,0,1,1559.25,343.26Z"/>
    </symbol>

    <symbol id="svg-tickets" viewBox="0 0 1842.57 513.83" preserveAspectRatio="xMinYMin meet">
        <path fill="currentColor" d="M0,108.51H240v58.8H154.4v232.8H85.6V167.31H0Zm260,58.82h62.8V108.51H260Zm0,232.78h62.8V187.31H260Zm228-82.63c-1.77,12.1-6.14,21.84-13,28.95-6.71,6.95-16.55,10.48-29.24,10.48-8.17,0-15.15-1.85-20.76-5.51A42.06,42.06,0,0,1,411.4,337a68,68,0,0,1-7.46-20.12,109.86,109.86,0,0,1-2.34-22.19,114.83,114.83,0,0,1,2.34-22.8,66.71,66.71,0,0,1,7.84-20.67,46.59,46.59,0,0,1,14.1-15c5.6-3.78,12.71-5.69,21.12-5.69,22.76,0,35.53,10.82,39,33.07l.4,2.53h61.35l-.19-3.18c-.83-13.73-4.19-25.82-10-35.91A81.48,81.48,0,0,0,515,201.69a98,98,0,0,0-31.35-15.07,133.39,133.39,0,0,0-36.22-4.91c-17.13,0-32.6,2.91-46,8.64a97.61,97.61,0,0,0-34.24,24.15A103.55,103.55,0,0,0,346,251.15a141.31,141.31,0,0,0-7.16,45.56,119.23,119.23,0,0,0,7.81,43.69,102.48,102.48,0,0,0,21.84,34.4,97.71,97.71,0,0,0,34,22.49,116.68,116.68,0,0,0,43.72,8c28.05,0,51.43-7.49,69.5-22.28s29.25-36.6,33.07-64.71l.47-3.41H488.41ZM771.22,187.31H695.36l-67.32,70V108.51h-62.8v291.6H628V327.19l18.39-17.73,55.73,90.65h76.07L689.71,266.72Zm189.56,73.46a149.84,149.84,0,0,1,4.09,46.94l-.19,2.8H815.85c1.13,15.93,5.47,27.64,12.91,34.85,7.91,7.66,19.59,11.55,34.71,11.55,10.8,0,20.18-2.71,27.89-8.06s12.37-10.89,14-16.58l.63-2.16h56.37L961.13,334c-8.18,25.37-21,43.8-38,54.8s-37.68,16.48-61.63,16.48c-16.57,0-31.75-2.69-45.11-8a94.82,94.82,0,0,1-34.27-22.93A103.4,103.4,0,0,1,760.46,339a129.43,129.43,0,0,1-7.59-45,124.18,124.18,0,0,1,7.8-44.26,103,103,0,0,1,56.61-59.29c13.25-5.74,28.12-8.65,44.19-8.65,18,0,33.95,3.55,47.39,10.54a95.16,95.16,0,0,1,33.23,28.29h0A116.12,116.12,0,0,1,960.78,260.77ZM825.22,245.38a38.9,38.9,0,0,0-7.06,13.36,69.4,69.4,0,0,0-2.16,9.77h85.41c-2.65-12.05-6.93-21.38-12.75-27.78-6.18-6.78-15.87-10.22-28.79-10.22-8.53,0-15.68,1.44-21.23,4.27A40.29,40.29,0,0,0,825.22,245.38Zm237.3-120.07h-62.8v62h-34.4v44h34.4v119c0,10.86,1.87,19.82,5.56,26.63a40.08,40.08,0,0,0,15.34,16,62.06,62.06,0,0,0,21.84,7.37,170.57,170.57,0,0,0,25.46,1.83c5.52,0,11.35-.13,17.33-.4a141.25,141.25,0,0,0,16.36-1.64l2.51-.42v-50.2l-3.59.72a76.09,76.09,0,0,1-8.09,1.15c-2.81.26-5.81.39-8.92.39-10.88,0-15.29-2.13-17.08-3.92s-3.92-6.21-3.92-17.08v-99.4h41.6v-44h-41.6ZM1306.92,305a54.62,54.62,0,0,0-15.65-17.35,83.16,83.16,0,0,0-21.79-11,245.87,245.87,0,0,0-24.48-6.88c-8.14-1.89-16.1-3.65-23.68-5.22a179.84,179.84,0,0,1-20.25-5.3,40.45,40.45,0,0,1-13.6-7.24,12.59,12.59,0,0,1-4.55-10.12c0-3.57.81-6.27,2.49-8.27a18,18,0,0,1,6.7-5,32,32,0,0,1,9.33-2.37,97.29,97.29,0,0,1,10.08-.58c9.59,0,18,1.84,25,5.46,6.53,3.39,10.06,9.85,10.78,19.76l.21,2.78h60l-.27-3.25c-1.11-13.23-4.57-24.4-10.28-33.19a68.06,68.06,0,0,0-21.55-21.12A89.83,89.83,0,0,0,1246.31,185a168,168,0,0,0-33.19-3.26,181.89,181.89,0,0,0-33.36,3A94,94,0,0,0,1150,195.51a60.78,60.78,0,0,0-21.66,21.24c-5.47,9-8.24,20.54-8.24,34.36,0,9.59,2,17.84,6,24.54a51.79,51.79,0,0,0,15.7,16.55,85.89,85.89,0,0,0,21.76,10.37c7.9,2.55,16.13,4.79,24.5,6.68,20,4.21,35.81,8.48,47,12.67,10.13,3.82,15.06,9.18,15.06,16.39a18.18,18.18,0,0,1-3,10.85,24.41,24.41,0,0,1-8,7.13,40.12,40.12,0,0,1-11.17,4.09,58,58,0,0,1-12,1.33,61.89,61.89,0,0,1-15.46-1.91,38.93,38.93,0,0,1-12.82-5.75,30.28,30.28,0,0,1-8.92-9.84h0a28.26,28.26,0,0,1-3.4-14.3v-3H1115.2l.12,3.12c.55,14.33,3.86,26.47,9.85,36.07a71.8,71.8,0,0,0,22.95,23.15,96.21,96.21,0,0,0,31.58,12.4,175.18,175.18,0,0,0,35.82,3.66,179.83,179.83,0,0,0,35.19-3.46,91,91,0,0,0,31.22-12.21,68.92,68.92,0,0,0,22.37-23.2c5.72-9.63,8.62-21.65,8.62-35.73C1312.92,320.64,1310.9,312,1306.92,305Z"/>
        <path d="M1792.57.17H1378.91a50,50,0,0,0-50,50V463.83a50,50,0,0,0,50,50h413.66a50,50,0,0,0,50-50V50.17A50,50,0,0,0,1792.57.17Zm-216,400h-211.6v-3c0-16.57,2.42-31.2,7.2-43.49a116.65,116.65,0,0,1,19.5-33.05A170.82,170.82,0,0,1,1420.33,294c10.76-8,22.29-16.2,34.28-24.46,6.21-4.32,12.84-8.71,19.7-13.06a128.48,128.48,0,0,0,18.56-14.27,75.12,75.12,0,0,0,13.85-17.3,41.91,41.91,0,0,0,5.4-21.3c0-12.69-3.67-22.66-10.89-29.64s-16.55-10.56-28.11-10.56c-7.62,0-14.12,1.78-19.33,5.29a40.58,40.58,0,0,0-12.85,14.16,67.53,67.53,0,0,0-7.08,19.92,116.75,116.75,0,0,0-2.14,22v3h-60.31l-.09-2.9a137.73,137.73,0,0,1,5.73-45.59h0a107.28,107.28,0,0,1,19.76-37,90.44,90.44,0,0,1,33.29-24.82c13.26-5.88,28.68-8.86,45.82-8.86a115,115,0,0,1,37.57,6.16,98,98,0,0,1,31.57,17.75,85,85,0,0,1,21.76,28.6c5.37,11.3,8.1,24.11,8.1,38.09,0,14.49-2.38,27.15-7.07,37.63a99.14,99.14,0,0,1-18.56,27.84,157,157,0,0,1-25.89,21.82c-9.66,6.52-19.29,12.92-28.65,19-9.51,6.22-18.85,13-27.77,20a123.7,123.7,0,0,0-19.83,19.85h129.37Zm221.38-56.77a105.83,105.83,0,0,1-23.26,33.14,103.67,103.67,0,0,1-34,21.62,106,106,0,0,1-39,7.23l-2.17,0a142.8,142.8,0,0,1-39.78-5.52,100.83,100.83,0,0,1-34-17.11A86.46,86.46,0,0,1,1601.91,354c-5.93-11.42-9.07-24.86-9.34-39.93l-.06-3.05h62.56l.28,2.69c1.25,12,5.77,21.65,13.45,28.7S1686.4,353,1698.37,353a41,41,0,0,0,18.83-4.27,45.27,45.27,0,0,0,14.27-11.26,51.48,51.48,0,0,0,9.07-16.25,58.75,58.75,0,0,0,3.23-19.22,61.47,61.47,0,0,0-3-19.45,45,45,0,0,0-9-15.76,42.54,42.54,0,0,0-14.2-10.46,46.28,46.28,0,0,0-19.16-3.73c-9.57,0-17.41,1.69-23.33,5s-11.72,8.81-17,16.15l-.9,1.24h-56.31l28.67-160.8h161.91V167H1675.29l-9.55,54.22A70.22,70.22,0,0,1,1686.1,209a87.63,87.63,0,0,1,31.07-5.2c14.24,0,27,2.65,38.09,7.89a84.29,84.29,0,0,1,28,21.15A92.49,92.49,0,0,1,1800.62,264a119.93,119.93,0,0,1,6,37.95A99.92,99.92,0,0,1,1797.9,343.42Z"/>
    </symbol>

    <symbol id="svg-checkin" viewBox="0 0 1997 513.66" preserveAspectRatio="xMinYMin meet">
        <path fill="currentColor" d="M202,183.89a64.84,64.84,0,0,0-14.31-16.15,66,66,0,0,0-19.43-10.84,66.82,66.82,0,0,0-22.7-3.89q-21.69,0-36.81,8.39a69.53,69.53,0,0,0-24.54,22.49A98.34,98.34,0,0,0,70.51,216a159.48,159.48,0,0,0-4.3,37.22A148.34,148.34,0,0,0,70.51,289a96.3,96.3,0,0,0,13.7,31.28,70,70,0,0,0,24.54,22.29q15.12,8.4,36.81,8.39,29.44,0,46-18t20.25-47.44H274q-2.44,27.41-12.67,49.49a118.63,118.63,0,0,1-27,37.63,114.76,114.76,0,0,1-39.26,23.72q-22.5,8.17-49.49,8.18-33.54,0-60.33-11.66A129.26,129.26,0,0,1,40,360.79a142.18,142.18,0,0,1-28.22-48.06A176.24,176.24,0,0,1,2,253.22q0-32.72,9.82-60.74A145.82,145.82,0,0,1,40,143.61a129,129,0,0,1,45.19-32.72Q112,99,145.56,99a147.28,147.28,0,0,1,45.6,7,123.8,123.8,0,0,1,38.45,20.24,109.54,109.54,0,0,1,28,32.93q11.06,19.64,13.91,45H209.36A52.44,52.44,0,0,0,202,183.89ZM145.56,406.55c-22.53,0-43.1-4-61.13-11.82a131.86,131.86,0,0,1-45.88-32.61A144.72,144.72,0,0,1,9.93,313.4,179.16,179.16,0,0,1,0,253.22c0-21.94,3.34-42.6,9.93-61.4a148.58,148.58,0,0,1,28.61-49.54,131.69,131.69,0,0,1,45.88-33.22c18-8,38.6-12,61.14-12a149.83,149.83,0,0,1,46.22,7,126,126,0,0,1,39.06,20.57,111.86,111.86,0,0,1,28.53,33.52c7.46,13.26,12.22,28.65,14.15,45.74l.25,2.23H207.64l-.26-1.71A50.61,50.61,0,0,0,200.3,185h0a63.16,63.16,0,0,0-13.87-15.66A65.08,65.08,0,0,0,145.56,155c-14,0-26.1,2.74-35.84,8.14A67.88,67.88,0,0,0,85.87,185a97.23,97.23,0,0,0-13.42,31.46,158.83,158.83,0,0,0-4.24,36.76,147.44,147.44,0,0,0,4.24,35.31,94.93,94.93,0,0,0,13.42,30.64,68.4,68.4,0,0,0,23.85,21.66c9.73,5.4,21.79,8.14,35.84,8.14,19,0,33.95-5.84,44.54-17.35s17.34-27.22,19.73-46.34l.22-1.75h66.12l-.19,2.18c-1.65,18.4-6,35.27-12.86,50.15a120.91,120.91,0,0,1-27.45,38.25,117.15,117.15,0,0,1-39.94,24.14C180.58,403.76,163.7,406.55,145.56,406.55Zm0-305.52c-22,0-42,3.93-59.52,11.69a127.53,127.53,0,0,0-44.5,32.21A144.72,144.72,0,0,0,13.7,193.14C7.26,211.52,4,231.73,4,253.22a175.11,175.11,0,0,0,9.7,58.84,140.88,140.88,0,0,0,27.82,47.39A127.89,127.89,0,0,0,86,391.06c17.52,7.62,37.55,11.49,59.53,11.49,17.67,0,34.09-2.71,48.8-8.06A113.31,113.31,0,0,0,233,371.18a117.16,117.16,0,0,0,26.54-37,146.06,146.06,0,0,0,12.29-46.65H213.57c-2.68,19.17-9.58,34.91-20.53,46.8C181.66,346.7,165.69,353,145.56,353c-14.74,0-27.45-2.91-37.78-8.64a72.37,72.37,0,0,1-25.23-22.92,99,99,0,0,1-14-31.92,151.31,151.31,0,0,1-4.36-36.27,162.83,162.83,0,0,1,4.35-37.68,101,101,0,0,1,14-32.76,71.85,71.85,0,0,1,25.24-23.13c10.34-5.73,23.05-8.64,37.78-8.64a69.13,69.13,0,0,1,43.38,15.17,67,67,0,0,1,14.76,16.66h0a54.48,54.48,0,0,1,7.36,19.3h58.21c-2-15.67-6.52-29.8-13.39-42a107.94,107.94,0,0,0-27.5-32.33,122.31,122.31,0,0,0-37.83-19.92A145.88,145.88,0,0,0,145.56,101Zm203.52,5V216h1.22q11.06-18.41,28.22-26.79t33.54-8.38q23.31,0,38.24,6.33t23.52,17.59q8.6,11.25,12.07,27.41a170.87,170.87,0,0,1,3.47,35.78V398H431.29V278.58q0-26.17-8.19-39.06t-29-12.89q-23.73,0-34.36,14.11t-10.63,46.43V398H291V106ZM491.36,400H429.29V278.58c0-17-2.65-29.76-7.87-38-5.12-8.05-14.06-12-27.35-12-15.09,0-26.11,4.48-32.76,13.32-6.79,9-10.23,24.21-10.23,45.22V400H289V104h62.08V211.06c7.15-10.58,16.07-18.52,26.57-23.65,11.68-5.7,23.26-8.58,34.41-8.58,15.73,0,28.86,2.18,39,6.49s18.42,10.48,24.33,18.22,10.06,17.19,12.43,28.19a173.42,173.42,0,0,1,3.52,36.21Zm-58.07-4h54.07V267.94a169.28,169.28,0,0,0-3.43-35.36c-2.25-10.43-6.18-19.39-11.7-26.62s-13.12-12.88-22.71-17-22.27-6.18-37.46-6.18c-10.54,0-21.53,2.75-32.66,8.18S359.14,205.16,352,217l-.58,1h-4.36V108H293V396h54.08V287.17c0-21.89,3.71-37.92,11-47.63,7.45-9.89,19.55-14.91,36-14.91,14.56,0,24.9,4.65,30.72,13.82,5.64,8.87,8.5,22.38,8.5,40.13Zm144.87-48.71Q591.24,360,615.79,360q17.58,0,30.26-8.8t15.54-18.61h51.13q-12.27,38-37.63,54.4t-61.35,16.36q-24.94,0-45-8a93.67,93.67,0,0,1-34-22.7,102.11,102.11,0,0,1-21.47-35.18q-7.58-20.45-7.56-45a123.16,123.16,0,0,1,7.77-44.17,102.21,102.21,0,0,1,56.23-58.9q19.85-8.58,44-8.58,27,0,47,10.42a94.09,94.09,0,0,1,32.92,28,115.25,115.25,0,0,1,18.61,40.08,149.56,149.56,0,0,1,4.09,47H563.84Q565.07,334.61,578.16,347.29ZM643.8,236q-10.42-11.44-31.69-11.45-13.92,0-23.11,4.7A44.09,44.09,0,0,0,574.27,241a42.84,42.84,0,0,0-7.77,14.72,66.62,66.62,0,0,0-2.66,13.91h94.48Q654.23,247.49,643.8,236ZM613.74,405.32c-16.81,0-32.2-2.73-45.73-8.11A96,96,0,0,1,533.35,374a104.49,104.49,0,0,1-21.89-35.85c-5.11-13.78-7.69-29.15-7.69-45.69a125.75,125.75,0,0,1,7.9-44.88,104.23,104.23,0,0,1,57.31-60c13.41-5.81,28.47-8.75,44.76-8.75,18.24,0,34.37,3.58,48,10.65a96.24,96.24,0,0,1,33.61,28.61,117.7,117.7,0,0,1,18.94,40.77,152.28,152.28,0,0,1,4.15,47.66l-.13,1.87H566c1,17.14,5.62,29.74,13.6,37.46h0c8.29,8,20.49,12.12,36.24,12.12,11.25,0,21.05-2.84,29.12-8.44s13-11.46,14.76-17.53l.42-1.44h55.38l-.85,2.62c-8.29,25.69-21.22,44.35-38.44,55.46S638,405.32,613.74,405.32Zm0-222.49c-15.74,0-30.26,2.83-43.17,8.42A100.26,100.26,0,0,0,515.41,249a121.88,121.88,0,0,0-7.64,43.46c0,16.06,2.5,31,7.44,44.3a100.42,100.42,0,0,0,21,34.49,91.94,91.94,0,0,0,33.23,22.22c13.06,5.2,28,7.83,44.25,7.83,23.49,0,43.77-5.39,60.27-16C689.85,375.06,701.93,358,710,334.56H663c-2.33,6.44-7.66,12.58-15.85,18.26-8.75,6.07-19.31,9.15-31.4,9.15-16.83,0-30-4.46-39-13.24h0c-9.07-8.78-14.09-23-14.92-42.25l-.1-2.09H714.52a147.75,147.75,0,0,0-4.15-44.54,113.76,113.76,0,0,0-18.28-39.4A92.42,92.42,0,0,0,659.85,193C646.84,186.26,631.33,182.83,613.74,182.83Zm47,88.75h-99l.14-2.13a68,68,0,0,1,2.73-14.33,44.73,44.73,0,0,1,8.13-15.41,46.23,46.23,0,0,1,15.37-12.2c6.41-3.26,14.49-4.92,24-4.92,14.69,0,25.85,4.07,33.17,12.1h0c7.18,7.88,12.22,19.5,15,34.52Zm-94.7-4h89.86c-2.72-13.13-7.27-23.28-13.57-30.19-6.53-7.17-16.69-10.8-30.21-10.8-8.9,0-16.37,1.51-22.2,4.48a42.31,42.31,0,0,0-14.07,11.12,41,41,0,0,0-7.42,14A69.94,69.94,0,0,0,566,267.58Zm275-43q-13.9,0-23.31,6.34a50.3,50.3,0,0,0-15.34,16.36A70.6,70.6,0,0,0,794,269.37a119.65,119.65,0,0,0-2.46,23.93A114.48,114.48,0,0,0,794,316.61a71.92,71.92,0,0,0,8,21.48,45.79,45.79,0,0,0,14.93,15.74q9.4,6.14,22.91,6.14,20.85,0,32.1-11.66T886,317h56q-5.74,42.14-32.72,64.22T840.2,403.32a115.84,115.84,0,0,1-43.56-8,96.64,96.64,0,0,1-33.75-22.29,101.39,101.39,0,0,1-21.67-34.16,118.4,118.4,0,0,1-7.77-43.55,141,141,0,0,1,7.15-45.61,102.51,102.51,0,0,1,21.07-36.4,96.41,96.41,0,0,1,33.94-23.93q20-8.58,45.81-8.58a132.69,132.69,0,0,1,36.2,4.9,96.81,96.81,0,0,1,31.08,14.93,80,80,0,0,1,22.29,25q8.6,14.94,9.82,35.38H884Q878.23,224.58,841,224.59Zm-.81,180.73a118.23,118.23,0,0,1-44.31-8.12,98.78,98.78,0,0,1-34.43-22.75,103.85,103.85,0,0,1-22.11-34.82,121.06,121.06,0,0,1-7.9-44.28,143.48,143.48,0,0,1,7.26-46.25A104.79,104.79,0,0,1,760.19,212a98.65,98.65,0,0,1,34.64-24.42c13.54-5.81,29.22-8.75,46.59-8.75a135,135,0,0,1,36.74,5,99.11,99.11,0,0,1,31.72,15.24,82.28,82.28,0,0,1,22.85,25.56C938.58,234.8,942,247,942.8,260.87l.13,2.12H882.25L882,261.3c-3.68-23.36-17.08-34.71-41-34.71-8.82,0-16.29,2-22.19,6a48.57,48.57,0,0,0-14.74,15.72,68.8,68.8,0,0,0-8.14,21.46,118.53,118.53,0,0,0-2.42,23.53,113.4,113.4,0,0,0,2.42,22.91,70.24,70.24,0,0,0,7.75,20.88A44.08,44.08,0,0,0,818,352.16c5.91,3.85,13.25,5.81,21.82,5.81,13.27,0,23.59-3.72,30.66-11.05s11.73-17.58,13.58-30.19l.24-1.71h60.06l-.31,2.27c-3.88,28.48-15.13,50.51-33.44,65.49S868.62,405.32,840.2,405.32Zm1.22-222.49c-16.83,0-32,2.83-45,8.42a94.85,94.85,0,0,0-33.25,23.43,100.91,100.91,0,0,0-20.65,35.7,139.54,139.54,0,0,0-7,45,116.8,116.8,0,0,0,7.63,42.82,99.69,99.69,0,0,0,21.25,33.49,94.84,94.84,0,0,0,33,21.83,114.24,114.24,0,0,0,42.82,7.83c27.47,0,50.3-7.28,67.85-21.63,17-13.93,27.67-34.33,31.68-60.67h-52c-2.12,12.67-7,23-14.38,30.68-7.86,8.14-19.14,12.27-33.54,12.27-9.36,0-17.43-2.18-24-6.46a47.89,47.89,0,0,1-15.57-16.43A74.34,74.34,0,0,1,792,317a117.08,117.08,0,0,1-2.5-23.72A121.93,121.93,0,0,1,792,269a72.85,72.85,0,0,1,8.62-22.71,52.64,52.64,0,0,1,15.94-17c6.58-4.43,14.8-6.68,24.43-6.68,25.25,0,40.26,12.24,44.64,36.4h53c-1-12.37-4.15-23.26-9.4-32.38a78.32,78.32,0,0,0-21.74-24.33,95.21,95.21,0,0,0-30.44-14.62A131.18,131.18,0,0,0,841.42,182.83Zm176-76.85V262.63l73.22-76.08h68.71l-79.76,77.71L1168.31,398H1098l-58.08-94.47-22.5,21.67V398H959.31V106ZM1172,400h-75.19l-.59-.95-56.77-92.36-20.1,19.36V400H957.31V104h62.07V257.66l70.37-73.11h74.48l-82.09,80Zm-73-4h65.5L1077,264l77.42-75.44h-62.94l-76.07,79V108H961.31V396h54.07V324.35l24.9-24Zm87.55-242.17V106h58.07v47.85Zm58.07,32.72V398h-58.07V186.55Zm2,213.45h-62.07V184.55h62.07Zm-58.07-4h54.07V188.55h-54.07Zm58.07-240.17h-62.07V104h62.07Zm-58.07-4h54.07V108h-54.07Zm127.58,34.72V216h1.22q11-18.41,28.63-26.79a82.76,82.76,0,0,1,36-8.38q23.33,0,38.25,6.33t23.51,17.59q8.6,11.25,12.07,27.41a170.84,170.84,0,0,1,3.48,35.78V398h-58.08V278.58q0-26.17-8.18-39.06t-29-12.89q-23.73,0-34.36,14.11t-10.63,46.43V398H1261V186.55ZM1461.36,400h-62.08V278.58c0-17-2.65-29.76-7.87-38-5.11-8.05-14.06-12-27.35-12-15.08,0-26.1,4.48-32.76,13.32-6.79,9-10.23,24.21-10.23,45.22V400H1259V184.55h59.22v26.52a67.7,67.7,0,0,1,27-23.67,85.24,85.24,0,0,1,36.85-8.57c15.73,0,28.86,2.18,39,6.49s18.42,10.48,24.32,18.22,10.06,17.19,12.43,28.19a173.39,173.39,0,0,1,3.53,36.21Zm-58.08-4h54.08V267.94a169.25,169.25,0,0,0-3.44-35.36c-2.24-10.43-6.18-19.39-11.7-26.62s-13.12-12.88-22.71-17-22.26-6.18-37.46-6.18a81.18,81.18,0,0,0-35.13,8.19c-11.31,5.39-20.65,14.14-27.77,26l-.59,1h-4.35V188.55H1263V396h54.08V287.17c0-21.89,3.71-37.92,11-47.63,7.45-9.89,19.54-14.91,36-14.91,14.56,0,24.9,4.65,30.73,13.82,5.63,8.87,8.49,22.38,8.49,40.13Z"/>
        <path d="M1946,0H1532.37a50,50,0,0,0-50,50V463.66a50,50,0,0,0,50,50H1946a50,50,0,0,0,50-50V50A50,50,0,0,0,1946,0ZM1730,400h-211.6v-3c0-16.57,2.42-31.2,7.2-43.49a116.4,116.4,0,0,1,19.51-33,170,170,0,0,1,28.7-26.68c10.76-8,22.29-16.19,34.29-24.46,6.21-4.32,12.84-8.71,19.69-13.06A127.71,127.71,0,0,0,1646.33,242a75.18,75.18,0,0,0,13.85-17.31,41.89,41.89,0,0,0,5.4-21.3c0-12.69-3.66-22.66-10.89-29.64s-16.55-10.56-28.11-10.56c-7.62,0-14.12,1.78-19.33,5.29a40.58,40.58,0,0,0-12.85,14.16,67.53,67.53,0,0,0-7.08,19.92,116.75,116.75,0,0,0-2.14,22v3h-60.3l-.1-2.9a137.73,137.73,0,0,1,5.73-45.59h0a107.28,107.28,0,0,1,19.76-37,90.44,90.44,0,0,1,33.29-24.82c13.26-5.88,28.68-8.86,45.82-8.86a115.32,115.32,0,0,1,37.58,6.16,98,98,0,0,1,31.56,17.75,85.22,85.22,0,0,1,21.77,28.6c5.37,11.3,8.09,24.11,8.09,38.09,0,14.49-2.38,27.15-7.06,37.63a99.17,99.17,0,0,1-18.57,27.84,157,157,0,0,1-25.89,21.82c-9.65,6.52-19.29,12.92-28.64,19-9.52,6.22-18.86,13-27.78,20a123.64,123.64,0,0,0-19.82,19.85H1730Zm221.38-56.76a105.92,105.92,0,0,1-23.25,33.13,103.66,103.66,0,0,1-34,21.62,106,106,0,0,1-39,7.23l-2.16,0a142.87,142.87,0,0,1-39.79-5.52,100.83,100.83,0,0,1-34-17.11,86.46,86.46,0,0,1-23.82-28.79c-5.93-11.42-9.07-24.86-9.34-39.93l0-3.05h62.55l.28,2.69c1.25,12,5.78,21.65,13.45,28.7s17.6,10.61,29.57,10.61a41,41,0,0,0,18.83-4.27,45.27,45.27,0,0,0,14.27-11.26A51.37,51.37,0,0,0,1894,321a58.75,58.75,0,0,0,3.23-19.22,61.23,61.23,0,0,0-3-19.45,45,45,0,0,0-9-15.76,42.58,42.58,0,0,0-14.2-10.46,46.28,46.28,0,0,0-19.16-3.73c-9.56,0-17.41,1.69-23.33,5s-11.72,8.8-17,16.14l-.9,1.24h-56.31L1782.92,114h161.91v52.8H1828.75l-9.55,54.23a70,70,0,0,1,20.37-12.23,87.54,87.54,0,0,1,31.06-5.2c14.24,0,27,2.66,38.09,7.89a84.29,84.29,0,0,1,28,21.15,92.49,92.49,0,0,1,17.38,31.21,120,120,0,0,1,6,37.95A100,100,0,0,1,1951.36,343.26Z"/>
    </symbol>

    <symbol id="svg-subscription" viewBox="0 0 2803.75 513.66" preserveAspectRatio="xMinYMin meet">
        <path fill="currentColor" d="M235.72,271.08c7.1,10.73,10.7,24.54,10.7,41.06a90.72,90.72,0,0,1-7.87,37.64,82.47,82.47,0,0,1-23.44,30.09c-10.25,8.34-23.11,14.92-38.22,19.54s-32.61,6.93-52.27,6.93a184.09,184.09,0,0,1-46.56-5.9,118.55,118.55,0,0,1-40.21-18.67A93.2,93.2,0,0,1,10,349.13c-6.87-13.19-10.21-29-9.93-47l0-3H66.82v3c0,9.08,1.63,16.82,4.86,23h0a42.56,42.56,0,0,0,12.89,15.15,57,57,0,0,0,19.2,8.73,93.21,93.21,0,0,0,23.25,2.9,121.83,121.83,0,0,0,17.56-1.37,59.48,59.48,0,0,0,17.14-5.14,36.46,36.46,0,0,0,12.95-10.16c3.28-4.1,5-9.46,5-15.93,0-6.95-2.13-12.39-6.5-16.65a56,56,0,0,0-18.42-11.36,192.59,192.59,0,0,0-26.78-8.27c-10.2-2.41-20.61-5.12-30.92-8a276.37,276.37,0,0,1-31.45-9.88,110.48,110.48,0,0,1-28-15.43,73.83,73.83,0,0,1-20.22-24c-5.14-9.59-7.75-21.3-7.75-34.82,0-15.14,3.29-28.5,9.8-39.7A88.34,88.34,0,0,1,44.88,123.3a110.42,110.42,0,0,1,35.35-16.45,150.28,150.28,0,0,1,39.19-5.31,185.35,185.35,0,0,1,43.7,5.09,110.91,110.91,0,0,1,37.61,16.65,85.32,85.32,0,0,1,26.32,29.64c6.48,12,9.77,26.67,9.77,43.62v3H170.2l-.18-2.81c-.51-8-2.2-14.76-5-19.95a32.47,32.47,0,0,0-11.17-12.1,48.74,48.74,0,0,0-16.4-6.4,105.18,105.18,0,0,0-20.79-1.94A71.14,71.14,0,0,0,102,157.88a37.89,37.89,0,0,0-12.79,5.18,32,32,0,0,0-9.33,9.14c-2.32,3.48-3.49,8-3.49,13.54,0,5,.92,9.07,2.75,12s5.62,5.79,11.32,8.45c6.06,2.85,14.64,5.75,25.49,8.62s25.1,6.56,43.3,11.18c5.41,1.08,12.94,3,22.39,5.85a109.94,109.94,0,0,1,29,13.76A88.68,88.68,0,0,1,235.72,271.08Zm163.89,27.46c0,20.3-3.29,35-9.79,43.6s-16.6,12.6-31.21,12.6c-12.61,0-21.08-3.66-25.86-11.21-5-7.86-7.54-20.17-7.54-36.59V187.14H262.42v130.2A170.3,170.3,0,0,0,265.88,353c2.35,10.92,6.5,20.33,12.35,28s14.06,13.77,24.24,18,23,6.22,38.55,6.22a86,86,0,0,0,36.46-8.28,65.18,65.18,0,0,0,24.94-20.63v23.71h60V187.14H399.61ZM689,243.3c5.17,14,7.79,30.86,7.79,50s-2.62,36-7.79,50-12,25.75-20.41,34.8a81.83,81.83,0,0,1-60.41,27c-15.51,0-29.61-2.49-41.91-7.41a54.63,54.63,0,0,1-23.88-18.14v20.35h-60V108.34h62.79v99a63.91,63.91,0,0,1,24.85-18.15,99,99,0,0,1,38.15-7.63,81.93,81.93,0,0,1,60.41,27C677,217.55,683.85,229.26,689,243.3Zm-57.74,74.56A106.3,106.3,0,0,0,634,293.74a108.14,108.14,0,0,0-2.73-24.52A63.17,63.17,0,0,0,622.9,249a43.35,43.35,0,0,0-14-13.67c-5.5-3.29-12.31-5-20.26-5a39.15,39.15,0,0,0-20.08,5A42.64,42.64,0,0,0,554.33,249a63.1,63.1,0,0,0-8.39,20.24,107.75,107.75,0,0,0-2.73,24.52,105.91,105.91,0,0,0,2.73,24.12,62.73,62.73,0,0,0,8.39,20.24,42.46,42.46,0,0,0,14.2,13.65,39.15,39.15,0,0,0,20.08,5c7.95,0,14.76-1.67,20.26-5a43.16,43.16,0,0,0,14-13.67A63,63,0,0,0,631.29,317.86ZM884.94,287.5a83.24,83.24,0,0,0-21.78-11,245.87,245.87,0,0,0-24.48-6.88c-8.14-1.89-16.1-3.65-23.68-5.21a182.69,182.69,0,0,1-20.26-5.31,40.49,40.49,0,0,1-13.59-7.24,12.59,12.59,0,0,1-4.55-10.12c0-3.57.81-6.27,2.49-8.27a18.12,18.12,0,0,1,6.7-5,32.34,32.34,0,0,1,9.33-2.37,97.14,97.14,0,0,1,10.08-.58c9.59,0,18,1.84,25,5.47,6.53,3.38,10.06,9.85,10.78,19.75l.21,2.78h60l-.27-3.25c-1.11-13.23-4.57-24.4-10.28-33.18A68,68,0,0,0,869.16,196,89.92,89.92,0,0,0,840,184.8a168.06,168.06,0,0,0-33.19-3.26,181.89,181.89,0,0,0-33.36,3.05,93.79,93.79,0,0,0-29.75,10.76A60.75,60.75,0,0,0,722,216.58c-5.46,9-8.23,20.54-8.23,34.36,0,9.59,2,17.84,6,24.54A51.79,51.79,0,0,0,735.52,292a86,86,0,0,0,21.75,10.37c7.91,2.55,16.14,4.79,24.51,6.68,20,4.21,35.81,8.48,47,12.67,10.13,3.82,15.06,9.18,15.06,16.39a18.23,18.23,0,0,1-3,10.85,24.41,24.41,0,0,1-8,7.13,40.12,40.12,0,0,1-11.17,4.09,58,58,0,0,1-12,1.33,62.36,62.36,0,0,1-15.46-1.9,39.34,39.34,0,0,1-12.82-5.75,30.26,30.26,0,0,1-8.92-9.84h0a28.36,28.36,0,0,1-3.39-14.3v-3H708.88l.12,3.12c.55,14.33,3.86,26.47,9.85,36.07a71.8,71.8,0,0,0,22.95,23.15,96.13,96.13,0,0,0,31.58,12.4,175.18,175.18,0,0,0,35.82,3.66,179.73,179.73,0,0,0,35.18-3.46,91,91,0,0,0,31.23-12.21A68.92,68.92,0,0,0,898,366.27c5.72-9.63,8.62-21.65,8.62-35.73,0-10.07-2-18.71-6-25.69A54.65,54.65,0,0,0,884.94,287.5Zm183,29.81c-1.77,12.11-6.14,21.85-13,28.95s-16.55,10.48-29.24,10.48c-8.17,0-15.15-1.85-20.76-5.51a42.06,42.06,0,0,1-13.64-14.38,68,68,0,0,1-7.46-20.12,109.86,109.86,0,0,1-2.34-22.19,114.9,114.9,0,0,1,2.34-22.8,66.46,66.46,0,0,1,7.84-20.67,46.59,46.59,0,0,1,14.1-15c5.6-3.77,12.7-5.69,21.12-5.69,22.76,0,35.53,10.82,39,33.07l.4,2.53h61.35l-.2-3.18c-.82-13.73-4.18-25.81-10-35.91a81.48,81.48,0,0,0-22.63-25.33,97.74,97.74,0,0,0-31.35-15.06,133.4,133.4,0,0,0-36.22-4.92c-17.13,0-32.6,2.91-46,8.64A97.61,97.61,0,0,0,947,214.33,103.55,103.55,0,0,0,925.82,251a141.4,141.4,0,0,0-7.16,45.56,119.32,119.32,0,0,0,7.81,43.7,102.53,102.53,0,0,0,21.84,34.39,97.78,97.78,0,0,0,34,22.5,116.68,116.68,0,0,0,43.72,8c28,0,51.43-7.49,69.5-22.28s29.25-36.6,33.07-64.71l.47-3.41h-60.83Zm201-135.77a71.15,71.15,0,0,0-21.72,3.35,79.41,79.41,0,0,0-19.53,9.35,74.81,74.81,0,0,0-22.55,23.39V187.14h-60v212.8h62.8v-96.2a111.51,111.51,0,0,1,2.72-25.32,54.08,54.08,0,0,1,8.9-19.9,42.87,42.87,0,0,1,16.28-13.27c6.76-3.26,15.21-4.91,25.1-4.91a100.77,100.77,0,0,1,10.48.58c3.6.39,6.74.85,9.33,1.37l3.59.71V184.3l-2.16-.64A47.86,47.86,0,0,0,1268.9,181.54Zm31.4-20.4h62.8v-52.8h-62.8Zm0,238.8h62.8V187.14h-62.8Zm293.49-147.2a161,161,0,0,1,5.71,43,146.06,146.06,0,0,1-5.72,40.84,105.18,105.18,0,0,1-17.51,35A87.43,87.43,0,0,1,1546.88,396c-11.73,6.06-25.58,9.13-41.18,9.13a83.88,83.88,0,0,1-36.7-8.09,69.57,69.57,0,0,1-23.1-17.87v93.16h-62.8V187.14h60v21A63.34,63.34,0,0,1,1466,189.43a84.44,84.44,0,0,1,36.49-7.89c16.67,0,31.27,3.21,43.39,9.54a90.33,90.33,0,0,1,30.19,25.24A106.66,106.66,0,0,1,1593.79,252.74ZM1534.35,318a121.14,121.14,0,0,0,2.35-23.81,111.89,111.89,0,0,0-2.54-23.76A62.36,62.36,0,0,0,1526,250a45.23,45.23,0,0,0-14.45-14.26c-5.76-3.56-13-5.36-21.42-5.36-8.73,0-16.07,1.8-21.83,5.36a43.79,43.79,0,0,0-14.23,14,59.48,59.48,0,0,0-7.8,20.19,123.32,123.32,0,0,0-2.34,24.21,112.21,112.21,0,0,0,2.53,23.77,60.24,60.24,0,0,0,8,20,42.19,42.19,0,0,0,14.39,13.63c5.9,3.45,13.19,5.19,21.69,5.19,8.74,0,16.1-1.74,21.86-5.17h0a42.69,42.69,0,0,0,14.21-13.65A57.33,57.33,0,0,0,1534.35,318Zm163.32-192.81h-62.79v62h-34.4v44h34.4v119c0,10.86,1.87,19.82,5.56,26.63a40.06,40.06,0,0,0,15.33,16,62.19,62.19,0,0,0,21.85,7.37,169.25,169.25,0,0,0,25.46,1.83c5.52,0,11.35-.13,17.33-.4a141.25,141.25,0,0,0,16.36-1.64l2.51-.42v-50.2l-3.6.72a78.11,78.11,0,0,1-8.08,1.16c-2.81.25-5.81.38-8.93.38-10.87,0-15.28-2.13-17.07-3.92s-3.93-6.2-3.93-17.08v-99.4h41.61v-44h-41.61Zm57.68,274.8h62.8V187.14h-62.8Zm0-238.8h62.8v-52.8h-62.8Zm291,86.55c5.17,13.75,7.79,29.25,7.79,46.05s-2.62,32.25-7.8,45.87a100.43,100.43,0,0,1-22.27,35.24,97.45,97.45,0,0,1-34.86,22.49c-13.49,5.18-28.72,7.8-45.27,7.8s-31.73-2.62-45.09-7.8a97.78,97.78,0,0,1-34.65-22.49,100.43,100.43,0,0,1-22.27-35.24c-5.17-13.61-7.79-29-7.79-45.87s2.62-32.32,7.79-46.05a97.55,97.55,0,0,1,56.9-58.13c13.36-5.32,28.53-8,45.11-8s31.81,2.7,45.3,8a97.26,97.26,0,0,1,57.11,58.14Zm-65.16,89.88a62,62,0,0,0,7.81-20.23,118.8,118.8,0,0,0,2.34-23.6,122,122,0,0,0-2.34-23.81,59.72,59.72,0,0,0-7.8-20.19,42.83,42.83,0,0,0-14.59-14c-6-3.57-13.67-5.38-22.67-5.38s-16.55,1.81-22.45,5.37a43.29,43.29,0,0,0-14.41,14,59.48,59.48,0,0,0-7.8,20.19,122,122,0,0,0-2.34,23.81,118.66,118.66,0,0,0,2.34,23.6h0a61.63,61.63,0,0,0,7.81,20.23,40.83,40.83,0,0,0,14.36,14c5.9,3.45,13.46,5.19,22.49,5.19s16.67-1.75,22.71-5.2A40.51,40.51,0,0,0,1981.2,337.57Zm285.48-103.46c-2.35-10.92-6.51-20.33-12.35-28s-14-13.81-24.21-18.14-23-6.44-38.57-6.44a84.47,84.47,0,0,0-36.5,8.49,66.52,66.52,0,0,0-24.91,20.82V187.14h-60v212.8H2133V288.54c0-20.31,3.29-35,9.79-43.59s16.6-12.61,31.21-12.61c12.61,0,21.07,3.67,25.86,11.21,5,7.88,7.54,20.19,7.54,36.59v119.8h62.79V269.74A170.78,170.78,0,0,0,2266.68,234.11Z"/>
        <path class="svg-logo-square" d="M2753.75,0H2340.09a50,50,0,0,0-50,50V463.66a50,50,0,0,0,50,50h413.66a50,50,0,0,0,50-50V50A50,50,0,0,0,2753.75,0ZM2537.7,400H2326.1v-3c0-16.57,2.43-31.2,7.21-43.49a116.14,116.14,0,0,1,19.5-33,170,170,0,0,1,28.7-26.68c10.76-8,22.29-16.19,34.29-24.46,6.21-4.32,12.84-8.71,19.69-13.06A127.81,127.81,0,0,0,2454.06,242a75.18,75.18,0,0,0,13.85-17.31,41.88,41.88,0,0,0,5.39-21.3c0-12.69-3.66-22.66-10.88-29.64s-16.55-10.56-28.12-10.56c-7.61,0-14.12,1.78-19.32,5.29a40.48,40.48,0,0,0-12.85,14.16,67,67,0,0,0-7.08,19.92,116,116,0,0,0-2.15,22v3h-60.3l-.1-2.9a138,138,0,0,1,5.74-45.59h0a107.09,107.09,0,0,1,19.75-37,90.48,90.48,0,0,1,33.3-24.82c13.26-5.88,28.67-8.86,45.81-8.86a115.23,115.23,0,0,1,37.58,6.16,97.86,97.86,0,0,1,31.56,17.75,85.09,85.09,0,0,1,21.77,28.6c5.37,11.3,8.09,24.11,8.09,38.09,0,14.49-2.37,27.15-7.06,37.63a99.35,99.35,0,0,1-18.56,27.84,157.13,157.13,0,0,1-25.9,21.82c-9.65,6.52-19.29,12.92-28.64,19-9.52,6.22-18.86,13-27.77,20a123.29,123.29,0,0,0-19.83,19.85H2537.7Zm221.39-56.76a106,106,0,0,1-23.26,33.13,103.66,103.66,0,0,1-34,21.62,106,106,0,0,1-39,7.23l-2.16,0a142.75,142.75,0,0,1-39.78-5.52,100.88,100.88,0,0,1-34-17.11,86.58,86.58,0,0,1-23.82-28.79c-5.92-11.42-9.07-24.86-9.33-39.93l-.06-3.05h62.56l.28,2.69c1.24,12,5.77,21.65,13.44,28.7s17.61,10.61,29.57,10.61a41,41,0,0,0,18.84-4.27,45.34,45.34,0,0,0,14.26-11.26,51.37,51.37,0,0,0,9.07-16.25,58.49,58.49,0,0,0,3.23-19.22,61.51,61.51,0,0,0-3-19.45,45.18,45.18,0,0,0-9-15.76,42.48,42.48,0,0,0-14.2-10.46,46.25,46.25,0,0,0-19.16-3.73c-9.56,0-17.41,1.69-23.33,5s-11.72,8.8-17,16.14l-.89,1.24H2562L2590.64,114h161.91v52.8H2636.47l-9.55,54.23a70.08,70.08,0,0,1,20.37-12.23,87.62,87.62,0,0,1,31.06-5.2c14.24,0,27.06,2.66,38.09,7.89a84.43,84.43,0,0,1,28,21.15,92.47,92.47,0,0,1,17.37,31.21,120,120,0,0,1,5.95,37.95A100,100,0,0,1,2759.09,343.26Z"/>
    </symbol>

    <symbol id="svg-gen" viewBox="0 0 1212 302" preserveAspectRatio="xMinYMin meet">
        <path d="M277.59,295H229.2l-4.46-31.46C205,291.36,171.12,301,144.55,301,57.45,301,1,234.48,1,151S57.45,1,144.55,1c59.63,0,123.32,31.83,130.23,104h-75c-2.43-24.59-26.63-39.52-56.85-39.52-48.39,0-67,42.75-67,85.48s18.58,85.49,67,85.49c37.09,0,62.08-17.35,66.11-43.58H156.62V137.29h121Zm83.29-87.91c1.23,28.58,17.76,47.59,46.79,47.59,16.53,0,32.63-7.7,39.06-23h64.12C498.38,280,453.6,301,406.84,301c-68.15,0-114.47-41.12-114.47-111.25,0-64.09,51.18-110,112.87-110,75,0,112.5,56.42,109.24,127.41Zm85.05-38.34c-1.2-23.38-17.7-42.71-40.69-42.71-24.22,0-40.32,17.3-44.36,42.71Zm82.57-83H595v28.66h.81c12.47-21.42,40.69-34.69,65.66-34.69,69.8,0,75.43,50.79,75.43,81V295H668.42V193.79c0-28.63,3.21-57.7-34.28-57.7-25.82,0-37.12,21.75-37.12,44.77V295H528.5ZM752.25,295a124.33,124.33,0,0,1,43.92-93.57c24.17-21,51.62-35.51,73.38-49.17,21.39-14.15,36.69-27.85,36.69-46.78,0-21.8-14.5-35.07-36.26-35.07-36.32,0-46.38,26.17-46.76,56.83H759.08c-4-69.75,40.35-116.93,110.47-116.93,55.65,0,105.24,29.05,105.24,89.08,0,54-38.72,74.22-79.84,99.58-21.37,13.36-32.66,20.2-50.77,37.92H977.57V295Zm298.32-87.16c.4,22.22,24.57,35.14,45.15,35.14,26.6,0,46.79-17.78,46.79-45.18s-16.13-46.37-44.41-46.37c-19.33,0-33.83,4.39-44.7,21.38H991.29l27.4-158.87h177.44V72H1071.5L1061,123.2h.83C1076,109.5,1095.32,103,1116.69,103c57.65,0,94.31,33.05,94.31,91.55,0,69.32-49.91,104-115.28,104-61.28,0-109.66-23.39-113.73-90.74Z"/>
    </symbol>
    <symbol id="svg-whatsapp" viewBox="0 0 512 512" preserveAspectRatio="xMinYMin meet">
		<path style="fill:#4CAF50;" d="M256.064,0h-0.128l0,0C114.784,0,0,114.816,0,256c0,56,18.048,107.904,48.736,150.048l-31.904,95.104
		l98.4-31.456C155.712,496.512,204,512,256.064,512C397.216,512,512,397.152,512,256S397.216,0,256.064,0z"/>
		<path style="fill:#FAFAFA;" d="M405.024,361.504c-6.176,17.44-30.688,31.904-50.24,36.128c-13.376,2.848-30.848,5.12-89.664-19.264
		C189.888,347.2,141.44,270.752,137.664,265.792c-3.616-4.96-30.4-40.48-30.4-77.216s18.656-54.624,26.176-62.304
		c6.176-6.304,16.384-9.184,26.176-9.184c3.168,0,6.016,0.16,8.576,0.288c7.52,0.32,11.296,0.768,16.256,12.64
		c6.176,14.88,21.216,51.616,23.008,55.392c1.824,3.776,3.648,8.896,1.088,13.856c-2.4,5.12-4.512,7.392-8.288,11.744
		c-3.776,4.352-7.36,7.68-11.136,12.352c-3.456,4.064-7.36,8.416-3.008,15.936c4.352,7.36,19.392,31.904,41.536,51.616
		c28.576,25.44,51.744,33.568,60.032,37.024c6.176,2.56,13.536,1.952,18.048-2.848c5.728-6.176,12.8-16.416,20-26.496
		c5.12-7.232,11.584-8.128,18.368-5.568c6.912,2.4,43.488,20.48,51.008,24.224c7.52,3.776,12.48,5.568,14.304,8.736
		C411.2,329.152,411.2,344.032,405.024,361.504z"/>
    </symbol>
    <symbol id="svg-telegram" viewBox="0 0 498 498" preserveAspectRatio="xMinYMin meet">
        <g id="Artboard" transform="translate(-42.000000, -47.000000)" fill-rule="nonzero">
            <g id="telegram-5" transform="translate(42.000000, 47.000000)">
                <circle id="Oval" fill="#41B4E6" cx="248.997082" cy="249" r="248.997082"></circle>
                <polygon id="Shape" fill="#FFFFFF" points="224.96634 285.511953 337.493914 370.470559 394.296066 128 104 242.188871 192.333723 271.447344 353.544688 163.311312"></polygon>
                <polygon id="Shape" fill="#D2D2D7" points="192.185203 271.215469 216.378082 358.272094 224.81782 285.280078 353.396168 163.079438"></polygon>
                <polygon id="Shape" fill="#B9B9BE" points="261.389695 312.891844 216.378082 358.272094 224.81782 285.280078"></polygon>
            </g>
        </g>
    </symbol>
    <symbol id="svg-chat25" viewBox="0 0 576 448" preserveAspectRatio="xMinYMin meet">
	    <g id="Designs" stroke="none" stroke-width="1" fill="none" fill-rule="evenodd">
	        <g id="Artboard-2" transform="translate(-3434.000000, -2446.000000)">
	            <g id="Group" transform="translate(3434.000000, 2446.000000)" fill="#FFF" fill-rule="nonzero">
	                <g id="comments">
	                    <path d="M416,160 C416,71.6 322.9,0 208,0 C93.1,0 0,71.6 0,160 C0,194.3 14.1,225.9 38,252 C24.6,282.2 2.5,306.2 2.2,306.5 C2.66453526e-15,308.8 -0.6,312.2 0.7,315.2 C2,318.2 4.8,320 8,320 C44.6,320 74.9,307.7 96.7,295 C128.9,310.7 167,320 208,320 C322.9,320 416,248.4 416,160 Z M538,380 C561.9,354 576,322.3 576,288 C576,221.1 522.5,163.8 446.7,139.9 C447.6,146.5 448,153.2 448,160 C448,265.9 340.3,352 208,352 C197.2,352 186.7,351.2 176.3,350.1 C207.8,407.6 281.8,448 368,448 C409,448 447.1,438.8 479.3,423 C501.1,435.7 531.4,448 568,448 C571.2,448 574.1,446.1 575.3,443.2 C576.6,440.3 576,436.9 573.8,434.5 C573.5,434.2 551.4,410.3 538,380 Z" id="Shape"></path>
	                </g>
	            </g>
	            <circle id="Oval-9" fill="#FE7202" cx="3555" cy="2602" r="29"></circle>
	            <circle id="Oval-9" fill="#FE7202" cx="3635" cy="2602" r="29"></circle>
	            <circle id="Oval-9" fill="#FE7202" cx="3715" cy="2602" r="29"></circle>
	        </g>
	    </g>
    </symbol>
    <symbol id="svg-facebook" viewBox="0 0 472 472" preserveAspectRatio="xMinYMin meet">
	    <g id="Page-1" stroke="none" stroke-width="1" fill="none" fill-rule="evenodd">
	        <g id="Artboard" transform="translate(-101.000000, -189.000000)" fill-rule="nonzero">
	            <g id="messenger" transform="translate(101.000000, 189.000000)">
	                <path d="M236,0 C105.669,0 0,97.822 0,218.5065 C0,287.271 34.3085,348.6015 87.9395,388.6625 L87.9395,472 L168.2975,427.8975 C189.744,433.827 212.459,437.0425 236,437.0425 C366.331,437.0425 472,339.2205 472,218.536 C472,97.822 366.331,0 236,0 Z" id="Shape" fill="#1E88E5"></path>
	                <polygon id="Shape" fill="#FAFAFA" points="259.4525 294.2625 199.361 230.159 82.0985 294.2625 211.0725 157.3235 272.639 221.427 388.456 157.3235"></polygon>
	            </g>
	        </g>
	    </g>
    </symbol>
    <symbol id="svg-eg-logo" viewBox="0 0 121 45" preserveAspectRatio="xMinYMin meet">
<g id="SVGID_1_"></g>
            <path d="M110.326,22.194 C110.326,16.964 106.412,12.322 100.85,12.322 L100.781,12.322 C94.739,12.322 91.031,17.037 91.031,22.121 C91.031,25.141 91.992,27.498 93.64,29.267 C95.287,30.96 97.554,31.992 100.232,32.14 C103.047,32.14 105.588,31.255 107.374,29.562 C109.228,27.941 110.326,25.435 110.326,22.194 Z M71.526,44.394 C65.573,44.394 61.772,43.953 58.401,41.962 C53.38,38.794 49.006,31.355 49.006,21.262 C49.006,12.849 53.209,0.713 69.003,0.132 C69.389,0.117 72.513,0.11 72.914,0.11 L72.914,12.289 L69,12.289 C63.459,12.322 60.273,16.12 60.25,22.146 C60.272,28.585 63.985,32.14 68.728,32.091 L82.661,32.091 C83.232,32.089 85.307,32.872 85.307,32.872 C84.965,32.593 83.805,31.53 83.551,31.257 C80.477,27.933 79.781,25.126 79.401,20.746 C79.401,9.621 87.577,0.118 100.343,0.118 C113.969,0.118 121.785,10.138 121.785,20.746 C121.785,24.948 120.249,28.335 117.637,31.321 C117.408,31.583 117.032,31.952 116.022,32.872 C116.022,32.872 118.36,32.165 118.906,32.165 L121.26,32.165 L121.26,44.394 L71.526,44.394 Z M13.41,17.183 C14.042,15.105 16.419,10.499 22.159,10.467 C28.779,10.429 31.26,15.238 31.551,17.183 L13.41,17.183 Z M29.726,30.58 C28.296,32.484 26.234,33.937 22.705,33.93 C17.374,33.914 13.535,30.58 12.765,25.19 L43.711,25.19 C44.218,17.708 42.864,12.325 37.77,6.718 C33.986,2.606 28.673,0.138 22.487,0.138 C10.188,0.138 1.309,10.829 1.309,22.416 C1.309,34.75 11.134,44.395 22.705,44.395 C26.854,44.395 30.919,43.124 34.267,40.657 C37.87,38.053 40.478,34.95 42.431,30.581 L29.726,30.581 L29.726,30.58 Z" id="Shape" fill="#237EC6" fill-rule="nonzero" mask="url(#mask-2)"></path>
        </g>
    </symbol>
    <symbol id="svg-eg-arrow" viewBox="0 0 51 66" preserveAspectRatio="xMinYMin meet">
        <g fill-rule="nonzero">
            <polygon id="Shape" points="0 0.671 32.118 33.105 0 65.04 18.186 65.04 50.37 32.856 18.186 0.671"></polygon>
        </g>
    </symbol>
</svg>