<svg width="121px" height="45px" viewBox="0 0 121 45" version="1.1" xmlns="http://www.w3.org/2000/svg" xmlns:xlink="http://www.w3.org/1999/xlink">
    <defs>
        <rect id="path-1" x="0.999" y="0" width="120.961" height="44.565"></rect>
    </defs>
    <g id="Page-1" stroke="none" stroke-width="1" fill="none" fill-rule="evenodd">
        <g id="eg-Logo_RGB" transform="translate(-1.000000, 0.000000)">
            <mask id="mask-2" fill="white">
                <use xlink:href="#path-1"></use>
            </mask>
            <g id="SVGID_1_"></g>
            <path d="M110.326,22.194 C110.326,16.964 106.412,12.322 100.85,12.322 L100.781,12.322 C94.739,12.322 91.031,17.037 91.031,22.121 C91.031,25.141 91.992,27.498 93.64,29.267 C95.287,30.96 97.554,31.992 100.232,32.14 C103.047,32.14 105.588,31.255 107.374,29.562 C109.228,27.941 110.326,25.435 110.326,22.194 Z M71.526,44.394 C65.573,44.394 61.772,43.953 58.401,41.962 C53.38,38.794 49.006,31.355 49.006,21.262 C49.006,12.849 53.209,0.713 69.003,0.132 C69.389,0.117 72.513,0.11 72.914,0.11 L72.914,12.289 L69,12.289 C63.459,12.322 60.273,16.12 60.25,22.146 C60.272,28.585 63.985,32.14 68.728,32.091 L82.661,32.091 C83.232,32.089 85.307,32.872 85.307,32.872 C84.965,32.593 83.805,31.53 83.551,31.257 C80.477,27.933 79.781,25.126 79.401,20.746 C79.401,9.621 87.577,0.118 100.343,0.118 C113.969,0.118 121.785,10.138 121.785,20.746 C121.785,24.948 120.249,28.335 117.637,31.321 C117.408,31.583 117.032,31.952 116.022,32.872 C116.022,32.872 118.36,32.165 118.906,32.165 L121.26,32.165 L121.26,44.394 L71.526,44.394 Z M13.41,17.183 C14.042,15.105 16.419,10.499 22.159,10.467 C28.779,10.429 31.26,15.238 31.551,17.183 L13.41,17.183 Z M29.726,30.58 C28.296,32.484 26.234,33.937 22.705,33.93 C17.374,33.914 13.535,30.58 12.765,25.19 L43.711,25.19 C44.218,17.708 42.864,12.325 37.77,6.718 C33.986,2.606 28.673,0.138 22.487,0.138 C10.188,0.138 1.309,10.829 1.309,22.416 C1.309,34.75 11.134,44.395 22.705,44.395 C26.854,44.395 30.919,43.124 34.267,40.657 C37.87,38.053 40.478,34.95 42.431,30.581 L29.726,30.581 L29.726,30.58 Z" id="Shape" fill="#237EC6" fill-rule="nonzero" mask="url(#mask-2)"></path>
        </g>
    </g>
</svg>