<svg width="454px" height="188px" viewBox="0 0 454 188" version="1.1" xmlns="http://www.w3.org/2000/svg" xmlns:xlink="http://www.w3.org/1999/xlink">
    <desc>Created with Sketch.</desc>
    <defs></defs>
    <g id="Page-1" stroke="none" stroke-width="1" fill="none" fill-rule="evenodd">
        <g id="eg-Wortbildmarke_1_RGB" fill="#676E74" fill-rule="nonzero">
            <path d="M27.584,29.483 C27.703,24.586 28.002,12.702 14.565,12.702 C12.833,12.702 9.25,12.881 6.384,14.911 C1.666,18.196 0.471,23.093 0.471,29.005 C0.471,38.5 4.95,44.353 14.386,44.353 C20.418,44.353 23.403,41.845 24.717,40.352 C26.867,38.023 27.106,35.574 27.285,34.081 L21.672,34.081 C21.194,38.381 18.268,40.291 14.625,40.291 C8.474,40.291 5.906,35.693 6.025,29.482 L27.584,29.482 L27.584,29.483 Z M6.265,25.542 C6.385,18.913 10.804,16.704 14.447,16.704 C21.374,16.704 21.911,22.676 21.852,25.542 L6.265,25.542 Z M60.371,23.094 C60.25,21.422 60.072,18.973 57.861,16.405 C55.115,13.121 50.634,12.703 48.666,12.703 C42.693,12.703 35.049,16.405 35.049,28.887 C35.049,35.098 36.84,38.263 38.632,40.353 C41.796,43.816 46.454,44.235 48.486,44.235 C55.89,44.235 60.25,39.338 60.609,33.485 L54.935,33.485 C54.816,36.411 53.203,39.994 48.425,39.994 C42.454,39.994 40.96,34.261 40.96,28.11 C40.96,25.841 40.96,16.823 48.724,16.823 C54.16,16.823 54.578,21.72 54.697,23.094 L60.371,23.094 Z M67.059,28.827 C67.059,37.606 71.895,44.473 81.809,44.473 C92.022,44.473 96.977,37.187 96.977,28.409 C96.977,22.138 94.291,12.703 82.288,12.703 C70.523,12.703 67.059,21.421 67.059,28.827 Z M72.912,28.468 C72.912,19.092 78.703,16.823 82.287,16.823 C87.543,16.823 91.006,20.764 91.006,28.229 C91.006,37.247 86.168,40.292 81.928,40.292 C75.539,40.292 72.912,34.619 72.912,28.468 Z M126.479,13.419 L126.18,17.42 C125.285,16.106 123.254,13.12 117.76,13.12 C109.1,13.12 104.862,20.406 104.862,28.05 C104.862,35.336 108.923,42.86 117.581,42.86 C119.731,42.86 122.895,42.442 125.704,38.739 C125.643,43.338 125.643,44.412 125.286,45.906 C124.688,48.594 122.419,49.847 119.792,49.847 C115.073,49.847 114.655,46.562 114.536,45.667 L106.056,45.667 C106.593,54.804 115.013,55.341 119.314,55.341 C125.107,55.341 134.363,54.266 134.363,43.158 L134.363,20.884 C134.363,17.839 134.543,15.808 134.781,13.419 L126.479,13.419 Z M113.699,28.05 C113.699,21.6 116.445,19.032 119.791,19.032 C125.164,19.032 125.822,24.824 125.822,28.229 C125.822,29.543 125.822,36.829 119.611,36.829 C113.699,36.829 113.699,29.543 113.699,28.05 Z M144.453,43.458 L153.293,43.458 L153.293,28.588 C153.293,24.825 153.83,20.227 162.787,21.063 L162.787,13.121 C155.621,12.763 153.65,16.405 152.516,18.974 L152.336,13.181 L144.035,13.181 C144.215,14.913 144.453,19.272 144.453,20.705 L144.453,43.458 Z M195.572,43.458 C195.035,40.95 194.857,38.382 194.857,35.814 L194.796,23.691 C194.796,22.317 194.735,18.734 192.706,16.286 C189.72,12.822 184.464,12.404 181.956,12.404 C179.089,12.404 175.565,12.882 172.819,14.852 C169.653,17.122 169.473,20.347 169.415,21.959 L178.075,21.959 C178.075,21.242 178.075,20.287 178.731,19.271 C179.506,18.136 180.821,17.599 182.075,17.599 C182.911,17.599 185.241,17.897 186.016,20.107 C186.375,21.182 186.434,22.138 186.434,24.108 C183.508,24.108 178.194,24.108 174.491,25.78 C168.938,28.348 168.1,32.767 168.1,35.156 C168.1,37.545 168.938,39.993 170.729,41.785 C171.922,42.92 173.893,44.174 178.252,44.174 C179.924,44.174 183.926,44.174 187.27,39.337 C187.27,40.233 187.27,41.606 187.569,43.458 L195.572,43.458 Z M186.436,29.245 C186.436,32.47 186.317,34.799 184.764,36.71 C183.928,37.666 182.614,38.442 181.002,38.442 C178.076,38.442 176.701,36.172 176.701,34.142 C176.701,30.559 180.762,28.767 186.436,29.245 Z M204.172,13.3 L204.172,55.044 L213.19,55.044 L213.19,39.994 C213.967,41.009 216.176,43.876 221.612,43.876 C230.331,43.876 234.749,36.292 234.749,27.751 C234.749,18.554 230.032,12.702 222.208,12.702 C220.776,12.702 215.759,12.762 213.011,17.599 L212.773,13.299 L204.172,13.299 L204.172,13.3 Z M219.342,38.083 C212.832,38.083 212.772,30.439 212.772,28.647 C212.772,20.525 216.833,18.376 219.7,18.376 C224.895,18.376 225.792,24.527 225.792,28.11 C225.791,34.082 223.521,38.083 219.342,38.083 Z M242.99,43.458 L251.886,43.458 L251.827,25.004 C251.827,20.286 254.991,18.853 257.501,18.853 C262.456,18.853 262.456,23.69 262.456,25.422 L262.456,43.458 L271.235,43.458 L271.235,25.124 C271.235,21.183 270.339,18.436 269.264,16.942 C267.83,15.091 264.965,12.881 260.487,12.881 C254.991,12.881 252.782,15.986 251.766,17.42 L251.766,0.34 L242.989,0.34 L242.989,43.458 L242.99,43.458 Z M280.732,8.044 L290.168,8.044 L290.168,0.34 L280.732,0.34 L280.732,8.044 Z M281.031,43.458 L289.869,43.458 L289.869,13.24 L281.031,13.24 L281.031,43.458 Z M297.273,34.739 C297.334,36.172 297.511,38.561 299.484,40.651 C302.23,43.518 305.931,44.354 309.814,44.354 C319.191,44.354 323.669,39.159 323.669,33.963 C323.669,29.842 321.101,27.036 315.607,25.543 L310.171,24.05 C307.544,23.333 306.052,22.915 306.052,20.884 C306.052,19.033 307.843,17.898 310.232,17.898 C311.607,17.898 314.293,18.137 314.533,21.481 L322.594,21.481 C322.356,15.45 317.34,12.583 311.129,12.583 C303.305,12.583 297.93,16.166 297.93,22.019 C297.93,28.17 303.127,29.663 305.575,30.38 L311.069,31.873 C314.534,32.829 315.251,33.904 315.251,35.277 C315.251,37.069 313.757,38.86 310.591,38.86 C306.89,38.86 305.696,36.651 305.575,34.739 L297.273,34.739 Z" id="Shape"></path>
            <path d="M0.472,112.045 L6.026,112.045 L6.026,95.859 L18.03,112.045 L25.375,112.045 L11.938,94.785 L24.599,82.065 L17.253,82.065 L6.026,94.307 L6.026,68.628 L0.472,68.628 L0.472,112.045 Z M30.32,97.412 C30.32,106.191 35.157,113.058 45.072,113.058 C55.283,113.058 60.24,105.773 60.24,96.994 C60.24,90.724 57.552,81.288 45.549,81.288 C33.785,81.289 30.32,90.008 30.32,97.412 Z M36.174,97.055 C36.174,87.679 41.965,85.409 45.549,85.409 C50.805,85.409 54.268,89.35 54.268,96.816 C54.268,105.832 49.43,108.878 45.192,108.878 C38.801,108.879 36.174,103.205 36.174,97.055 Z M70.74,112.045 L76.412,112.045 L76.412,95.023 C76.412,93.113 76.473,90.664 77.726,88.932 C78.382,88.036 80.472,85.647 84.294,85.647 C88.714,85.647 90.864,88.514 90.864,92.216 L90.864,112.044 L96.538,112.044 L96.538,95.264 C96.538,93.95 96.538,90.665 97.85,88.814 C98.627,87.739 100.598,85.648 104.241,85.648 C107.108,85.648 109.018,86.902 109.973,88.276 C110.51,89.052 110.989,90.187 110.989,92.815 L110.989,112.045 L116.663,112.045 L116.663,91.918 C116.663,83.08 109.974,81.289 105.675,81.289 C99.046,81.289 96.597,85.23 95.581,86.903 C94.507,84.694 92.417,81.289 85.788,81.289 C83.22,81.289 79.159,81.707 76.292,86.425 L76.292,82.065 L70.618,82.065 L70.739,86.066 L70.739,112.045 L70.74,112.045 Z M128.895,112.045 L134.569,112.045 L134.569,95.023 C134.569,93.113 134.628,90.664 135.881,88.932 C136.539,88.036 138.629,85.647 142.451,85.647 C146.869,85.647 149.019,88.514 149.019,92.216 L149.019,112.044 L154.693,112.044 L154.693,95.264 C154.693,93.95 154.693,90.665 156.005,88.814 C156.782,87.739 158.753,85.648 162.396,85.648 C165.263,85.648 167.173,86.902 168.128,88.276 C168.667,89.052 169.144,90.187 169.144,92.815 L169.144,112.045 L174.818,112.045 L174.818,91.918 C174.818,83.08 168.129,81.289 163.83,81.289 C157.201,81.289 154.752,85.23 153.738,86.903 C152.662,84.694 150.572,81.289 143.943,81.289 C141.375,81.289 137.314,81.707 134.449,86.425 L134.449,82.065 L128.775,82.065 L128.894,86.066 L128.894,112.045 L128.895,112.045 Z M186.512,82.065 L186.512,102.19 C186.512,108.104 189.975,112.344 197.381,112.344 C203.83,112.344 205.861,108.998 206.936,106.908 L207.055,112.045 L212.909,112.045 C212.848,110.371 212.729,107.027 212.729,106.43 L212.729,82.065 L206.936,82.065 L206.936,99.025 C206.936,100.517 206.936,102.847 205.682,104.638 C204.071,107.027 201.442,107.982 198.635,107.982 C192.903,107.982 192.244,104.281 192.244,101.353 L192.244,82.065 L186.512,82.065 Z M225.557,112.045 L231.17,112.045 L231.17,94.785 C231.17,88.753 234.932,85.827 238.994,85.827 C240.904,85.827 242.875,86.484 244.308,87.858 C245.681,89.232 245.921,91.024 245.921,92.994 L245.921,112.045 L251.653,112.045 L251.653,91.68 C251.653,82.483 243.471,81.468 240.784,81.468 C233.975,81.468 231.827,85.648 231.169,86.903 L231.11,82.066 L225.497,82.066 L225.556,85.53 L225.556,112.045 L225.557,112.045 Z M263.109,75.197 L269.857,75.197 L269.857,69.046 L263.109,69.046 L263.109,75.197 Z M263.707,112.045 L269.32,112.045 L269.32,82.065 L263.707,82.065 L263.707,112.045 Z M281.611,112.045 L287.166,112.045 L287.166,95.859 L299.168,112.045 L306.514,112.045 L293.078,94.785 L305.738,82.065 L298.392,82.065 L287.165,94.307 L287.165,68.628 L281.61,68.628 L281.61,112.045 L281.611,112.045 Z M337.02,112.045 C336.602,108.998 336.543,104.996 336.543,104.52 L336.781,90.187 C336.781,88.813 336.72,87.38 335.765,85.588 C334.154,82.543 329.495,81.169 325.134,81.169 C321.97,81.169 317.73,81.885 315.46,84.394 C313.73,86.425 313.55,88.515 313.37,90.067 L318.983,90.067 C319.044,88.873 319.342,84.991 325.014,84.991 C326.627,84.991 329.076,85.469 330.209,86.962 C331.285,88.276 331.285,89.888 331.285,93.592 C329.553,93.471 328.658,93.412 327.223,93.412 C324.836,93.412 320.057,93.592 316.832,95.383 C312.414,97.949 311.578,101.772 311.578,104.16 C311.578,109.117 315.281,113 322.148,113 C324.656,113 328.716,112.521 331.404,107.564 C331.404,109.117 331.523,110.55 331.941,112.044 L337.02,112.044 L337.02,112.045 Z M331.287,97.473 C331.168,101.653 331.107,103.325 329.853,105.356 C328.48,107.446 326.33,108.581 323.462,108.581 C318.446,108.581 317.251,105.298 317.251,103.386 C317.251,97.2939879 325.792,97.294 328.062,97.294 C329.436,97.293 330.271,97.354 331.287,97.473 Z M344.057,86.066 L349.371,86.066 L349.371,106.072 C349.371,110.968 351.82,112.463 356.955,112.463 C358.986,112.463 360.598,112.283 361.613,112.104 L361.613,107.745 C361.134,107.864 360.06,108.044 358.925,108.044 C354.923,108.044 354.923,105.536 354.923,104.044 L354.923,86.066 L361.612,86.066 L361.612,81.945 L354.923,81.945 L354.923,73.883 L349.37,75.675 L349.37,81.946 L344.056,81.946 L344.056,86.066 L344.057,86.066 Z M369.783,75.197 L376.533,75.197 L376.533,69.046 L369.783,69.046 L369.783,75.197 Z M370.381,112.045 L375.994,112.045 L375.994,82.065 L370.381,82.065 L370.381,112.045 Z M386.494,97.412 C386.494,106.191 391.332,113.058 401.246,113.058 C411.457,113.058 416.414,105.773 416.414,96.994 C416.414,90.724 413.726,81.288 401.723,81.288 C389.959,81.289 386.494,90.008 386.494,97.412 Z M392.346,97.055 C392.346,87.679 398.139,85.409 401.723,85.409 C406.979,85.409 410.442,89.35 410.442,96.816 C410.442,105.832 405.606,108.878 401.366,108.878 C394.975,108.879 392.346,103.205 392.346,97.055 Z M427.152,112.045 L432.765,112.045 L432.765,94.785 C432.765,88.753 436.527,85.827 440.587,85.827 C442.499,85.827 444.47,86.484 445.903,87.858 C447.276,89.232 447.514,91.024 447.514,92.994 L447.514,112.045 L453.248,112.045 L453.248,91.68 C453.248,82.483 445.066,81.468 442.379,81.468 C435.57,81.468 433.42,85.648 432.764,86.903 L432.703,82.066 L427.09,82.066 L427.151,85.53 L427.151,112.045 L427.152,112.045 Z" id="Shape"></path>
            <path d="M22.413,151.475 C21.725,150.272 19.663,146.606 13.476,146.606 C6.716,146.606 0.472,151.36 0.472,162.301 C0.472,174.905 9.008,176.908 12.846,176.908 C14.794,176.908 17.601,176.392 19.949,174.789 C21.439,173.758 22.069,172.555 22.527,171.754 L22.642,176.336 L28.027,176.336 C27.912,174.846 27.797,172.383 27.797,171.754 L27.797,135.033 L22.413,135.033 L22.413,151.475 Z M22.583,161.557 C22.583,163.789 22.583,173.129 14.105,173.129 C7.517,173.129 6.2,167.227 6.2,162.129 C6.2,160.182 6.2,150.615 14.105,150.615 C17.141,150.615 19.261,152.047 20.407,153.535 C21.61,155.082 22.583,157.373 22.583,161.557 Z M63.141,162.932 C63.256,158.235 63.543,146.834 50.655,146.834 C48.993,146.834 45.555,147.006 42.805,148.953 C38.28,152.103 37.133,156.801 37.133,162.473 C37.133,171.58 41.43,177.196 50.483,177.196 C56.268,177.196 59.131,174.79 60.391,173.358 C62.455,171.124 62.684,168.774 62.856,167.342 L57.471,167.342 C57.012,171.467 54.205,173.301 50.711,173.301 C44.811,173.301 42.346,168.889 42.461,162.932 L63.141,162.932 Z M42.691,159.15 C42.804,152.791 47.045,150.671 50.539,150.671 C57.184,150.671 57.699,156.4 57.643,159.15 L42.691,159.15 Z M70.188,167.801 C70.131,174.733 75.573,177.139 81.417,177.139 C84.396,177.139 87.431,176.737 89.952,175.19 C92.071,173.872 93.847,171.124 93.847,167.915 C93.847,166.083 93.275,164.077 91.671,162.589 C89.952,160.984 88.233,160.527 80.271,158.636 C78.783,158.236 76.205,157.605 76.205,154.97 C76.205,150.845 81.246,150.845 82.047,150.845 C83.996,150.845 87.777,151.189 87.604,155.542 L93.104,155.542 C93.104,154.339 93.104,152.964 92.36,151.36 C90.641,147.922 85.6,146.891 81.991,146.891 C75.346,146.891 70.762,150.329 70.762,155.598 C70.762,161.614 75.803,162.817 81.819,164.192 C86.116,165.165 88.12,165.682 88.12,168.489 C88.12,169.462 87.778,170.436 87.204,171.18 C86.058,172.612 84.397,173.014 82.163,173.014 C76.95,173.014 75.804,169.977 75.862,167.801 L70.188,167.801 Z M102.611,140.99 L109.084,140.99 L109.084,135.09 L102.611,135.09 L102.611,140.99 Z M103.184,176.336 L108.569,176.336 L108.569,147.578 L103.184,147.578 L103.184,176.336 Z M120.197,178.57 C120.426,182.465 120.771,187.849 132.285,187.849 C136.238,187.849 141.851,187.277 144.258,182.693 C145.404,180.517 145.633,177.711 145.633,170.779 L145.69,152.791 L145.805,147.578 L140.592,147.578 L140.533,151.531 C139.388,150.041 137.267,147.177 131.482,147.177 C124.435,147.177 118.709,151.931 118.709,161.671 C118.709,165.509 119.51,169.347 121.973,172.267 C124.379,175.246 128.161,175.82 130.795,175.82 C132.514,175.82 137.957,175.705 140.248,170.951 C140.248,178.742 140.133,184.183 132.629,184.183 C127.531,184.183 126.156,181.777 125.926,178.57 L120.197,178.57 Z M132.17,171.811 C125.582,171.811 124.264,165.967 124.264,161.557 C124.264,157.891 125.182,151.016 131.998,151.016 C134.461,151.016 136.754,151.989 138.186,153.536 C139.618,155.026 140.42,157.089 140.42,160.698 C140.42,165.911 139.617,167.456 138.471,168.946 C137.154,170.664 135.32,171.811 132.17,171.811 Z M157.662,176.336 L163.047,176.336 L163.047,159.779 C163.047,153.994 166.656,151.187 170.551,151.187 C172.385,151.187 174.276,151.818 175.651,153.134 C176.967,154.452 177.198,156.171 177.198,158.062 L177.198,176.335 L182.696,176.335 L182.696,156.8 C182.696,147.978 174.848,147.005 172.27,147.005 C165.739,147.005 163.676,151.015 163.047,152.218 L162.99,147.577 L157.605,147.577 L157.662,150.899 L157.662,176.336 Z" id="Shape"></path>
        </g>
    </g>
</svg>