<svg xmlns="http://www.w3.org/2000/svg" xmlns:xlink="http://www.w3.org/1999/xlink" width="1140" height="800" x="0" y="0" enable-background="new 0 0 1140 800" version="1.1" viewBox="0 0 1140 800" xml:space="preserve"><g id="Ebene_3"><rect width="1140" height="800" fill="#F17E00"/></g><g id="Ebene_2"><g><path fill="#FFF" d="M100.352,324.374c0,0-5.059,18.669-5.314,19.871c-0.449,1.992-1.136,5.576-1.717,9.184 c-0.469-3.608-1.18-7.555-1.53-9.354c-0.201-1.164-3.642-16.495-4.337-19.701h-9.78l9.77,40.416H97.79 c0,0,6.234-22.888,6.399-23.671c0.165-0.781,0.375-1.803,0.632-3.062c0.292,1.413,0.53,2.558,0.714,3.435 c0.183,0.878,5.639,21.047,6.262,23.299h10.335l9.833-40.416h-9.775c-0.403,2.061-4.12,18.496-4.339,19.699 c-0.359,1.802-1.046,5.786-1.511,9.354c-0.534-3.606-1.171-7.19-1.675-9.097c-0.257-1.145-5.008-17.781-5.593-19.956H100.352 L100.352,324.374L100.352,324.374z"/><path fill="#FFF" d="M155.799,350.135c0,1.183-0.145,2.289-0.432,3.32c-0.288,1.03-0.729,1.938-1.322,2.719 c-0.594,0.783-1.342,1.393-2.242,1.832c-0.901,0.438-1.945,0.658-3.132,0.658c-1.227,0-2.299-0.238-3.218-0.716 c-0.92-0.476-1.677-1.125-2.27-1.946c-0.594-0.82-1.035-1.775-1.323-2.862c-0.288-1.088-0.431-2.222-0.431-3.406 c0-1.031,0.114-2.042,0.344-3.034s0.613-1.927,1.15-2.805c0.612-0.954,2.041-2.948,5.793-2.948 c3.004,0.033,4.149,1.269,4.61,1.689C154.975,344.238,155.799,346.739,155.799,350.135L155.799,350.135L155.799,350.135z M164.729,349.791c0-1.374-0.2-2.929-0.601-4.665c-0.401-1.736-1.155-3.406-2.262-5.009c-1.107-1.603-2.624-2.977-4.551-4.122 c-1.927-1.145-4.418-1.812-7.471-2.004c-2.862-0.152-5.372,0.153-7.527,0.916c-2.156,0.764-3.95,1.871-5.381,3.32 c-1.431,1.451-2.51,3.168-3.234,5.152c-0.726,1.985-1.088,4.122-1.088,6.411c0,2.748,0.438,5.124,1.317,7.127 c0.877,2.004,2.061,3.655,3.549,4.952c1.489,1.298,3.206,2.252,5.152,2.862c1.946,0.61,3.968,0.916,6.068,0.916 c2.899,0,5.371-0.468,7.414-1.403c2.04-0.935,3.701-2.166,4.979-3.692c1.278-1.526,2.205-3.224,2.776-5.095 C164.442,353.589,164.729,351.7,164.729,349.791L164.729,349.791L164.729,349.791z"/><polygon fill="#FFF" points="151.63 324.375 151.63 331.4 159.831 331.4 159.831 324.375 151.63 324.375 151.63 324.375"/><polygon fill="#FFF" points="137.799 324.375 137.799 331.4 146 331.4 146 324.375 137.799 324.375 137.799 324.375"/><path fill="#FFF" d="M178.331,334.85h-8.587v29.939h8.816v-16.83c0-0.954,0.086-1.717,0.258-2.29 c0.171-0.572,0.466-1.039,0.887-1.402c0.42-0.362,0.982-0.648,1.688-0.859c0.706-0.209,1.593-0.409,2.662-0.601l2.92-0.458v-7.786 c-1.146,0.115-2.147,0.278-3.005,0.487c-0.859,0.21-1.623,0.468-2.291,0.773c-0.668,0.306-1.269,0.64-1.803,1.002 c-0.535,0.363-1.05,0.754-1.545,1.173V334.85L178.331,334.85L178.331,334.85z"/><path fill="#FFF" d="M199.719,334.865h-8.874v29.925h8.816v-16.143c0-0.916,0.027-1.823,0.085-2.719 c0.058-0.896,0.227-1.698,0.511-2.404c0.285-0.706,0.739-1.269,1.365-1.689c0.625-0.419,1.507-0.63,2.645-0.63 c0.871,0,1.658,0.182,2.359,0.544c0.702,0.363,1.222,0.945,1.564,1.746c0.19,0.42,0.305,0.936,0.343,1.546 c0.038,0.611,0.058,1.584,0.058,2.919v16.83h8.815v-20.437c0-2.327-0.268-4.197-0.801-5.61c-0.535-1.412-1.584-2.538-3.149-3.377 c-0.764-0.419-1.622-0.725-2.576-0.916c-0.954-0.19-1.87-0.286-2.748-0.286c-1.069,0-2.07,0.105-3.005,0.315 c-0.936,0.21-1.746,0.468-2.433,0.772c-0.764,0.382-1.345,0.754-1.746,1.117c-0.401,0.363-0.823,0.853-1.23,1.355V334.865 L199.719,334.865L199.719,334.865z"/><path fill="#FFF" d="M243.832,346.127h-12.136c0.113-0.814,0.874-5.896,6.211-5.896 C243.435,340.231,243.756,345.479,243.832,346.127L243.832,346.127L243.832,346.127z M252.992,351.623 c-0.04-0.839-0.096-1.812-0.173-2.92c-0.076-1.106-0.257-2.261-0.543-3.463c-0.286-1.202-0.706-2.414-1.26-3.635 c-0.553-1.221-1.307-2.347-2.26-3.377c-0.955-1.03-1.966-1.832-3.035-2.404c-1.069-0.573-2.109-1.001-3.12-1.288 c-1.012-0.286-1.918-0.458-2.719-0.515c-0.801-0.057-1.431-0.086-1.889-0.086c-2.939,0-5.391,0.525-7.356,1.575 c-1.965,1.049-3.54,2.375-4.723,3.979c-1.183,1.603-2.023,3.377-2.519,5.323c-0.496,1.947-0.745,3.817-0.745,5.611 c0,2.442,0.372,4.627,1.116,6.554c0.745,1.927,1.784,3.55,3.12,4.866c1.335,1.317,2.929,2.319,4.78,3.006 c1.851,0.687,3.883,1.03,6.097,1.03c2.404,0,4.56-0.398,6.469-1.192c1.908-0.794,3.511-1.798,4.809-3.009 c0.763-0.719,1.421-1.448,1.974-2.188c0.554-0.74,1.097-1.491,1.632-2.255l-6.64-3.378c-0.268,0.535-0.593,1.108-0.974,1.718 c-0.382,0.611-0.858,1.184-1.431,1.717c-0.572,0.535-1.279,0.973-2.118,1.317c-0.84,0.343-1.852,0.515-3.034,0.515 c-1.184,0-2.204-0.211-3.063-0.635c-0.858-0.423-1.574-0.99-2.146-1.702c-0.573-0.71-0.983-1.519-1.231-2.422 c-0.249-0.903-0.373-1.818-0.373-2.741H252.992L252.992,351.623L252.992,351.623z"/><path fill="#FFF" d="M281.815,337.312c0,1.336-0.25,2.375-0.747,3.12c-0.499,0.744-1.083,1.298-1.753,1.66 c-0.67,0.363-1.351,0.582-2.04,0.658c-0.691,0.077-1.208,0.114-1.552,0.114h-7.767v-10.934h7.996c0.537,0,1.14,0.048,1.811,0.143 c0.671,0.096,1.312,0.315,1.925,0.658s1.12,0.869,1.522,1.574C281.614,335.013,281.815,336.015,281.815,337.312L281.815,337.312 L281.815,337.312z M290.85,342.492c0.61-1.316,0.916-2.985,0.916-5.009c0-1.832-0.296-3.521-0.887-5.066 c-0.593-1.545-1.365-2.853-2.318-3.921c-0.916-0.993-1.928-1.765-3.034-2.319c-1.107-0.553-2.233-0.963-3.378-1.231 c-1.145-0.266-2.3-0.429-3.464-0.486c-1.165-0.058-2.281-0.086-3.349-0.086h-17.33v40.416h9.951v-14.426h5.754l8.047,14.426 h11.038l-9.332-16.143c0.687-0.267,1.507-0.61,2.462-1.03c0.953-0.419,1.86-1.049,2.719-1.889 C289.504,344.888,290.239,343.809,290.85,342.492L290.85,342.492L290.85,342.492z"/></g><g><path fill="#FFF" d="M187.428,405.933v24.489h-7.025v-24.489h-16.16c0,0,0,58.515,0,59.318c0.804,0,16.16,0,16.16,0V440.66 h6.925v24.591c0,0,15.357,0,16.16,0c0-0.804,0-59.318,0-59.318H187.428L187.428,405.933z"/><path fill="#FFF" d="M233.096,430.422h-6.524c0,0,0-11.643,0-12.044c0-2.208,0.803-3.011,2.811-3.011c0.201,0,3.714,0,3.714,0 V430.422L233.096,430.422z M219.144,405.933c-5.119,0-8.631,4.416-8.631,9.735v49.583h16.059c0-0.804,0-24.591,0-24.591h6.524 v24.591h15.958v-59.318C249.154,405.933,220.95,405.933,219.144,405.933L219.144,405.933z"/><path fill="#FFF" d="M106.933,427.411c0.1,1.807-0.703,2.811-2.007,3.011h-4.717v-15.055c0,0,3.614,0,4.015,0 c2.007,0,2.81,1.004,2.81,3.011L106.933,427.411L106.933,427.411z M115.062,435.239c3.714-0.401,8.029-4.315,8.029-9.534 c0-2.71,0-10.037,0-10.037c-0.1-5.42-4.114-9.735-8.33-9.735c-2.91,0-30.612,0-30.612,0v59.318h15.959V440.66c0,0,3.914,0,4.015,0 c1.906,0,2.81,0.903,2.81,3.111v21.579h16.159c0-0.201,0-18.668,0-20.376C123.091,439.656,118.877,435.642,115.062,435.239 L115.062,435.239z"/><path fill="#FFF" d="M146.277,417.374h11.04v-11.441h-27.2c0,0,0,58.515,0,59.318c0.804,0,27.2,0,27.2,0v-11.442h-11.04V440.66 h9.334v-10.238h-9.334V417.374L146.277,417.374z"/><path fill="#FFF" d="M293.717,459.328c0.904-2.208,1.104-4.416,1.104-7.125c0-0.704,0-46.17,0-46.17h-15.758 c0,0,0,45.366,0,45.768c0,1.305-0.803,3.312-3.513,3.312c-0.101,0-0.101,0-0.101,0c-2.71,0-3.513-2.108-3.513-3.312 c0-0.401,0-45.768,0-45.768H256.18c0,0,0,45.566,0,46.17c0,2.91,0.201,5.018,1.104,7.125c1.205,2.71,3.915,4.919,6.725,5.62 c1.104,0.303,2.609,0.303,4.315,0.303h14.452c1.707,0,3.112-0.102,4.317-0.303C289.903,464.146,292.513,461.938,293.717,459.328 L293.717,459.328z"/></g><g><path fill="#FFF" d="M111.368,560.139c0.059-0.483,0.089-1.094,0.089-1.818c0-0.721-0.03-1.333-0.089-1.816 c-0.058-0.474-0.144-0.855-0.256-1.134c-0.101-0.251-0.22-0.429-0.354-0.527c-0.131-0.095-0.282-0.144-0.458-0.144H95.033v-38.558 c0-0.173-0.055-0.325-0.169-0.467c-0.119-0.146-0.336-0.273-0.646-0.377c-0.349-0.116-0.822-0.211-1.407-0.279 c-0.591-0.072-1.369-0.108-2.315-0.108c-0.922,0-1.694,0.036-2.296,0.108c-0.597,0.068-1.076,0.163-1.426,0.279 c-0.309,0.104-0.527,0.23-0.648,0.379c-0.113,0.14-0.168,0.292-0.168,0.465v43.172c0,0.979,0.242,1.686,0.719,2.098 c0.498,0.432,1.098,0.643,1.834,0.643h21.789c0.172,0,0.32-0.051,0.449-0.155c0.137-0.109,0.258-0.305,0.36-0.581 C111.223,561.011,111.309,560.613,111.368,560.139L111.368,560.139z"/><path fill="#FFF" d="M145.244,560.321c0.059-0.46,0.089-1.046,0.089-1.743s-0.03-1.283-0.089-1.741 c-0.057-0.449-0.143-0.811-0.254-1.077c-0.1-0.24-0.22-0.412-0.357-0.514c-0.129-0.095-0.268-0.141-0.42-0.141h-17.435v-14.034 h14.678c0.161,0,0.303-0.042,0.433-0.13c0.132-0.088,0.25-0.247,0.349-0.473c0.108-0.252,0.193-0.602,0.25-1.037 c0.06-0.456,0.091-1.035,0.091-1.723c0-0.663-0.031-1.236-0.091-1.705c-0.057-0.445-0.142-0.801-0.251-1.056 c-0.101-0.229-0.221-0.396-0.357-0.494c-0.131-0.099-0.269-0.145-0.424-0.145h-14.678v-12.232h17.287 c0.149,0,0.279-0.045,0.397-0.137c0.126-0.1,0.243-0.274,0.345-0.518c0.11-0.269,0.196-0.631,0.253-1.077 c0.06-0.467,0.09-1.04,0.09-1.706c0-0.714-0.03-1.312-0.09-1.779c-0.057-0.447-0.143-0.817-0.255-1.101 c-0.098-0.243-0.213-0.418-0.333-0.505c-0.118-0.084-0.251-0.125-0.407-0.125h-23.736c-0.738,0-1.338,0.209-1.835,0.64 c-0.477,0.414-0.719,1.121-0.719,2.1v41.444c0,0.979,0.242,1.686,0.719,2.099c0.497,0.431,1.097,0.642,1.835,0.642h23.883 c0.152,0,0.291-0.047,0.422-0.143c0.135-0.101,0.255-0.272,0.355-0.513C145.101,561.134,145.186,560.771,145.244,560.321 L145.244,560.321z"/><path fill="#FFF" d="M192.439,560.9c-0.072-0.499-0.253-1.184-0.539-2.039l-14.696-42.139 c-0.135-0.434-0.298-0.772-0.486-1.018c-0.165-0.213-0.456-0.38-0.865-0.495c-0.451-0.127-1.101-0.209-1.931-0.246 c-0.841-0.036-1.966-0.054-3.441-0.054c-1.274,0-2.254,0.018-2.998,0.054c-0.731,0.036-1.304,0.118-1.704,0.243 c-0.363,0.115-0.627,0.276-0.783,0.48c-0.174,0.227-0.332,0.538-0.469,0.926l-14.659,42.178c-0.286,0.833-0.466,1.507-0.536,1.998 c-0.06,0.419,0.001,0.737,0.184,0.947c0.19,0.219,0.568,0.362,1.124,0.428c0.625,0.072,1.504,0.109,2.61,0.109 c1.034,0,1.886-0.025,2.529-0.075c0.616-0.045,1.094-0.13,1.42-0.254c0.292-0.111,0.503-0.258,0.626-0.438 c0.139-0.203,0.255-0.463,0.343-0.772l11.94-37.151h0.452l0.107,0.215l12.162,37.181c0.086,0.287,0.193,0.514,0.321,0.685 c0.104,0.137,0.316,0.258,0.612,0.347c0.339,0.103,0.853,0.173,1.525,0.209c0.697,0.036,1.675,0.055,2.905,0.055 c1.17,0,2.113-0.031,2.801-0.092c0.759-0.068,1.097-0.251,1.247-0.394C192.433,561.603,192.499,561.312,192.439,560.9 L192.439,560.9z"/><path fill="#FFF" d="M204.772,499.186c-9.383,0-17.018,7.635-17.018,17.019c0,9.383,7.634,17.017,17.018,17.017 c9.384,0,17.019-7.634,17.019-17.017C221.791,506.82,214.157,499.186,204.772,499.186L204.772,499.186z"/><path fill="#FFF" d="M319.619,559.754c-0.047-0.097-0.107-0.17-0.186-0.225c-0.085-0.059-0.177-0.089-0.285-0.089h-5.9v-14.549 c0-0.096-0.024-0.18-0.076-0.261c-0.049-0.078-0.133-0.141-0.257-0.183c-0.1-0.035-0.223-0.062-0.369-0.086 c-0.135-0.021-0.308-0.032-0.562-0.032c-0.242,0-0.411,0.011-0.552,0.032c-0.157,0.025-0.277,0.051-0.38,0.086 c-0.121,0.044-0.207,0.104-0.25,0.18c-0.052,0.077-0.076,0.162-0.076,0.264v15.729c0,0.39,0.108,0.667,0.321,0.827 c0.203,0.158,0.417,0.235,0.652,0.235h7.451c0.103,0,0.194-0.029,0.284-0.088c0.078-0.053,0.14-0.129,0.187-0.235 c0.048-0.101,0.08-0.215,0.099-0.342c0.019-0.121,0.028-0.273,0.028-0.465c0-0.187-0.007-0.338-0.027-0.462 C319.699,559.949,319.666,559.832,319.619,559.754L319.619,559.754z"/><g><defs><polygon id="SVGID_1_" points="241.655 561.919 478.351 561.919 478.351 515.043 241.655 515.043 241.655 561.919"/></defs><clipPath id="SVGID_2_"><use overflow="visible" xlink:href="#SVGID_1_"/></clipPath><path fill="#FFF" d="M286.696,544.448c-0.099-0.035-0.22-0.062-0.366-0.086 c-0.137-0.021-0.311-0.032-0.562-0.032c-0.233,0-0.396,0.011-0.534,0.032c-0.153,0.025-0.28,0.054-0.375,0.086 c-0.119,0.04-0.205,0.095-0.267,0.174c-0.059,0.083-0.088,0.17-0.088,0.27V561.2c0,0.102,0.025,0.188,0.079,0.257 c0.053,0.086,0.139,0.146,0.25,0.182c0.093,0.036,0.214,0.062,0.382,0.087c0.148,0.021,0.33,0.034,0.553,0.034 c0.235,0,0.419-0.013,0.56-0.034c0.161-0.019,0.28-0.048,0.368-0.083c0.121-0.043,0.21-0.105,0.256-0.183 c0.053-0.072,0.079-0.161,0.079-0.26v-16.309c0-0.096-0.025-0.183-0.075-0.261C286.906,544.551,286.822,544.49,286.696,544.448 L286.696,544.448z" clip-path="url(#SVGID_2_)"/><path fill="#FFF" d="M299.937,553.632c-0.369-0.37-0.792-0.696-1.259-0.967 c-0.477-0.275-0.954-0.525-1.418-0.741c-0.528-0.245-0.97-0.451-1.406-0.665c-0.448-0.212-0.854-0.449-1.208-0.704 c-0.34-0.25-0.621-0.542-0.827-0.87c-0.207-0.314-0.307-0.689-0.307-1.146c0-0.313,0.054-0.593,0.162-0.863 c0.104-0.271,0.259-0.499,0.472-0.697c0.223-0.206,0.495-0.365,0.812-0.473c0.332-0.125,0.728-0.187,1.172-0.187 c0.491,0,0.924,0.061,1.324,0.187c0.377,0.113,0.72,0.251,1.024,0.409c0.277,0.142,0.527,0.28,0.743,0.411 c0.233,0.14,0.397,0.201,0.532,0.201c0.092,0,0.167-0.029,0.244-0.092c0.071-0.062,0.121-0.145,0.153-0.251 c0.028-0.088,0.049-0.201,0.065-0.334c0.016-0.13,0.02-0.271,0.02-0.434c0-0.154-0.003-0.296-0.012-0.423 c-0.011-0.106-0.026-0.205-0.042-0.285c-0.018-0.083-0.044-0.154-0.08-0.219c-0.033-0.066-0.095-0.14-0.191-0.236 c-0.089-0.089-0.268-0.205-0.545-0.352c-0.285-0.146-0.593-0.271-0.916-0.373c-0.325-0.11-0.683-0.199-1.085-0.271 c-1.115-0.189-2.21-0.122-3.229,0.202c-0.652,0.203-1.214,0.499-1.68,0.884c-0.473,0.395-0.847,0.882-1.108,1.448 c-0.264,0.572-0.398,1.229-0.398,1.958c0,0.703,0.117,1.32,0.346,1.839c0.228,0.512,0.529,0.957,0.896,1.33 c0.365,0.382,0.783,0.712,1.237,0.98c0.46,0.277,0.932,0.533,1.408,0.754l0.32,0.149c0.367,0.174,0.727,0.34,1.081,0.508 c0.445,0.206,0.846,0.438,1.192,0.694c0.344,0.251,0.613,0.529,0.824,0.856c0.204,0.322,0.305,0.712,0.305,1.162 c0,0.424-0.076,0.807-0.224,1.135c-0.145,0.324-0.356,0.606-0.63,0.836c-0.272,0.227-0.608,0.406-0.996,0.534 c-0.381,0.124-0.816,0.188-1.288,0.188c-0.626,0-1.184-0.075-1.657-0.22c-0.499-0.162-0.908-0.321-1.243-0.489 c-0.341-0.172-0.616-0.325-0.833-0.478c-0.234-0.154-0.449-0.238-0.621-0.238c-0.091,0-0.167,0.019-0.226,0.056 c-0.08,0.049-0.149,0.129-0.189,0.227c-0.042,0.093-0.069,0.205-0.089,0.354c-0.019,0.136-0.028,0.308-0.028,0.499 c0,0.275,0.027,0.508,0.076,0.69c0.055,0.181,0.14,0.333,0.255,0.458c0.108,0.109,0.293,0.244,0.566,0.407 c0.257,0.146,0.583,0.295,0.973,0.441c0.395,0.146,0.833,0.267,1.309,0.355c0.476,0.098,1.015,0.149,1.599,0.149 c0.828,0,1.603-0.11,2.302-0.335c0.723-0.228,1.351-0.564,1.872-1.004c0.537-0.446,0.945-0.979,1.25-1.634 c0.3-0.636,0.449-1.372,0.449-2.182c0-0.691-0.115-1.304-0.346-1.812C300.614,554.454,300.319,554.018,299.937,553.632 L299.937,553.632z" clip-path="url(#SVGID_2_)"/><path fill="#FFF" d="M334.586,544.448c-0.097-0.035-0.213-0.062-0.365-0.086 c-0.136-0.021-0.307-0.032-0.548-0.032c-0.256,0-0.427,0.011-0.561,0.032c-0.159,0.026-0.286,0.054-0.37,0.086 c-0.114,0.04-0.198,0.097-0.267,0.188c-0.044,0.079-0.066,0.164-0.066,0.255v10.384c0,0.754-0.092,1.411-0.272,1.95 c-0.183,0.551-0.444,1.017-0.777,1.382c-0.329,0.366-0.744,0.644-1.238,0.83c-0.481,0.185-1.049,0.28-1.687,0.28 c-0.621,0-1.181-0.096-1.661-0.287c-0.484-0.184-0.902-0.466-1.248-0.844c-0.342-0.368-0.608-0.843-0.795-1.413 c-0.188-0.566-0.283-1.246-0.283-2.016v-10.267c0-0.093-0.024-0.176-0.076-0.268c-0.053-0.075-0.132-0.132-0.247-0.176 c-0.092-0.035-0.221-0.062-0.375-0.086c-0.139-0.021-0.31-0.032-0.552-0.032c-0.263,0-0.437,0.011-0.568,0.032 c-0.146,0.025-0.263,0.051-0.369,0.086c-0.117,0.042-0.2,0.103-0.247,0.18c-0.053,0.077-0.078,0.161-0.078,0.264v10.541 c0,1.056,0.151,2,0.448,2.81c0.305,0.814,0.742,1.502,1.3,2.046c0.559,0.536,1.238,0.949,2.021,1.226 c0.772,0.277,1.641,0.417,2.586,0.417c1.023,0,1.957-0.149,2.77-0.441c0.823-0.3,1.521-0.734,2.08-1.305 c0.569-0.568,1.015-1.277,1.321-2.106c0.303-0.817,0.457-1.763,0.457-2.813v-10.373c0-0.1-0.028-0.187-0.086-0.271 C334.782,544.549,334.698,544.49,334.586,544.448L334.586,544.448z" clip-path="url(#SVGID_2_)"/></g><path fill="#FFF" d="M280.763,559.81c-0.055-0.103-0.125-0.176-0.194-0.216c-0.083-0.048-0.171-0.073-0.268-0.073h-6.539 v-5.794h5.512c0.085,0,0.168-0.021,0.261-0.065c0.081-0.047,0.148-0.118,0.194-0.204c0.049-0.093,0.081-0.197,0.101-0.319 c0.021-0.118,0.029-0.251,0.029-0.435c0-0.188-0.01-0.334-0.029-0.452c-0.021-0.141-0.052-0.251-0.1-0.335 c-0.044-0.085-0.106-0.157-0.19-0.221c-0.079-0.054-0.172-0.08-0.266-0.08h-5.512v-5.045h6.448c0.094,0,0.18-0.025,0.271-0.075 c0.08-0.052,0.142-0.132,0.181-0.223c0.047-0.088,0.081-0.201,0.098-0.326c0.026-0.129,0.037-0.272,0.037-0.441 c0-0.183-0.011-0.339-0.034-0.46c-0.02-0.124-0.052-0.233-0.096-0.329c-0.042-0.103-0.106-0.182-0.19-0.234 c-0.083-0.05-0.169-0.076-0.267-0.076h-7.996c-0.227,0-0.445,0.08-0.65,0.234c-0.217,0.161-0.326,0.438-0.326,0.828v15.153 c0,0.39,0.109,0.667,0.323,0.827c0.2,0.154,0.419,0.235,0.653,0.235h8.087c0.093,0,0.182-0.024,0.259-0.074 c0.082-0.044,0.15-0.12,0.205-0.224c0.056-0.104,0.091-0.218,0.109-0.346c0.016-0.129,0.027-0.276,0.027-0.431 c0-0.176-0.011-0.332-0.027-0.458C280.857,560.021,280.818,559.899,280.763,559.81L280.763,559.81z"/><path fill="#FFF" d="M252.783,560.416l-5.951-7.971l5.517-6.652c0.178-0.228,0.281-0.383,0.336-0.499 c0.067-0.136,0.101-0.271,0.101-0.402c0-0.083-0.021-0.157-0.07-0.252c-0.049-0.074-0.124-0.133-0.232-0.18 c-0.087-0.039-0.199-0.068-0.366-0.098c-0.134-0.021-0.311-0.032-0.57-0.032c-0.236,0-0.417,0.01-0.572,0.023 c-0.153,0.019-0.282,0.045-0.388,0.08c-0.117,0.037-0.214,0.084-0.303,0.147c-0.082,0.065-0.152,0.142-0.202,0.223l-5.713,7.229 v-7.141c0-0.092-0.025-0.176-0.078-0.27c-0.056-0.077-0.139-0.134-0.254-0.174c-0.097-0.035-0.221-0.062-0.369-0.086 c-0.138-0.021-0.311-0.032-0.563-0.032c-0.234,0-0.416,0.013-0.555,0.032c-0.153,0.024-0.28,0.051-0.379,0.086 c-0.118,0.042-0.199,0.103-0.257,0.185c-0.046,0.079-0.068,0.163-0.068,0.259V561.2c0,0.085,0.023,0.172,0.068,0.248 c0.05,0.085,0.139,0.151,0.252,0.19c0.092,0.036,0.215,0.062,0.384,0.087c0.142,0.021,0.331,0.034,0.555,0.034 c0.232,0,0.416-0.009,0.561-0.031c0.165-0.027,0.287-0.054,0.369-0.086c0.12-0.04,0.206-0.103,0.262-0.194 c0.048-0.08,0.073-0.167,0.073-0.248v-8.062l5.94,8.144c0.07,0.101,0.158,0.188,0.267,0.269c0.116,0.086,0.277,0.14,0.496,0.172 c0.192,0.025,0.44,0.038,0.758,0.038c0.253,0,0.448-0.009,0.594-0.031c0.17-0.027,0.296-0.058,0.379-0.095 c0.126-0.047,0.21-0.112,0.256-0.208c0.042-0.075,0.064-0.166,0.064-0.254c0-0.065-0.018-0.141-0.058-0.256 C253.03,560.821,252.933,560.65,252.783,560.416L252.783,560.416z"/><g><defs><polygon id="SVGID_3_" points="241.655 561.919 478.351 561.919 478.351 515.043 241.655 515.043 241.655 561.919"/></defs><clipPath id="SVGID_4_"><use overflow="visible" xlink:href="#SVGID_3_"/></clipPath><path fill="#FFF" d="M264.19,549.261c0,0.393-0.067,0.761-0.196,1.096 c-0.125,0.329-0.319,0.61-0.593,0.854c-0.271,0.245-0.606,0.435-1.025,0.577c-0.416,0.138-0.915,0.208-1.487,0.208h-2.046v-5.438 h1.749c0.471,0,0.809,0.013,1.061,0.038c0.251,0.021,0.489,0.065,0.709,0.127c0.659,0.189,1.13,0.503,1.404,0.928 C264.047,548.09,264.19,548.633,264.19,549.261L264.19,549.261z M267.548,560.187l-1.512-3.739 c-0.186-0.457-0.358-0.841-0.527-1.169c-0.171-0.337-0.361-0.65-0.564-0.925c-0.206-0.277-0.427-0.513-0.654-0.699 c-0.153-0.128-0.318-0.244-0.494-0.343c0.386-0.154,0.744-0.337,1.064-0.54c0.407-0.257,0.763-0.571,1.064-0.929 c0.296-0.36,0.525-0.776,0.68-1.24c0.157-0.473,0.236-1.002,0.236-1.577c0-0.597-0.087-1.155-0.262-1.654 c-0.17-0.494-0.437-0.947-0.789-1.342c-0.347-0.386-0.783-0.71-1.3-0.964c-0.506-0.248-1.087-0.43-1.773-0.552 c-0.186-0.021-0.384-0.039-0.603-0.06l-0.163-0.015c-0.284-0.023-0.635-0.034-1.075-0.034h-3.581 c-0.227,0-0.446,0.08-0.655,0.235c-0.211,0.163-0.319,0.44-0.319,0.827V561.2c0,0.095,0.024,0.186,0.073,0.255 c0.05,0.082,0.138,0.145,0.25,0.184c0.094,0.036,0.212,0.062,0.375,0.087c0.145,0.021,0.328,0.034,0.562,0.034 c0.23,0,0.415-0.009,0.562-0.031c0.167-0.027,0.284-0.054,0.364-0.086c0.109-0.04,0.195-0.103,0.249-0.176 c0.059-0.074,0.087-0.165,0.087-0.267v-7.093h1.356c0.495,0,0.919,0.072,1.261,0.217c0.357,0.154,0.654,0.355,0.905,0.614 c0.262,0.27,0.49,0.589,0.67,0.948c0.19,0.367,0.373,0.772,0.562,1.24l1.548,3.994c0.035,0.113,0.081,0.221,0.139,0.302 c0.063,0.091,0.147,0.161,0.261,0.213c0.099,0.044,0.228,0.08,0.385,0.098c0.137,0.018,0.312,0.026,0.572,0.026 c0.297,0,0.498-0.009,0.645-0.026c0.177-0.018,0.309-0.05,0.397-0.088c0.125-0.05,0.208-0.117,0.247-0.2 c0.036-0.068,0.053-0.15,0.053-0.245c0-0.083-0.019-0.192-0.057-0.335C267.75,560.729,267.667,560.493,267.548,560.187 L267.548,560.187z" clip-path="url(#SVGID_4_)"/><path fill="#FFF" d="M413.339,553.632c-0.373-0.373-0.797-0.698-1.258-0.968 c-0.496-0.283-0.96-0.525-1.416-0.74l-0.105-0.048c-0.428-0.201-0.875-0.408-1.301-0.616c-0.448-0.213-0.856-0.45-1.212-0.705 c-0.338-0.248-0.619-0.538-0.831-0.866c-0.203-0.321-0.299-0.697-0.299-1.149c0-0.313,0.05-0.596,0.158-0.862 c0.106-0.274,0.264-0.505,0.468-0.698c0.227-0.206,0.504-0.365,0.823-0.473c0.326-0.125,0.723-0.187,1.173-0.187 c0.48,0,0.923,0.062,1.316,0.187c0.383,0.115,0.728,0.254,1.025,0.409c0.297,0.151,0.545,0.29,0.741,0.41 c0.232,0.141,0.395,0.202,0.525,0.202c0.092,0,0.173-0.026,0.253-0.092c0.072-0.062,0.119-0.145,0.151-0.248 c0.03-0.087,0.052-0.194,0.072-0.34c0.011-0.16,0.016-0.295,0.016-0.431c0-0.18-0.008-0.323-0.016-0.416 c0-0.103-0.016-0.201-0.04-0.299c-0.022-0.088-0.048-0.156-0.075-0.212c-0.039-0.069-0.106-0.143-0.194-0.236 c-0.096-0.093-0.281-0.212-0.547-0.352c-0.282-0.146-0.586-0.271-0.916-0.373c-0.337-0.113-0.693-0.201-1.087-0.271 c-0.398-0.067-0.787-0.102-1.147-0.102c-0.752,0-1.432,0.1-2.086,0.304c-0.643,0.2-1.205,0.496-1.672,0.884 c-0.476,0.395-0.838,0.868-1.105,1.448c-0.268,0.576-0.401,1.234-0.401,1.958c0,0.711,0.115,1.327,0.344,1.836 c0.227,0.508,0.528,0.956,0.897,1.333c0.365,0.379,0.782,0.708,1.238,0.98c0.451,0.274,0.927,0.529,1.412,0.754 c0.307,0.146,0.613,0.289,0.915,0.431l0.48,0.227c0.441,0.201,0.84,0.437,1.192,0.694c0.352,0.252,0.631,0.539,0.825,0.856 c0.206,0.328,0.311,0.721,0.311,1.162c0,0.418-0.076,0.802-0.224,1.135c-0.153,0.333-0.363,0.606-0.637,0.836 c-0.271,0.227-0.607,0.406-0.995,0.534c-0.389,0.128-0.809,0.188-1.291,0.188c-0.623,0-1.181-0.075-1.658-0.22 c-0.503-0.162-0.908-0.321-1.237-0.489c-0.347-0.172-0.621-0.328-0.836-0.478c-0.356-0.241-0.648-0.299-0.847-0.183 c-0.08,0.049-0.146,0.129-0.188,0.229c-0.042,0.093-0.072,0.21-0.089,0.352c-0.017,0.127-0.025,0.283-0.025,0.499 c0,0.296,0.025,0.521,0.076,0.687c0.049,0.179,0.135,0.33,0.252,0.462c0.112,0.113,0.292,0.244,0.569,0.407 c0.264,0.149,0.59,0.297,0.966,0.441c0.396,0.146,0.841,0.267,1.316,0.355c0.48,0.104,1.007,0.149,1.601,0.149 c0.824,0,1.597-0.11,2.298-0.335c0.728-0.228,1.338-0.559,1.872-1.004c0.532-0.44,0.953-0.995,1.245-1.63 c0.301-0.628,0.45-1.361,0.45-2.186c0-0.701-0.114-1.309-0.34-1.812C414.012,554.449,413.718,554.013,413.339,553.632 L413.339,553.632z" clip-path="url(#SVGID_4_)"/><path fill="#FFF" d="M458.575,549.261c0,0.398-0.064,0.767-0.193,1.096 c-0.124,0.333-0.318,0.612-0.592,0.854c-0.27,0.244-0.604,0.431-1.026,0.577c-0.412,0.138-0.911,0.208-1.484,0.208h-2.041v-5.438 h1.741c0.47,0,0.808,0.013,1.062,0.038c0.248,0.021,0.486,0.065,0.71,0.126c0.656,0.19,1.128,0.504,1.404,0.929 C458.436,548.086,458.575,548.626,458.575,549.261L458.575,549.261z M461.936,560.187l-1.508-3.739 c-0.187-0.458-0.361-0.844-0.529-1.172c-0.188-0.365-0.375-0.665-0.566-0.921c-0.199-0.272-0.417-0.507-0.649-0.702 c-0.152-0.126-0.318-0.24-0.497-0.341c0.392-0.155,0.749-0.34,1.064-0.54c0.406-0.257,0.764-0.568,1.062-0.929 c0.289-0.35,0.521-0.768,0.685-1.241c0.155-0.474,0.236-1.004,0.236-1.576c0-0.597-0.09-1.154-0.263-1.654 c-0.178-0.505-0.445-0.954-0.788-1.342c-0.356-0.391-0.796-0.715-1.307-0.964c-0.506-0.251-1.086-0.433-1.769-0.552 c-0.187-0.021-0.392-0.041-0.619-0.062l-0.148-0.013c-0.283-0.023-0.634-0.034-1.076-0.034h-3.578 c-0.228,0-0.449,0.08-0.652,0.234c-0.22,0.164-0.328,0.434-0.328,0.828V561.2c0,0.091,0.025,0.182,0.075,0.255 c0.051,0.082,0.139,0.145,0.25,0.184c0.1,0.039,0.217,0.062,0.375,0.087c0.147,0.021,0.333,0.034,0.561,0.034 c0.239,0,0.422-0.013,0.565-0.034c0.16-0.019,0.283-0.048,0.37-0.087c0.105-0.039,0.187-0.096,0.245-0.172 c0.063-0.074,0.091-0.168,0.091-0.267v-7.093h1.351c0.499,0,0.912,0.072,1.26,0.217c0.356,0.151,0.652,0.353,0.904,0.614 c0.256,0.263,0.479,0.573,0.673,0.948c0.18,0.346,0.358,0.74,0.562,1.24l1.543,4c0.045,0.124,0.094,0.224,0.142,0.292 c0.06,0.095,0.146,0.162,0.263,0.217c0.096,0.044,0.223,0.08,0.385,0.098c0.137,0.018,0.314,0.026,0.576,0.026 c0.3,0,0.495-0.009,0.635-0.026c0.179-0.018,0.311-0.047,0.401-0.088c0.119-0.046,0.197-0.108,0.248-0.2 c0.033-0.07,0.05-0.15,0.05-0.245c0-0.085-0.017-0.194-0.055-0.335C462.14,560.729,462.06,560.499,461.936,560.187 L461.936,560.187z" clip-path="url(#SVGID_4_)"/><path fill="#FFF" d="M445.724,544.448c-0.083-0.032-0.203-0.06-0.362-0.086 c-0.14-0.021-0.312-0.032-0.555-0.032c-0.25,0-0.423,0.011-0.556,0.032c-0.148,0.021-0.269,0.048-0.372,0.086 c-0.119,0.04-0.199,0.097-0.259,0.184c-0.055,0.088-0.08,0.169-0.08,0.26v10.384c0,0.754-0.088,1.411-0.263,1.95 c-0.183,0.551-0.444,1.017-0.781,1.382c-0.336,0.369-0.752,0.649-1.237,0.83c-0.481,0.185-1.046,0.28-1.684,0.28 c-0.632,0-1.177-0.096-1.661-0.287c-0.488-0.184-0.908-0.466-1.252-0.844c-0.338-0.365-0.607-0.841-0.794-1.413 c-0.187-0.567-0.281-1.246-0.281-2.016v-10.267c0-0.1-0.025-0.184-0.081-0.271c-0.056-0.078-0.137-0.133-0.244-0.173 c-0.093-0.035-0.216-0.062-0.368-0.086c-0.144-0.021-0.315-0.032-0.559-0.032c-0.263,0-0.436,0.011-0.568,0.032 c-0.145,0.024-0.264,0.051-0.361,0.086c-0.12,0.042-0.204,0.101-0.248,0.174c-0.055,0.078-0.08,0.166-0.08,0.27v10.541 c0,1.061,0.149,2.001,0.448,2.81c0.311,0.83,0.737,1.502,1.301,2.046c0.559,0.536,1.238,0.949,2.017,1.226 c0.768,0.277,1.64,0.417,2.586,0.417c1.026,0,1.958-0.149,2.766-0.441c0.821-0.296,1.525-0.734,2.089-1.305 c0.564-0.568,1.009-1.277,1.316-2.106c0.304-0.817,0.46-1.763,0.46-2.813v-10.373c0-0.096-0.029-0.181-0.088-0.271 C445.921,544.549,445.837,544.49,445.724,544.448L445.724,544.448z" clip-path="url(#SVGID_4_)"/><path fill="#FFF" d="M423.743,559.536h-3.109v-5.706h2.54c0.684,0,1.257,0.067,1.704,0.202 c0.441,0.126,0.811,0.315,1.103,0.563c0.297,0.258,0.519,0.565,0.663,0.919c0.15,0.369,0.23,0.804,0.23,1.287 c0,0.448-0.079,0.849-0.23,1.185c-0.164,0.348-0.374,0.623-0.648,0.851c-0.272,0.229-0.593,0.405-0.956,0.521 C424.657,559.477,424.22,559.536,423.743,559.536L423.743,559.536z M425.701,550.097c-0.1,0.318-0.261,0.604-0.482,0.851 c-0.207,0.233-0.491,0.429-0.833,0.58c-0.337,0.145-0.789,0.22-1.346,0.22h-2.405v-5.213h2.168c0.646,0,1.14,0.056,1.508,0.173 c0.372,0.118,0.663,0.28,0.891,0.5c0.221,0.21,0.389,0.475,0.496,0.788c0.108,0.31,0.163,0.669,0.163,1.069 C425.858,549.416,425.807,549.762,425.701,550.097L425.701,550.097z M428.513,553.728c-0.309-0.37-0.674-0.68-1.086-0.913 c-0.297-0.173-0.616-0.312-0.948-0.406c0.234-0.13,0.453-0.283,0.65-0.451c0.297-0.258,0.542-0.55,0.73-0.867 c0.199-0.332,0.343-0.68,0.44-1.055c0.097-0.377,0.146-0.78,0.146-1.192c0-0.691-0.112-1.319-0.332-1.867 c-0.227-0.548-0.566-1.021-1.016-1.406c-0.439-0.376-0.996-0.667-1.656-0.867c-0.662-0.198-1.506-0.297-2.514-0.297h-3.83 c-0.227,0-0.449,0.08-0.659,0.235c-0.21,0.163-0.316,0.441-0.316,0.827v15.153c0,0.387,0.105,0.664,0.316,0.827 c0.203,0.154,0.425,0.235,0.659,0.235h4.399c0.633,0,1.212-0.048,1.716-0.141c0.504-0.095,0.98-0.239,1.411-0.422 c0.441-0.191,0.844-0.428,1.19-0.701c0.344-0.274,0.643-0.59,0.906-0.977c0.253-0.371,0.445-0.781,0.589-1.255 c0.136-0.476,0.207-0.986,0.207-1.519c0-0.585-0.092-1.136-0.271-1.641C429.062,554.529,428.817,554.092,428.513,553.728 L428.513,553.728z" clip-path="url(#SVGID_4_)"/><path fill="#FFF" d="M478.371,546.174c-0.051-0.173-0.143-0.323-0.272-0.45 c-0.123-0.124-0.333-0.276-0.644-0.464c-0.318-0.187-0.702-0.358-1.136-0.508c-0.424-0.152-0.925-0.283-1.521-0.407 c-0.579-0.118-1.183-0.176-1.841-0.176c-1.256,0-2.423,0.219-3.47,0.648c-1.047,0.435-1.953,1.049-2.694,1.827 c-0.743,0.783-1.327,1.738-1.734,2.844c-0.408,1.108-0.615,2.357-0.615,3.717c0,1.303,0.192,2.503,0.566,3.566 c0.383,1.069,0.943,1.994,1.657,2.753c0.714,0.767,1.605,1.364,2.644,1.774c1.037,0.41,2.229,0.62,3.545,0.62 c0.422,0,0.851-0.024,1.309-0.079c0.448-0.059,0.888-0.139,1.305-0.244c0.421-0.104,0.831-0.228,1.252-0.382 c0.395-0.145,0.729-0.287,0.99-0.422c0.283-0.139,0.464-0.305,0.56-0.504c0.087-0.187,0.131-0.405,0.131-0.65v-6.474 c0-0.174-0.025-0.329-0.073-0.474c-0.056-0.147-0.125-0.257-0.22-0.341c-0.089-0.082-0.197-0.146-0.311-0.188 c-0.119-0.04-0.227-0.059-0.332-0.059h-5.358c-0.097,0-0.189,0.025-0.281,0.079c-0.076,0.062-0.136,0.146-0.172,0.212 c-0.045,0.088-0.078,0.19-0.104,0.339c-0.012,0.121-0.027,0.269-0.027,0.445c0,0.333,0.043,0.579,0.128,0.756 c0.122,0.25,0.314,0.304,0.456,0.304h3.77v4.725c-0.429,0.226-0.892,0.402-1.381,0.519c-0.549,0.127-1.057,0.186-1.555,0.186 c-0.848,0-1.64-0.146-2.362-0.435c-0.707-0.292-1.328-0.722-1.842-1.281c-0.509-0.559-0.92-1.259-1.216-2.079 c-0.291-0.823-0.44-1.779-0.44-2.838c0-0.965,0.139-1.858,0.405-2.659c0.268-0.815,0.654-1.524,1.149-2.106 c0.495-0.583,1.111-1.047,1.833-1.384c0.713-0.331,1.536-0.5,2.435-0.5c0.761,0,1.429,0.081,1.986,0.244 c0.566,0.165,1.052,0.351,1.445,0.544c0.411,0.202,0.724,0.381,0.962,0.544c0.271,0.187,0.458,0.271,0.61,0.271 c0.082,0,0.159-0.025,0.229-0.074c0.077-0.047,0.137-0.124,0.185-0.235c0.043-0.092,0.063-0.195,0.082-0.319l0.007-0.033 c0.02-0.122,0.029-0.265,0.029-0.464C478.442,546.561,478.418,546.345,478.371,546.174L478.371,546.174z" clip-path="url(#SVGID_4_)"/></g><path fill="#FFF" d="M382.706,544.448c-0.102-0.035-0.226-0.062-0.368-0.086c-0.143-0.021-0.318-0.032-0.565-0.032 c-0.237,0-0.403,0.011-0.536,0.032c-0.152,0.025-0.277,0.054-0.375,0.086c-0.125,0.041-0.209,0.097-0.261,0.174 c-0.063,0.087-0.093,0.174-0.093,0.27V561.2c0,0.102,0.028,0.188,0.08,0.255c0.046,0.078,0.134,0.141,0.248,0.184 c0.099,0.039,0.223,0.068,0.381,0.087c0.151,0.021,0.332,0.034,0.556,0.034c0.23,0,0.415-0.013,0.561-0.034 c0.161-0.024,0.281-0.048,0.372-0.083c0.11-0.043,0.2-0.103,0.248-0.176c0.069-0.09,0.079-0.19,0.079-0.267v-16.309 c0-0.081-0.009-0.176-0.075-0.268C382.906,544.549,382.822,544.489,382.706,544.448L382.706,544.448z"/><path fill="#FFF" d="M376.667,544.362c-0.143-0.021-0.339-0.032-0.64-0.032c-0.265,0-0.461,0.01-0.623,0.023 c-0.177,0.022-0.297,0.049-0.395,0.093c-0.12,0.052-0.199,0.13-0.236,0.229c-0.028,0.071-0.059,0.159-0.083,0.243l-3.594,13.753 l-3.741-13.739c-0.028-0.112-0.071-0.209-0.112-0.268c-0.046-0.092-0.129-0.164-0.254-0.221c-0.096-0.041-0.217-0.067-0.384-0.09 c-0.149-0.014-0.344-0.023-0.596-0.023c-0.272,0-0.485,0.01-0.649,0.023c-0.183,0.022-0.313,0.049-0.409,0.09 c-0.12,0.05-0.204,0.122-0.254,0.21c-0.054,0.084-0.085,0.184-0.115,0.28l-3.469,13.701l-3.649-13.719 c-0.019-0.102-0.048-0.187-0.092-0.284c-0.049-0.083-0.123-0.144-0.237-0.203c-0.093-0.04-0.225-0.066-0.401-0.079 c-0.158-0.013-0.379-0.02-0.651-0.02c-0.292,0-0.511,0.01-0.676,0.023c-0.201,0.023-0.345,0.071-0.438,0.153 c-0.076,0.062-0.168,0.179-0.156,0.376c0.004,0.122,0.038,0.29,0.086,0.506l4.457,15.681c0.028,0.145,0.085,0.266,0.167,0.354 c0.075,0.099,0.186,0.168,0.341,0.22c0.128,0.041,0.297,0.073,0.502,0.091c0.171,0.018,0.397,0.026,0.729,0.026 c0.324,0,0.537-0.009,0.7-0.026c0.191-0.018,0.347-0.05,0.469-0.091c0.14-0.052,0.248-0.125,0.32-0.217 c0.075-0.094,0.131-0.21,0.163-0.35l3.134-12.359l3.398,12.366c0.04,0.131,0.102,0.249,0.173,0.343 c0.082,0.099,0.188,0.168,0.34,0.217c0.132,0.041,0.291,0.073,0.492,0.091c0.174,0.018,0.392,0.026,0.7,0.026 c0.296,0,0.504-0.009,0.672-0.026c0.189-0.018,0.352-0.05,0.479-0.091c0.149-0.049,0.263-0.118,0.344-0.209 c0.079-0.083,0.141-0.199,0.193-0.354l4.464-15.688c0.048-0.223,0.075-0.379,0.078-0.5c0-0.16-0.047-0.282-0.146-0.368 C376.978,544.441,376.847,544.389,376.667,544.362L376.667,544.362z"/><path fill="#FFF" d="M344.261,559.507h-2.165V546.57h2.137c1.138,0,2.081,0.16,2.799,0.475c0.711,0.311,1.308,0.75,1.777,1.311 c0.465,0.557,0.812,1.233,1.03,2.004c0.223,0.779,0.335,1.63,0.335,2.53c0,1.133-0.123,2.125-0.363,2.955 c-0.247,0.828-0.613,1.522-1.088,2.058c-0.477,0.539-1.079,0.943-1.793,1.205C346.21,559.374,345.314,559.507,344.261,559.507 L344.261,559.507z M350.699,546.665c-0.699-0.732-1.568-1.296-2.585-1.678c-1.027-0.388-2.287-0.582-3.747-0.582h-3.818 c-0.225,0-0.448,0.08-0.656,0.235c-0.213,0.163-0.317,0.44-0.317,0.827v15.153c0,0.387,0.105,0.664,0.317,0.827 c0.201,0.154,0.422,0.235,0.656,0.235h3.569c1.452,0,2.718-0.185,3.769-0.548c1.062-0.366,1.965-0.922,2.693-1.652 c0.729-0.741,1.292-1.68,1.671-2.789c0.375-1.109,0.565-2.421,0.565-3.899c0-1.285-0.18-2.457-0.533-3.489 C351.928,548.28,351.393,547.39,350.699,546.665L350.699,546.665z"/><path fill="#FFF" d="M400.426,545.725c-0.108-0.113-0.312-0.264-0.643-0.465c-0.316-0.184-0.697-0.356-1.136-0.508 c-0.432-0.154-0.931-0.285-1.522-0.407c-0.568-0.115-1.187-0.176-1.843-0.176c-1.254,0-2.423,0.22-3.473,0.648 c-1.041,0.436-1.946,1.049-2.691,1.827c-0.75,0.791-1.333,1.747-1.736,2.844c-0.408,1.108-0.615,2.357-0.615,3.717 c0,1.296,0.192,2.496,0.569,3.566c0.376,1.057,0.931,1.982,1.652,2.753c0.716,0.767,1.609,1.364,2.649,1.774 c1.04,0.413,2.233,0.62,3.547,0.62c0.417,0,0.857-0.024,1.307-0.079c0.444-0.059,0.872-0.133,1.306-0.244 c0.42-0.104,0.839-0.23,1.252-0.382c0.405-0.152,0.737-0.295,0.984-0.422c0.284-0.139,0.468-0.305,0.565-0.504 c0.088-0.187,0.132-0.405,0.132-0.65v-6.474c0-0.165-0.025-0.321-0.072-0.474c-0.055-0.146-0.128-0.255-0.227-0.344 c-0.092-0.083-0.197-0.144-0.305-0.186c-0.117-0.04-0.228-0.059-0.336-0.059h-5.351c-0.102,0-0.193,0.025-0.285,0.077 c-0.078,0.059-0.129,0.138-0.172,0.214c-0.048,0.092-0.081,0.201-0.1,0.333c-0.018,0.139-0.027,0.285-0.027,0.451 c0,0.334,0.04,0.583,0.123,0.757c0.099,0.197,0.257,0.303,0.461,0.303h3.765v4.725c-0.424,0.226-0.887,0.398-1.377,0.519 c-0.549,0.127-1.057,0.186-1.555,0.186c-0.849,0-1.644-0.146-2.363-0.435c-0.706-0.29-1.327-0.722-1.844-1.281 c-0.523-0.562-0.93-1.263-1.213-2.079c-0.292-0.819-0.441-1.772-0.441-2.838c0-0.96,0.137-1.855,0.403-2.659 c0.268-0.817,0.656-1.528,1.156-2.106c0.495-0.586,1.108-1.05,1.826-1.384c0.716-0.331,1.535-0.5,2.437-0.5 c0.756,0,1.424,0.081,1.984,0.244c0.565,0.165,1.039,0.345,1.444,0.544c0.404,0.197,0.719,0.375,0.964,0.544 c0.273,0.187,0.462,0.268,0.617,0.268c0.082,0,0.156-0.022,0.224-0.07c0.09-0.058,0.146-0.151,0.193-0.244 c0.03-0.09,0.06-0.204,0.085-0.35c0.018-0.138,0.027-0.29,0.027-0.458c0-0.286-0.024-0.51-0.072-0.688 C400.646,545.998,400.553,545.842,400.426,545.725L400.426,545.725z"/><path fill="#FFF" d="M328.627,515.333c-0.1-0.035-0.229-0.065-0.392-0.089c-0.168-0.022-0.371-0.035-0.593-0.035 c-0.21,0-0.401,0.011-0.569,0.035c-0.159,0.023-0.291,0.053-0.395,0.088c-0.116,0.034-0.198,0.088-0.254,0.16 c-0.051,0.069-0.077,0.149-0.077,0.237v17.163c0,0.102,0.036,0.183,0.07,0.24c0.052,0.068,0.128,0.121,0.239,0.157 c0.103,0.035,0.236,0.065,0.398,0.089c0.164,0.024,0.367,0.036,0.588,0.036c0.227,0,0.432-0.012,0.593-0.036 c0.163-0.024,0.292-0.054,0.39-0.089c0.115-0.038,0.193-0.092,0.234-0.16c0.049-0.068,0.075-0.149,0.075-0.237v-17.163 c0-0.088-0.025-0.168-0.072-0.232C328.817,515.426,328.738,515.368,328.627,515.333L328.627,515.333z"/><g><defs><polygon id="SVGID_5_" points="241.655 561.919 478.351 561.919 478.351 515.043 241.655 515.043 241.655 561.919"/></defs><clipPath id="SVGID_6_"><use overflow="visible" xlink:href="#SVGID_5_"/></clipPath><path fill="#FFF" d="M299.019,520.333c0,0.422-0.073,0.816-0.217,1.171 c-0.137,0.352-0.358,0.665-0.657,0.929c-0.309,0.269-0.681,0.473-1.137,0.619c-0.461,0.151-1.01,0.228-1.63,0.228h-2.289v-5.864 h1.967c0.465,0,0.855,0.014,1.154,0.039c0.272,0.026,0.536,0.071,0.783,0.136c0.728,0.206,1.254,0.546,1.561,1.008 C298.86,519.068,299.019,519.652,299.019,520.333L299.019,520.333z M302.513,531.85l-1.637-3.935 c-0.183-0.438-0.371-0.851-0.567-1.222c-0.188-0.362-0.392-0.687-0.606-0.966c-0.213-0.279-0.449-0.524-0.697-0.73 c-0.203-0.158-0.421-0.299-0.653-0.414c0.467-0.172,0.897-0.38,1.277-0.618c0.445-0.275,0.816-0.592,1.136-0.964 c0.321-0.377,0.564-0.809,0.728-1.28c0.168-0.486,0.248-1.022,0.248-1.64c0-0.62-0.092-1.197-0.277-1.717 c-0.191-0.524-0.467-0.978-0.84-1.389c-0.381-0.408-0.847-0.744-1.387-0.998c-0.546-0.261-1.18-0.454-1.893-0.575 c-0.267-0.029-0.545-0.054-0.827-0.073c-0.324-0.025-0.713-0.037-1.152-0.037h-3.881c-0.231,0-0.453,0.076-0.661,0.229 c-0.212,0.157-0.321,0.432-0.321,0.818v16.553c0,0.082,0.027,0.166,0.071,0.239c0.051,0.069,0.129,0.122,0.241,0.158 c0.097,0.035,0.229,0.065,0.388,0.089c0.165,0.024,0.365,0.036,0.593,0.036c0.23,0,0.437-0.012,0.599-0.036 c0.16-0.024,0.289-0.054,0.38-0.089c0.106-0.036,0.187-0.089,0.232-0.154c0.053-0.066,0.081-0.151,0.081-0.243v-7.535h1.545 c0.532,0,1.002,0.08,1.392,0.237c0.383,0.157,0.72,0.378,1,0.658c0.288,0.287,0.537,0.628,0.74,1.016 c0.206,0.392,0.411,0.832,0.611,1.312l1.674,4.211c0.039,0.113,0.085,0.211,0.144,0.298c0.06,0.084,0.143,0.15,0.252,0.2 c0.112,0.045,0.245,0.077,0.397,0.094c0.155,0.021,0.354,0.031,0.611,0.031c0.285,0,0.512-0.011,0.685-0.031 c0.172-0.017,0.312-0.048,0.407-0.087c0.119-0.041,0.196-0.101,0.232-0.174c0.033-0.064,0.052-0.143,0.052-0.23 c0-0.08-0.019-0.184-0.06-0.334C302.74,532.462,302.668,532.242,302.513,531.85L302.513,531.85z" clip-path="url(#SVGID_6_)"/><path fill="#FFF" d="M320.525,516.653c-0.128-0.128-0.353-0.283-0.687-0.474 c-0.333-0.193-0.741-0.373-1.212-0.53c-0.471-0.16-1.021-0.304-1.638-0.427c-0.622-0.121-1.285-0.181-1.976-0.181 c-1.357,0-2.61,0.228-3.727,0.68c-1.112,0.442-2.084,1.081-2.886,1.9c-0.8,0.812-1.427,1.811-1.868,2.971 c-0.438,1.155-0.658,2.462-0.658,3.884c0,1.357,0.203,2.614,0.609,3.729c0.402,1.104,1,2.071,1.773,2.874 c0.772,0.799,1.726,1.424,2.842,1.851c1.106,0.43,2.383,0.646,3.806,0.646c0.486,0,0.944-0.025,1.404-0.08 c0.51-0.062,0.969-0.146,1.399-0.253c0.491-0.117,0.932-0.249,1.348-0.402c0.455-0.163,0.801-0.306,1.066-0.438 c0.293-0.145,0.481-0.311,0.572-0.501c0.091-0.18,0.138-0.401,0.138-0.656v-6.813c0-0.178-0.024-0.331-0.076-0.468 c-0.051-0.14-0.125-0.255-0.22-0.338c-0.096-0.083-0.199-0.146-0.308-0.182c-0.111-0.038-0.224-0.06-0.336-0.06h-5.792 c-0.099,0-0.184,0.022-0.255,0.067c-0.064,0.041-0.12,0.106-0.173,0.201c-0.052,0.096-0.088,0.212-0.101,0.333 c-0.021,0.134-0.031,0.288-0.031,0.459c0,0.352,0.042,0.604,0.129,0.771c0.093,0.182,0.236,0.276,0.431,0.276h4.147v5.084 c-0.486,0.252-1.009,0.444-1.549,0.569c-0.568,0.131-1.139,0.199-1.697,0.199c-0.932,0-1.804-0.156-2.583-0.462 c-0.78-0.311-1.458-0.769-2.021-1.361c-0.565-0.602-1.015-1.348-1.333-2.215c-0.317-0.876-0.479-1.891-0.479-3.014 c0-1.016,0.15-1.963,0.444-2.819c0.288-0.857,0.712-1.613,1.256-2.241c0.541-0.619,1.214-1.111,2.003-1.468 c0.785-0.353,1.684-0.531,2.67-0.531c0.841,0,1.573,0.088,2.17,0.262c0.61,0.171,1.143,0.364,1.574,0.573 c0.412,0.195,0.764,0.387,1.047,0.574c0.287,0.188,0.477,0.275,0.608,0.275c0.079,0,0.157-0.021,0.229-0.068 c0.073-0.051,0.131-0.127,0.168-0.222c0.043-0.087,0.069-0.195,0.091-0.351c0.02-0.144,0.031-0.299,0.031-0.477 c0-0.289-0.025-0.525-0.076-0.701C320.748,516.933,320.657,516.781,320.525,516.653L320.525,516.653z" clip-path="url(#SVGID_6_)"/></g><path fill="#FFF" d="M344.769,531.461c-0.057-0.096-0.116-0.157-0.19-0.2c-0.071-0.045-0.149-0.065-0.243-0.065h-7.15v-6.24 h6.034c0.086,0,0.169-0.018,0.245-0.055c0.071-0.041,0.133-0.102,0.188-0.188c0.045-0.083,0.078-0.185,0.099-0.321 c0.019-0.11,0.025-0.25,0.025-0.439c0-0.195-0.007-0.345-0.025-0.469c-0.021-0.145-0.053-0.25-0.101-0.33 c-0.048-0.085-0.107-0.15-0.179-0.201c-0.079-0.051-0.166-0.076-0.252-0.076h-6.034v-5.446h7.05c0.087,0,0.162-0.021,0.247-0.067 c0.078-0.046,0.137-0.115,0.179-0.209c0.044-0.089,0.078-0.202,0.096-0.32c0.026-0.132,0.04-0.287,0.04-0.451 c0-0.187-0.014-0.348-0.04-0.473c-0.019-0.128-0.052-0.244-0.095-0.334c-0.048-0.104-0.108-0.179-0.184-0.219 c-0.081-0.044-0.156-0.063-0.243-0.063h-8.653c-0.234,0-0.452,0.074-0.663,0.229c-0.213,0.157-0.321,0.432-0.321,0.818v15.94 c0,0.386,0.108,0.66,0.321,0.82c0.209,0.153,0.425,0.229,0.663,0.229h8.753c0.091,0,0.17-0.023,0.24-0.066 c0.072-0.038,0.131-0.101,0.197-0.208c0.051-0.096,0.085-0.207,0.107-0.339c0.02-0.128,0.029-0.278,0.029-0.448 c0-0.183-0.009-0.344-0.029-0.472C344.858,531.657,344.819,531.546,344.769,531.461L344.769,531.461z"/><path fill="#FFF" d="M252.041,531.465c-0.048-0.084-0.111-0.152-0.19-0.204c-0.071-0.045-0.154-0.065-0.249-0.065h-7.146v-6.24 h6.035c0.087,0,0.167-0.018,0.241-0.055c0.072-0.04,0.132-0.098,0.185-0.188c0.049-0.083,0.082-0.189,0.102-0.321 c0.02-0.114,0.031-0.264,0.031-0.439c0-0.184-0.01-0.337-0.03-0.469c-0.021-0.141-0.054-0.249-0.103-0.329 c-0.05-0.09-0.109-0.155-0.178-0.202c-0.077-0.051-0.16-0.076-0.248-0.076h-6.035v-5.446h7.05c0.087,0,0.169-0.022,0.246-0.067 c0.072-0.046,0.132-0.115,0.182-0.212c0.038-0.088,0.07-0.199,0.093-0.316c0.026-0.124,0.037-0.271,0.037-0.452 c0-0.202-0.011-0.359-0.037-0.475c-0.022-0.126-0.054-0.24-0.096-0.337c-0.05-0.103-0.112-0.173-0.182-0.213 c-0.073-0.042-0.155-0.064-0.243-0.064h-8.656c-0.233,0-0.457,0.076-0.66,0.229c-0.213,0.157-0.321,0.432-0.321,0.818v15.94 c0,0.386,0.106,0.66,0.319,0.819c0.203,0.15,0.426,0.229,0.662,0.229h8.752c0.091,0,0.176-0.023,0.249-0.067 c0.073-0.045,0.138-0.115,0.19-0.207c0.05-0.096,0.086-0.21,0.106-0.339c0.021-0.122,0.03-0.269,0.03-0.448 c0-0.192-0.01-0.348-0.03-0.474C252.126,531.659,252.089,531.546,252.041,531.465L252.041,531.465z"/><path fill="#FFF" d="M270.151,515.372c-0.094-0.04-0.221-0.071-0.392-0.095c-0.161-0.02-0.35-0.028-0.579-0.028 c-0.255,0-0.456,0.009-0.61,0.028c-0.164,0.023-0.292,0.055-0.396,0.095c-0.101,0.047-0.181,0.105-0.233,0.176 c-0.048,0.073-0.072,0.146-0.072,0.22v9.701c0,0.701,0.002,1.423,0.005,2.176l0.001,0.101c0.004,0.668,0.016,1.32,0.029,1.947 l-0.021-0.038c-0.166-0.324-0.331-0.646-0.496-0.968c-0.222-0.427-0.447-0.862-0.672-1.305c-0.188-0.359-0.377-0.72-0.571-1.088 l-0.138-0.26c-0.175-0.324-0.358-0.656-0.541-0.993l-4.5-8.257c-0.166-0.305-0.313-0.54-0.449-0.721 c-0.152-0.2-0.301-0.351-0.456-0.458c-0.161-0.116-0.344-0.198-0.537-0.245c-0.196-0.046-0.441-0.068-0.727-0.068h-1.188 c-0.269,0-0.522,0.084-0.749,0.25c-0.232,0.173-0.351,0.461-0.351,0.853v16.498c0,0.081,0.023,0.159,0.069,0.228 c0.049,0.076,0.126,0.134,0.234,0.17c0.094,0.035,0.222,0.065,0.381,0.089c0.162,0.024,0.364,0.036,0.598,0.036 c0.236,0,0.438-0.012,0.602-0.036c0.154-0.023,0.284-0.054,0.385-0.089c0.113-0.036,0.191-0.092,0.243-0.17 c0.046-0.071,0.07-0.15,0.07-0.228V522.1c0-0.784-0.004-1.439-0.013-2.06c-0.008-0.623-0.021-1.186-0.033-1.713 c0.205,0.433,0.433,0.893,0.691,1.398c0.273,0.528,0.561,1.068,0.88,1.651l5.563,10.171c0.193,0.357,0.375,0.66,0.547,0.893 c0.18,0.242,0.354,0.425,0.527,0.559c0.173,0.143,0.365,0.238,0.567,0.294c0.199,0.053,0.428,0.08,0.681,0.08h0.806 c0.127,0,0.261-0.021,0.397-0.061c0.139-0.036,0.266-0.102,0.375-0.194c0.113-0.093,0.199-0.206,0.265-0.342 c0.071-0.138,0.105-0.304,0.105-0.509v-16.5c0-0.076-0.024-0.149-0.077-0.223C270.328,515.477,270.25,515.417,270.151,515.372 L270.151,515.372z"/><path fill="#FFF" d="M286.145,531.465c-0.049-0.091-0.112-0.158-0.189-0.204c-0.069-0.045-0.152-0.065-0.244-0.065h-7.15v-6.24 h6.037c0.088,0,0.17-0.019,0.24-0.055c0.076-0.041,0.14-0.104,0.187-0.188c0.046-0.082,0.083-0.186,0.105-0.323 c0.018-0.126,0.027-0.277,0.027-0.438c0-0.167-0.009-0.323-0.027-0.469c-0.022-0.146-0.059-0.251-0.104-0.327 c-0.044-0.083-0.106-0.153-0.181-0.203c-0.072-0.052-0.157-0.077-0.247-0.077h-6.037v-5.446h7.052 c0.084,0,0.162-0.021,0.247-0.067c0.076-0.049,0.134-0.12,0.176-0.21c0.041-0.085,0.075-0.197,0.096-0.319 c0.028-0.134,0.042-0.288,0.042-0.451c0-0.184-0.013-0.349-0.04-0.475c-0.021-0.128-0.056-0.244-0.097-0.335 c-0.045-0.099-0.106-0.173-0.182-0.216c-0.08-0.042-0.157-0.063-0.241-0.063h-8.653c-0.232,0-0.455,0.076-0.659,0.229 c-0.215,0.153-0.324,0.43-0.324,0.818v15.94c0,0.393,0.105,0.66,0.321,0.819c0.208,0.154,0.424,0.229,0.663,0.229h8.751 c0.09,0,0.172-0.023,0.241-0.066c0.075-0.041,0.139-0.11,0.192-0.204c0.057-0.1,0.093-0.217,0.108-0.341 c0.02-0.117,0.029-0.265,0.029-0.45c0-0.2-0.009-0.353-0.028-0.471C286.237,531.664,286.201,531.546,286.145,531.465 L286.145,531.465z"/><path fill="#FFF" d="M407.254,531.461c-0.053-0.091-0.115-0.154-0.188-0.198c-0.069-0.047-0.15-0.067-0.25-0.067h-7.148v-6.24 h6.041c0.084,0,0.166-0.018,0.239-0.055c0.073-0.038,0.133-0.098,0.188-0.19c0.048-0.094,0.083-0.2,0.101-0.319 c0.02-0.123,0.031-0.271,0.031-0.439c0-0.173-0.011-0.329-0.029-0.469c-0.02-0.127-0.055-0.239-0.104-0.329 c-0.052-0.091-0.106-0.155-0.18-0.202c-0.077-0.051-0.161-0.076-0.245-0.076h-6.041v-5.446h7.052c0.085,0,0.169-0.021,0.256-0.069 c0.069-0.051,0.13-0.123,0.172-0.208c0.037-0.082,0.071-0.191,0.093-0.319c0.027-0.135,0.04-0.29,0.04-0.451 c0-0.181-0.013-0.347-0.04-0.475c-0.022-0.135-0.056-0.248-0.093-0.335c-0.044-0.094-0.109-0.17-0.181-0.216 c-0.078-0.042-0.162-0.063-0.247-0.063h-8.652c-0.236,0-0.46,0.076-0.661,0.229c-0.213,0.155-0.319,0.431-0.319,0.818v15.94 c0,0.386,0.105,0.66,0.317,0.819c0.203,0.15,0.425,0.229,0.663,0.229h8.748c0.095,0,0.181-0.023,0.247-0.066 c0.072-0.041,0.136-0.106,0.196-0.208c0.049-0.096,0.085-0.21,0.108-0.339c0.017-0.115,0.026-0.257,0.026-0.448 c0-0.203-0.009-0.354-0.029-0.474C407.344,531.659,407.305,531.548,407.254,531.461L407.254,531.461z"/><path fill="#FFF" d="M460.366,515.334c-0.095-0.037-0.224-0.066-0.385-0.09c-0.171-0.024-0.364-0.035-0.581-0.035 c-0.224,0-0.428,0.011-0.599,0.035c-0.159,0.023-0.29,0.054-0.384,0.088c-0.11,0.034-0.188,0.088-0.24,0.161 c-0.047,0.068-0.073,0.146-0.073,0.236v10.931c0,0.774-0.098,1.474-0.296,2.074c-0.204,0.594-0.491,1.091-0.857,1.477 c-0.375,0.398-0.832,0.697-1.364,0.888c-0.533,0.2-1.156,0.301-1.853,0.301c-0.679,0-1.278-0.101-1.825-0.308 c-0.529-0.191-0.992-0.497-1.381-0.902c-0.381-0.4-0.673-0.91-0.875-1.513c-0.203-0.6-0.305-1.319-0.305-2.141v-10.807 c0-0.088-0.024-0.167-0.069-0.233c-0.048-0.071-0.125-0.128-0.23-0.163c-0.1-0.036-0.229-0.065-0.388-0.089 c-0.173-0.022-0.376-0.035-0.586-0.035c-0.244,0-0.447,0.011-0.608,0.035c-0.152,0.023-0.277,0.052-0.38,0.088 c-0.115,0.036-0.192,0.091-0.235,0.159c-0.052,0.068-0.079,0.148-0.079,0.238v11.094c0,1.095,0.164,2.082,0.488,2.934 c0.322,0.847,0.792,1.56,1.388,2.121c0.593,0.561,1.321,0.993,2.157,1.284c0.831,0.284,1.763,0.429,2.774,0.429 c1.104,0,2.104-0.154,2.974-0.458c0.859-0.301,1.606-0.757,2.228-1.358c0.604-0.592,1.076-1.329,1.405-2.194 c0.325-0.846,0.488-1.835,0.488-2.936v-10.915c0-0.097-0.024-0.176-0.076-0.238C460.543,515.419,460.466,515.366,460.366,515.334 L460.366,515.334z"/><path fill="#FFF" d="M443.153,515.566c-0.044-0.073-0.101-0.162-0.187-0.211c-0.08-0.042-0.16-0.063-0.248-0.063h-12.684 c-0.088,0-0.165,0.021-0.243,0.064c-0.075,0.041-0.136,0.117-0.181,0.218c-0.039,0.088-0.071,0.203-0.097,0.345 c-0.027,0.143-0.038,0.302-0.038,0.476s0.011,0.332,0.038,0.47c0.026,0.131,0.059,0.242,0.099,0.331 c0.042,0.091,0.101,0.16,0.18,0.208c0.072,0.042,0.155,0.063,0.243,0.063h5.053v15.426c0,0.091,0.022,0.172,0.068,0.239 c0.052,0.072,0.129,0.124,0.239,0.158c0.106,0.037,0.235,0.065,0.394,0.089c0.176,0.024,0.373,0.036,0.588,0.036 c0.233,0,0.432-0.012,0.598-0.036c0.162-0.023,0.291-0.054,0.391-0.089c0.109-0.036,0.186-0.089,0.236-0.158 c0.046-0.067,0.07-0.151,0.07-0.239v-15.426h5.047c0.092,0,0.172-0.021,0.251-0.063c0.069-0.042,0.126-0.106,0.185-0.206 c0.044-0.086,0.075-0.195,0.097-0.339c0.018-0.122,0.025-0.274,0.025-0.464c0-0.19-0.008-0.346-0.026-0.475 C443.229,515.771,443.199,515.657,443.153,515.566L443.153,515.566z"/><path fill="#FFF" d="M474.541,520.333c0,0.433-0.072,0.815-0.213,1.171c-0.14,0.354-0.361,0.667-0.661,0.929 c-0.301,0.265-0.683,0.473-1.132,0.619c-0.462,0.151-1.015,0.228-1.636,0.228h-2.287v-5.864h1.967c0.464,0,0.852,0.014,1.15,0.039 c0.277,0.026,0.544,0.073,0.785,0.136c0.729,0.206,1.254,0.546,1.559,1.008C474.382,519.064,474.541,519.648,474.541,520.333 L474.541,520.333z M478.292,532.557c-0.042-0.134-0.122-0.367-0.257-0.707l-1.634-3.935c-0.199-0.479-0.383-0.878-0.564-1.222 c-0.193-0.365-0.4-0.69-0.611-0.966c-0.209-0.276-0.445-0.521-0.698-0.73c-0.2-0.158-0.419-0.299-0.652-0.414 c0.468-0.173,0.898-0.382,1.278-0.618c0.441-0.271,0.811-0.586,1.134-0.964c0.32-0.377,0.563-0.809,0.727-1.28 c0.169-0.489,0.252-1.024,0.252-1.64c0-0.616-0.093-1.193-0.281-1.717c-0.187-0.521-0.462-0.975-0.84-1.389 c-0.376-0.407-0.841-0.744-1.381-0.998c-0.563-0.266-1.179-0.454-1.896-0.575c-0.261-0.029-0.54-0.053-0.826-0.073 c-0.324-0.025-0.715-0.037-1.157-0.037h-3.875c-0.236,0-0.452,0.074-0.664,0.23c-0.209,0.156-0.319,0.431-0.319,0.817v16.553 c0,0.092,0.025,0.175,0.071,0.234c0.045,0.072,0.122,0.127,0.237,0.163c0.102,0.035,0.232,0.065,0.389,0.089 c0.164,0.024,0.367,0.036,0.599,0.036c0.228,0,0.432-0.012,0.595-0.036c0.157-0.023,0.281-0.052,0.38-0.089 c0.103-0.033,0.177-0.082,0.239-0.157c0.049-0.068,0.076-0.152,0.076-0.24v-7.535h1.544c0.533,0,1.001,0.08,1.389,0.237 c0.385,0.155,0.721,0.377,1.004,0.658c0.285,0.287,0.537,0.627,0.737,1.016c0.19,0.354,0.387,0.772,0.615,1.312l1.671,4.211 c0.036,0.103,0.079,0.194,0.142,0.302c0.069,0.085,0.153,0.15,0.258,0.196c0.112,0.045,0.244,0.077,0.392,0.094 c0.152,0.021,0.357,0.031,0.611,0.031c0.291,0,0.513-0.011,0.685-0.031c0.169-0.017,0.309-0.048,0.411-0.087 c0.12-0.041,0.197-0.101,0.232-0.179c0.032-0.066,0.048-0.145,0.048-0.226C478.351,532.816,478.335,532.72,478.292,532.557 L478.292,532.557z"/><path fill="#FFF" d="M355.712,524.211c-0.045-0.086-0.106-0.15-0.193-0.199c-0.069-0.029-0.152-0.046-0.243-0.046h-5.888 c-0.193,0-0.344,0.083-0.447,0.247c-0.097,0.154-0.143,0.406-0.143,0.772s0.045,0.622,0.143,0.782 c0.1,0.167,0.253,0.252,0.447,0.252h5.888c0.187,0,0.332-0.082,0.439-0.247c0.094-0.147,0.14-0.407,0.14-0.787 c0-0.168-0.013-0.324-0.039-0.455C355.79,524.396,355.755,524.292,355.712,524.211L355.712,524.211z"/><path fill="#FFF" d="M369.457,526.58h-6.111l3.037-8.609L369.457,526.58L369.457,526.58z M368.201,515.77 c-0.037-0.086-0.09-0.197-0.174-0.279c-0.076-0.08-0.179-0.141-0.315-0.182c-0.12-0.038-0.271-0.062-0.502-0.081 c-0.197-0.013-0.449-0.019-0.749-0.019c-0.281,0-0.519,0.006-0.704,0.019c-0.213,0.019-0.354,0.043-0.476,0.082 c-0.137,0.046-0.233,0.105-0.292,0.173c-0.072,0.069-0.126,0.161-0.164,0.279l-6.119,16.604c-0.084,0.223-0.125,0.39-0.128,0.52 c-0.004,0.145,0.035,0.254,0.128,0.344c0.09,0.077,0.225,0.127,0.412,0.15c0.184,0.024,0.411,0.036,0.676,0.036 c0.272,0,0.486-0.011,0.654-0.031c0.16-0.017,0.293-0.049,0.404-0.095c0.095-0.045,0.172-0.102,0.235-0.178 c0.053-0.068,0.096-0.152,0.121-0.236l1.476-4.243h7.468l1.548,4.306c0.033,0.076,0.077,0.153,0.128,0.221 c0.051,0.066,0.128,0.12,0.232,0.157c0.099,0.039,0.236,0.063,0.416,0.075c0.203,0.016,0.44,0.024,0.708,0.024 c0.296,0,0.525-0.011,0.702-0.031c0.192-0.019,0.332-0.068,0.417-0.144c0.095-0.078,0.141-0.195,0.137-0.344 c-0.004-0.13-0.045-0.293-0.129-0.519L368.201,515.77L368.201,515.77z"/><g><defs><polygon id="SVGID_7_" points="241.655 561.919 478.351 561.919 478.351 515.043 241.655 515.043 241.655 561.919"/></defs><clipPath id="SVGID_8_"><use overflow="visible" xlink:href="#SVGID_7_"/></clipPath><path fill="#FFF" d="M425.655,515.372c-0.083-0.037-0.213-0.07-0.387-0.095 c-0.166-0.02-0.354-0.028-0.579-0.028c-0.259,0-0.464,0.009-0.615,0.028c-0.159,0.022-0.289,0.054-0.392,0.095 c-0.103,0.043-0.184,0.104-0.234,0.174c-0.051,0.075-0.076,0.148-0.076,0.222v9.701c0,0.731,0.005,1.485,0.012,2.274 c0,0.631,0.005,1.285,0.022,1.945c-0.168-0.334-0.341-0.671-0.512-1.004c-0.179-0.336-0.354-0.676-0.535-1.022l-0.146-0.28 c-0.227-0.449-0.47-0.913-0.704-1.348c-0.246-0.454-0.501-0.925-0.761-1.399l-4.281-7.852c-0.17-0.316-0.313-0.545-0.447-0.72 c-0.141-0.189-0.294-0.344-0.453-0.46c-0.17-0.117-0.347-0.197-0.54-0.243c-0.194-0.046-0.437-0.068-0.725-0.068h-1.19 c-0.268,0-0.516,0.084-0.745,0.25c-0.236,0.174-0.355,0.461-0.355,0.853v16.498c0,0.079,0.025,0.159,0.072,0.229 c0.051,0.073,0.126,0.131,0.233,0.169c0.092,0.035,0.22,0.065,0.378,0.089c0.167,0.024,0.369,0.036,0.6,0.036 c0.236,0,0.438-0.012,0.603-0.036c0.15-0.023,0.276-0.05,0.387-0.087c0.112-0.038,0.192-0.094,0.24-0.172 c0.046-0.075,0.073-0.154,0.073-0.228V522.1c0-0.731-0.005-1.406-0.016-2.06c-0.006-0.616-0.016-1.18-0.029-1.709 c0.236,0.491,0.464,0.949,0.691,1.395c0.291,0.562,0.589,1.118,0.88,1.651l5.561,10.171c0.174,0.326,0.356,0.627,0.55,0.893 c0.166,0.227,0.343,0.415,0.522,0.562c0.179,0.141,0.368,0.237,0.567,0.291c0.204,0.053,0.429,0.08,0.69,0.08h0.798 c0.128,0,0.264-0.021,0.401-0.061c0.138-0.036,0.259-0.102,0.376-0.195c0.113-0.096,0.199-0.209,0.26-0.341 c0.07-0.138,0.105-0.31,0.105-0.509v-16.5c0-0.077-0.022-0.151-0.073-0.222C425.837,515.479,425.759,515.419,425.655,515.372 L425.655,515.372z" clip-path="url(#SVGID_8_)"/><path fill="#FFF" d="M391.556,516.652c-0.131-0.127-0.357-0.283-0.688-0.473 c-0.333-0.192-0.741-0.371-1.215-0.53c-0.468-0.16-1.02-0.304-1.638-0.427c-0.616-0.121-1.283-0.181-1.975-0.181 c-1.359,0-2.611,0.228-3.721,0.68c-1.117,0.44-2.09,1.081-2.899,1.9c-0.797,0.815-1.425,1.815-1.86,2.971 c-0.44,1.147-0.661,2.454-0.661,3.884c0,1.364,0.208,2.62,0.61,3.729c0.405,1.108,1.001,2.074,1.774,2.874 c0.771,0.799,1.728,1.424,2.84,1.851c1.103,0.43,2.381,0.646,3.801,0.646c0.489,0,0.951-0.025,1.411-0.08 c0.504-0.062,0.964-0.146,1.401-0.253c0.481-0.114,0.94-0.252,1.353-0.402c0.455-0.166,0.805-0.311,1.06-0.438 c0.292-0.145,0.479-0.308,0.575-0.503c0.089-0.186,0.133-0.405,0.133-0.654v-6.813c0-0.178-0.024-0.331-0.078-0.469 c-0.056-0.145-0.125-0.254-0.217-0.338c-0.105-0.087-0.205-0.145-0.309-0.181c-0.109-0.038-0.224-0.06-0.335-0.06h-5.791 c-0.099,0-0.185,0.022-0.259,0.067c-0.06,0.041-0.114,0.106-0.173,0.203c-0.044,0.086-0.078,0.195-0.1,0.331 c-0.02,0.141-0.031,0.297-0.031,0.459c0,0.354,0.042,0.606,0.131,0.769c0.081,0.182,0.232,0.278,0.432,0.278h4.145v5.084 c-0.483,0.252-1.003,0.443-1.549,0.569c-0.573,0.134-1.126,0.199-1.694,0.199c-0.936,0-1.805-0.156-2.588-0.462 c-0.781-0.312-1.461-0.772-2.02-1.361c-0.569-0.606-1.013-1.352-1.322-2.217c-0.324-0.868-0.487-1.882-0.487-3.012 c0-1.016,0.148-1.963,0.44-2.819c0.289-0.861,0.712-1.615,1.257-2.241c0.543-0.621,1.218-1.114,1.997-1.468 c0.803-0.357,1.679-0.531,2.684-0.531c0.834,0,1.562,0.088,2.166,0.262c0.62,0.174,1.148,0.367,1.571,0.573 c0.416,0.196,0.765,0.388,1.045,0.574c0.285,0.188,0.481,0.275,0.613,0.275c0.083,0,0.155-0.021,0.22-0.065 c0.078-0.046,0.136-0.121,0.171-0.225c0.042-0.089,0.072-0.201,0.099-0.351c0.015-0.128,0.022-0.279,0.022-0.477 c0-0.324-0.02-0.542-0.072-0.701C391.777,516.94,391.686,516.786,391.556,516.652L391.556,516.652z" clip-path="url(#SVGID_8_)"/></g></g><g><g><defs><rect id="SVGID_9_" width="131.668" height="131.652" x="80.486" y="604.914"/></defs><clipPath id="SVGID_10_"><use overflow="visible" xlink:href="#SVGID_9_"/></clipPath><path fill="#FFF" d="M210.854,735.268H81.786V606.198h129.068V735.268L210.854,735.268z M80.486,604.899v131.667h131.668V604.899H80.486L80.486,604.899z" clip-path="url(#SVGID_10_)"/></g><polygon fill="#FFF" points="129.125 637.247 125.366 637.247 125.366 627.037 127.919 631.028 130.564 631.028 130.564 620.262 127.919 620.262 125.366 624.391 125.366 614.924 129.125 614.924 134.463 623.371 136.969 623.371 136.969 611.722 112.046 611.722 112.046 614.924 114.135 614.924 114.135 637.247 112.046 637.247 112.046 640.403 137.34 640.403 137.34 627.919 134.88 627.919 129.125 637.247"/><path fill="#FFF" d="M128.336,715.449v-2.088l0,0h-2.042v12.67h2.088v-5.94c0-2.413,0.929-5.198,3.806-5.198 c0.371,0,0.695,0.094,1.021,0.187v-1.997c-0.325-0.047-0.695-0.138-1.021-0.138C130.472,712.944,129.265,714.196,128.336,715.449 L128.336,715.449z"/><path fill="#FFF" d="M94.222,716.609v1.904h5.384c0.047,3.248-1.995,6.032-5.43,6.032c-4.084,0-6.126-3.805-6.126-7.472 c0-3.806,2.042-7.24,6.173-7.24c2.46,0,4.456,1.393,5.013,3.806h2.321c-0.696-3.573-3.62-5.615-7.24-5.615 c-5.291,0-8.585,4.037-8.585,9.189c0,4.78,3.109,9.235,8.214,9.235c2.274,0,4.317-0.975,5.662-2.784l0.697,2.367h1.532v-9.423 h-7.611H94.222L94.222,716.609z"/><path fill="#FFF" d="M206.258,636.135c0-1.765-0.371-3.063-1.299-4.595l-10.118-16.615h3.064l5.152,8.399h2.691v-11.603 h-22.787v1.903c0,1.716,0.094,3.48,0.974,4.965l11.372,18.611h-3.992l-5.708-9.328h-3.062v12.53v0.001h23.713V636.135 L206.258,636.135z"/><polygon fill="#FFF" points="155.023 637.247 152.842 637.247 152.842 614.924 155.023 614.924 155.023 611.722 139.382 611.722 139.382 614.924 141.61 614.924 141.61 637.247 139.382 637.247 139.382 640.357 155.023 640.357 155.023 637.247"/><path fill="#FFF" d="M110.051,627.919h-3.063l-5.848,9.328h-3.992l11.322-18.286c0.701-1.11,1.072-2.398,1.068-3.712v-3.527 H86.844v11.649h2.739l5.151-8.447h2.924l-9.746,16.15c-1.114,1.857-1.485,3.621-1.485,5.803v3.526h23.624V627.919L110.051,627.919 z"/><path fill="#FFF" d="M110.19,718.651c0.185-2.182,1.624-4.13,3.991-4.13c2.273,0,3.759,1.994,3.805,4.13H110.19L110.19,718.651 z M114.228,713.035c-3.852,0-6.08,3.063-6.08,6.777c0,3.62,2.367,6.59,6.172,6.59c2.692,0,4.735-1.577,5.522-4.178h-1.949 c-0.511,1.626-1.764,2.601-3.435,2.601c-2.646,0-4.178-2.228-4.363-4.641h10.025C119.982,716.562,118.358,713.035,114.228,713.035 L114.228,713.035z"/><path fill="#FFF" d="M170.57,721.53c0,2.135-2.042,3.295-3.991,3.295c-1.3,0-2.692-0.65-2.692-2.09 c0-2.877,4.78-2.551,6.683-3.388l0,0h0.001c0,0,0,0-0.001,0V721.53L170.57,721.53z M172.381,722.923v-5.941 c0-2.875-1.997-3.944-4.688-3.944c-2.832,0-5.105,1.347-5.152,4.317h1.948v-0.418c0-1.81,1.764-2.366,3.296-2.366 c1.578,0,2.877,0.741,2.877,2.411c0,3.297-8.865,0.279-8.865,5.941c0,2.367,2.228,3.48,4.364,3.48 c1.809,0,3.572-0.743,4.547-2.274v0.37c0,1.161,0.929,1.764,1.996,1.764c0.376,0.006,0.751-0.041,1.114-0.14v-1.484 c-0.14,0-0.325,0.047-0.511,0.048C172.381,724.687,172.381,723.619,172.381,722.923L172.381,722.923z"/><path fill="#FFF" d="M186.072,713.035c-1.763,0-3.434,0.743-4.41,2.228v-1.901l0,0h-2.041v12.67h2.041v-7.286 c0-2.183,1.114-3.992,3.48-3.992c2.09,0,2.878,1.485,2.878,3.343v7.936h2.043v-8.679 C190.063,714.893,188.624,713.035,186.072,713.035L186.072,713.035z"/><path fill="#FFF" d="M204.682,713.361l-3.712,10.257l-4.085-10.257h-2.228l5.29,12.253l-0.741,1.763 c-0.325,0.79-0.789,1.253-1.67,1.253c-0.603,0-1.114-0.093-1.58-0.37v1.857c0.604,0.23,1.207,0.417,1.903,0.417 c1.904,0,2.785-1.3,3.435-2.924l5.615-14.249H204.682L204.682,713.361z"/><path fill="#FFF" d="M180.593,636.135c0-1.765-0.371-3.063-1.3-4.595l-10.117-16.615h3.11l5.152,8.399h2.69v-11.603h-22.787 v1.903c0,1.67,0.047,3.48,0.975,4.965l11.37,18.611h-4.038l-5.708-9.328h-3.016v12.53v0.001h23.667V636.135L180.593,636.135z"/><path fill="#FFF" d="M151.912,713.036c-1.67,0-3.062,0.883-3.898,2.32c-0.463-1.483-1.671-2.32-3.202-2.32 c-1.716,0-3.063,0.883-3.852,2.32v-1.994h-2.089v12.671h2.089v-6.869c0-1.95,0.789-4.363,3.156-4.363 c1.718,0,2.182,1.531,2.182,2.924v8.309h2.087v-7.102c0-1.903,0.743-4.178,2.971-4.178c1.81,0,2.32,1.485,2.32,2.971v8.308h2.089 v-8.865C155.765,714.847,154.372,713.036,151.912,713.036L151.912,713.036z"/></g><g><path fill="#FFF" d="M518.235,337.765c0,7.325,0,114.145,0,121.475c-7.328,0-114.149,0-121.475,0c0-7.701,0-113.778,0-121.475 C404.086,337.765,510.907,337.765,518.235,337.765L518.235,337.765z M390.5,331.5v134h133.997v-134H390.5L390.5,331.5z"/><path fill="#FFF" d="M438.013,450.28v-28.704c0-3.106-1.816-4.62-4.013-4.62c-2.197,0-3.939,1.514-3.939,4.62v28.704h-8.027 v-28.704c0-3.106-1.742-4.62-3.941-4.62c-2.193,0-3.937,1.514-3.937,4.62v28.704h-8.03v-39.914h7.726v2.952 c0.684-0.907,1.667-1.969,2.651-2.499c1.139-0.681,2.576-1.062,4.016-1.062c3.18,0,6.057,1.592,7.798,4.091 c0.989-1.133,2.274-2.272,3.562-3.029c1.213-0.681,3.03-1.062,4.241-1.062c3.711,0,5.755,0.984,7.573,3.107 c1.592,1.818,2.349,4.013,2.349,8.635v28.78H438.013L438.013,450.28z"/><path fill="#FFF" d="M467.858,418.547c-0.681-1.061-1.892-1.669-3.103-1.669c-1.215,0-2.421,0.608-3.106,1.669 c-1.063,1.814-1.139,5.829-1.139,11.738c0,5.904,0.076,9.995,1.139,11.813c0.685,1.062,1.891,1.592,3.106,1.592 c1.211,0,2.422-0.53,3.103-1.592c1.061-1.818,1.132-5.909,1.132-11.813C468.991,424.376,468.919,420.361,467.858,418.547 L467.858,418.547z M474.22,446.643c-2.345,3.257-5.605,4.241-9.464,4.241c-3.868,0-7.121-0.984-9.468-4.241 c-2.501-3.482-2.802-9.618-2.802-16.357c0-6.744,0.301-12.876,2.802-16.358c2.347-3.257,5.6-4.169,9.468-4.169 c3.859,0,7.119,0.912,9.464,4.169c2.498,3.482,2.804,9.614,2.804,16.358C477.024,437.024,476.718,443.16,474.22,446.643 L474.22,446.643z"/><polygon fill="#FFF" points="483.462 450.28 483.462 396.353 491.496 396.353 491.496 450.28 483.462 450.28"/><polygon fill="#FFF" points="500.852 450.28 500.852 396.353 508.884 396.353 508.884 450.28 500.852 450.28"/></g><g><path fill="#FFF" d="M503.48,629.244h7.926l-4.005-10.368l-0.271-0.843l-0.241,0.843L503.48,629.244L503.48,629.244 L503.48,629.244z M513.892,635.674h-12.525l-2.139,6.506h-8.671l10.736-31.925h11.696l12.741,31.925h-9.326L513.892,635.674 L513.892,635.674L513.892,635.674z M444.852,642.17h-9.114l-5.655-11.896h-4.642v11.896h-8.586v-31.964h15.383 c7.093,0,10.908,5.028,10.908,10.28c0,4.354-2.692,7.094-5.208,8.351L444.852,642.17L444.852,642.17L444.852,642.17z M435.29,620.486c0-1.66-1.258-3.232-3.414-3.232h-6.436v6.465h6.436C434.032,623.719,435.29,622.147,435.29,620.486 L435.29,620.486L435.29,620.486z M411.26,642.18h-21.902v-31.925h21.902v6.593h-13.855v6.018h11.839v6.43h-11.839v6.091h13.855 V642.18L411.26,642.18L411.26,642.18z M383.438,642.18h-9.043v-12.683h-10.248v12.683h-9.042v-31.925h9.042v12.409h10.248v-12.409 h9.043V642.18L383.438,642.18L383.438,642.18z M461.88,610.255l5.989,18.769l5.788-18.769h13.062v31.925h-7.736v-23.304 l-7.938,23.304h-6.632l-7.435-23.304v23.304h-7.836v-31.925H461.88L461.88,610.255L461.88,610.255z"/><polygon fill="#FFF" points="461.88 610.255 467.869 629.023 473.657 610.255 486.719 610.255 486.719 642.18 478.983 642.18 478.983 618.876 471.045 642.18 464.413 642.18 456.978 618.876 456.978 642.18 449.142 642.18 449.142 610.255 461.88 610.255 461.88 610.255"/><polygon fill="#FFF" points="383.438 642.18 383.438 610.255 374.395 610.255 374.395 622.664 364.146 622.664 364.146 610.255 355.104 610.255 355.104 642.18 364.146 642.18 364.146 629.497 374.395 629.497 374.395 642.18 383.438 642.18 383.438 642.18"/><polygon fill="#FFF" points="411.26 642.18 411.26 635.386 397.404 635.386 397.404 629.295 409.243 629.295 409.243 622.865 397.404 622.865 397.404 616.848 411.26 616.848 411.26 610.255 389.357 610.255 389.357 642.18 411.26 642.18 411.26 642.18"/><path fill="#FFF" fill-rule="evenodd" d="M444.852,642.17l-6.915-13.333 c2.515-1.257,5.208-3.996,5.208-8.351c0-5.252-3.815-10.28-10.908-10.28h-15.383v31.964h8.586v-11.896h4.642l5.655,11.896H444.852 L444.852,642.17L444.852,642.17z M435.29,620.486c0,1.661-1.258,3.232-3.414,3.232h-6.436v-6.465h6.436 C434.032,617.254,435.29,618.826,435.29,620.486L435.29,620.486L435.29,620.486z" clip-rule="evenodd"/><path fill="#FFF" d="M503.48,629.244h7.926l-4.005-10.368l-0.271-0.843l-0.241,0.843L503.48,629.244L503.48,629.244 L503.48,629.244z M513.892,635.674h-12.525l-2.139,6.506h-8.671l10.736-31.925h11.696l12.741,31.925h-9.326L513.892,635.674 L513.892,635.674L513.892,635.674z"/><polygon fill="#FFF" points="306.528 647.066 298.071 642.185 304.41 631.207 291.731 631.207 291.73 621.441 304.412 621.441 298.064 610.448 306.521 605.565 312.867 616.557 319.211 605.567 327.668 610.449 321.323 621.441 334.012 621.441 334.012 631.206 321.326 631.206 327.663 642.182 319.206 647.064 312.868 636.087 306.528 647.066 306.528 647.066"/><polygon fill="#FFF" points="306.528 647.066 298.071 642.185 304.41 631.207 291.731 631.207 291.73 621.441 304.412 621.441 298.064 610.448 306.521 605.565 312.867 616.557 319.211 605.567 327.668 610.449 321.323 621.441 334.012 621.441 334.012 631.206 321.326 631.206 327.663 642.182 319.206 647.064 312.868 636.087 306.528 647.066 306.528 647.066"/></g><g><path fill="#FFF" d="M301.046,717.31h-9.763v-36.952h9.763V717.31L301.046,717.31z M338.733,730.942l-22.47-24.98 l21.995-25.604h-11.681l-22.621,25.938l24.282,26.304h10.496V730.942L338.733,730.942z M338.733,717.31h-1.509v-22.327h1.509 V717.31L338.733,717.31z M489.567,717.31h9.022c-0.478-1.141-0.734-2.393-0.734-3.684c0-5.049,3.903-9.138,8.655-9.138 c4.791,0,8.663,4.089,8.663,9.138c0,5.046-3.872,9.171-8.663,9.171c-0.847,0-1.688-0.146-2.507-0.403v9.506 c0.818,0.149,1.66,0.219,2.507,0.219c3.055,0,5.933-0.881,8.403-2.355v2.911h8.767v-16.617c0.11-0.845,0.147-1.729,0.147-2.578 c0-10.279-7.777-18.644-17.318-18.644s-17.314,8.364-17.314,18.644C489.196,714.77,489.343,716.057,489.567,717.31 M422.696,717.31h8.953c-0.405-1.066-0.632-2.21-0.632-3.427c0-5.046,3.872-9.173,8.662-9.173c4.757,0,8.658,4.127,8.658,9.173 c0,5.049-3.901,9.137-8.658,9.137c-0.662,0-1.291-0.07-1.915-0.223v9.434c0.625,0.074,1.253,0.148,1.915,0.148 c9.542,0,17.315-8.4,17.315-18.682c0-10.24-7.773-18.639-17.315-18.639c-9.541,0-17.314,8.398-17.314,18.639 C422.365,714.952,422.476,716.128,422.696,717.31 M380.956,717.31h9.211c-0.408-1.105-0.664-2.284-0.664-3.5 c0-5.048,3.907-9.174,8.621-9.174c4.79,0,8.658,4.126,8.658,9.174c0,5.047-3.869,9.14-8.658,9.14c-0.331,0-0.665,0-0.997-0.042 v9.323c0.332,0.037,0.666,0.037,0.997,0.037c9.542,0,17.315-8.365,17.315-18.642c0-10.278-7.772-18.644-17.315-18.644 c-3.058,0-5.932,0.886-8.436,2.395v-17.094h-8.733v31.464c-0.075,0.626-0.112,1.25-0.112,1.879c0,0.662,0.037,1.291,0.112,1.917 V717.31L380.956,717.31z M350.895,722.907v9.692h0.331h5.672c7.662,0,13.962-6.262,13.962-13.963v-23.654h-8.657v22.327 c0,3.093-2.541,5.64-5.636,5.64h-5.014C351.334,722.949,351.114,722.949,350.895,722.907 M338.733,694.982h7.15v22.327h-7.15 V694.982L338.733,694.982z M338.733,732.6v-1.657l1.513,1.657H338.733L338.733,732.6z M465.912,680.543h8.731v14.549h8.624v8.733 h-8.624v28.958h-8.731V680.543L465.912,680.543z"/></g><g><path fill="#FFF" d="M660.53,392.543c-3.643,0-6.84-1.263-9.962-3.42l-2.677,4.759c2.603,2.082,7.36,4.015,12.342,4.015 c8.772,0,13.159-3.42,13.159-11.152c0-8.402-5.204-10.632-10.929-12.193c-5.131-1.413-6.691-2.305-6.691-5.799 c0-3.197,1.858-4.61,5.873-4.61c2.825,0,4.759,0.521,7.881,2.083l2.23-5.056c-2.751-1.561-5.873-2.453-10.334-2.453 c-8.178,0-11.673,4.758-11.673,10.186c0,7.36,4.312,10.111,9.517,11.523c5.948,1.636,7.881,2.453,7.881,6.617 C667.147,390.537,665.586,392.543,660.53,392.543L660.53,392.543z"/><g><defs><rect id="SVGID_11_" width="194.999" height="94.987" x="594.049" y="319.424"/></defs><clipPath id="SVGID_12_"><use overflow="visible" xlink:href="#SVGID_11_"/></clipPath><path fill="#FFF" d="M710.787,389.347h-0.146c0,0-1.116-6.469-2.082-10.482l-4.759-19.182h-6.691 l-5.056,19.775c-0.893,3.272-1.785,9.889-1.785,9.889h-0.147c0,0-0.967-6.691-1.859-10.557l-4.535-19.107h-6.84l9.665,37.248 h6.394L698,377.08c0.967-3.718,1.785-8.625,2.156-10.781h0.075c0.445,2.23,1.338,7.286,2.229,10.781l5.13,19.85h6.395 l9.813-37.248h-6.468l-4.61,19.404C711.978,382.358,710.787,389.347,710.787,389.347L710.787,389.347z" clip-path="url(#SVGID_12_)"/><path fill="#FFF" d="M738.602,359.826h-9.156v36.272c-2.419,0.76-4.857,1.508-7.338,2.224 c-57.063,16.472-107.59,15.043-112.854-3.192c-5.264-18.236,36.727-46.373,93.791-62.845 c33.555-9.687,64.845-13.18,86.004-10.708c-21.971-4.729-57.996-1.708-96.854,9.509c-59.64,17.216-103.355,47.215-97.643,67.005 s58.69,21.875,118.33,4.659c6.253-1.805,12.316-3.758,18.18-5.818h18.348v-7.879h-10.807V359.826L738.602,359.826z" clip-path="url(#SVGID_12_)"/></g><path fill="#FFF" d="M765.912,389.371h-3.354v-7.879h3.249c2.768,0,3.459,1.544,3.459,3.833 C769.266,388.146,768.149,389.371,765.912,389.371L765.912,389.371z M762.558,367.385h2.982c2.075,0,3.193,1.012,3.193,3.248 c0,2.289-0.958,3.62-3.141,3.62h-3.035V367.385L762.558,367.385z M773.1,377.126c3.779-1.49,4.897-3.886,4.897-7.985 c0-6.92-4.152-9.315-9.264-9.315h-15.226v37.104h14.214c8.305,0,11.552-3.513,11.552-11.126 C779.273,380.534,776.507,377.819,773.1,377.126L773.1,377.126z"/></g><g><path fill="#FFF" d="M909.957,341.206l-0.104,17.04l-17.056,0.001l3.34-3.092l-11.632-11.74l-11.056,11.392 c12.898-0.93,19.924,14.646,33.744,8.95c3.916-1.396,11.631-7.207,11.631-7.207l9.675,9.764l-43.419,44.054l-22.342-21.853 l-3.686,2.79v-16.971h17.16l-2.994,3.604l11.286,11.507l11.632-11.158c0,0-11.057-1.977-15.547-5.579 c-4.377-3.72-9.905-5.696-16.009-4.767c-5.183,1.396-9.79,4.534-13.82,8.951l-10.136-10.346l43.649-44.053l22.573,21.735 L909.957,341.206L909.957,341.206z"/><path fill="#FFF" d="M924.085,390.682c-1.224-0.479-1.896-0.696-3.145-0.696c-1.344,0-2.928,0.48-2.928,2.232 c0,3.216,7.2,2.472,7.2,7.992c0,3.576-2.76,4.992-6.12,4.992c-1.176,0-2.328-0.336-3.432-0.696l0.239-2.232 c0.816,0.336,2.257,0.816,3.48,0.816c1.368,0,3.288-0.768,3.288-2.736c0-3.744-7.2-2.712-7.2-7.92c0-2.976,2.353-4.56,5.376-4.56 c1.104,0,2.424,0.191,3.576,0.6L924.085,390.682L924.085,390.682z"/><path fill="#FFF" d="M934.765,394.498h-3.24v6.695c0,1.416,0.864,2.185,1.896,2.185c0.696,0,1.2-0.216,1.536-0.432v1.92 c-0.504,0.144-1.2,0.336-1.92,0.336c-2.328,0-3.769-1.104-3.769-3.553v-7.151h-2.76v-1.824h2.76v-2.832l2.256-0.72v3.552h3.24 V394.498L934.765,394.498z"/><path fill="#FFF" d="M938.293,395.458c0.912-0.768,2.279-1.248,3.552-1.248c2.256,0,3.024,1.08,3.024,3.192 c-0.889-0.048-1.513-0.048-2.4-0.048c-2.328,0-5.688,0.96-5.688,4.032c0,2.664,1.848,3.816,4.487,3.816 c2.064,0,3.264-1.128,3.792-1.872h0.048v1.584h2.112c-0.048-0.36-0.096-1.008-0.096-2.4v-5.063c0-3.336-1.416-5.064-4.92-5.064 c-1.561,0-2.904,0.48-4.032,1.152L938.293,395.458L938.293,395.458z M944.869,400.162c0,1.823-1.177,3.216-3.408,3.216 c-1.032,0-2.28-0.696-2.28-1.992c0-2.16,3.024-2.352,4.248-2.352c0.479,0,0.96,0.048,1.44,0.048V400.162L944.869,400.162z"/><path fill="#FFF" d="M959.604,404.914h2.16v-18h-2.256v7.44h-0.048c-0.696-1.128-1.92-1.968-4.057-1.968 c-3.552,0-5.279,2.904-5.279,6.192c0,3.336,1.56,6.624,5.256,6.624c2.184,0,3.576-1.104,4.176-2.017h0.048V404.914 L959.604,404.914z M952.524,398.746c-0.048-2.232,0.912-4.536,3.36-4.536s3.624,2.328,3.624,4.608c0,2.04-1.056,4.56-3.601,4.56 C953.484,403.378,952.477,400.666,952.524,398.746L952.524,398.746z"/><path fill="#FFF" d="M972.108,394.498h-3.24v6.695c0,1.416,0.864,2.185,1.896,2.185c0.696,0,1.2-0.216,1.536-0.432v1.92 c-0.504,0.144-1.2,0.336-1.92,0.336c-2.328,0-3.769-1.104-3.769-3.553v-7.151h-2.76v-1.824h2.76v-2.832l2.256-0.72v3.552h3.24 V394.498L972.108,394.498z"/><polygon fill="#FFF" points="988.787 404.914 986.172 404.914 983.004 394.642 982.955 394.642 979.86 404.914 977.244 404.914 973.309 392.674 975.78 392.674 978.588 402.802 978.637 402.802 981.756 392.674 984.42 392.674 987.492 402.802 987.54 402.802 990.517 392.674 992.725 392.674 988.787 404.914"/><path fill="#FFF" d="M1004.316,402.153c-0.553,0.456-2.281,1.225-3.769,1.225c-2.136,0-4.032-1.656-4.032-4.08h8.736 c0-3.936-1.319-6.912-5.399-6.912c-3.456,0-5.736,2.568-5.736,6.192c0,3.983,1.992,6.624,6.336,6.624c2.016,0,3-0.48,3.864-0.792 V402.153L1004.316,402.153z M996.516,397.618c0.169-1.584,1.08-3.408,3.288-3.408c1.944,0,3.049,1.536,3.049,3.408H996.516 L996.516,397.618z"/><path fill="#FFF" d="M1008.276,392.674h2.111v1.896h0.049c0.599-1.272,1.896-2.184,3.191-2.184 c0.672,0,1.008,0.072,1.488,0.168v2.016c-0.408-0.168-0.864-0.216-1.248-0.216c-2.016,0-3.336,1.92-3.336,4.992v5.568h-2.256 V392.674L1008.276,392.674z"/><polygon fill="#FFF" points="1017.612 386.914 1019.868 386.914 1019.868 397.642 1024.787 392.674 1027.86 392.674 1022.172 398.098 1028.58 404.914 1025.34 404.914 1019.868 398.626 1019.868 404.914 1017.612 404.914 1017.612 386.914"/><path fill="#FFF" d="M1040.34,402.153c-0.553,0.456-2.28,1.225-3.768,1.225c-2.137,0-4.032-1.656-4.032-4.08h8.736 c0-3.936-1.321-6.912-5.4-6.912c-3.456,0-5.736,2.568-5.736,6.192c0,3.983,1.992,6.624,6.336,6.624c2.017,0,3-0.48,3.864-0.792 V402.153L1040.34,402.153z M1032.54,397.618c0.168-1.584,1.079-3.408,3.287-3.408c1.944,0,3.049,1.536,3.049,3.408H1032.54 L1032.54,397.618z"/><polygon fill="#FFF" points="914.389 410.162 917.029 410.162 921.037 424.514 921.085 424.514 924.661 410.162 928.069 410.162 931.693 424.514 931.741 424.514 935.749 410.162 938.293 410.162 933.133 426.913 930.037 426.913 926.389 412.273 926.341 412.273 922.669 426.913 919.453 426.913 914.389 410.162"/><path fill="#FFF" d="M940.529,417.458c0.912-0.769,2.28-1.248,3.551-1.248c2.257,0,3.025,1.08,3.025,3.191 c-0.889-0.048-1.513-0.048-2.4-0.048c-2.328,0-5.688,0.96-5.688,4.033c0,2.663,1.848,3.814,4.487,3.814 c2.064,0,3.265-1.127,3.792-1.872h0.048v1.584h2.112c-0.048-0.359-0.096-1.007-0.096-2.399v-5.064c0-3.336-1.416-5.063-4.92-5.063 c-1.561,0-2.904,0.48-4.031,1.152L940.529,417.458L940.529,417.458z M947.105,422.161c0,1.824-1.177,3.216-3.408,3.216 c-1.033,0-2.281-0.695-2.281-1.99c0-2.161,3.025-2.354,4.249-2.354c0.48,0,0.96,0.048,1.44,0.048V422.161L947.105,422.161z"/><path fill="#FFF" d="M955.865,411.938h-2.544v-2.544h2.544V411.938L955.865,411.938z M953.465,414.674h2.256v12.239h-2.256 V414.674L953.465,414.674z"/><path fill="#FFF" d="M959.849,426.913h2.16v-1.728h0.048c0.601,0.912,1.992,2.016,4.177,2.016c3.695,0,5.256-3.264,5.256-6.624 c0-3.287-1.729-6.191-5.28-6.191c-2.136,0-3.36,0.84-4.056,1.968h-0.048v-7.439h-2.257V426.913L959.849,426.913z M969.089,420.745 c0.048,1.92-0.96,4.632-3.384,4.632c-2.545,0-3.6-2.52-3.6-4.56c0-2.28,1.176-4.607,3.624-4.607 C968.177,416.21,969.137,418.537,969.089,420.745L969.089,420.745z"/><polygon fill="#FFF" points="974.801 408.914 977.057 408.914 977.057 426.913 974.801 426.913 974.801 408.914"/><path fill="#FFF" d="M983.873,411.938h-2.545v-2.544h2.545V411.938L983.873,411.938z M981.473,414.674h2.256v12.239h-2.256 V414.674L981.473,414.674z"/><path fill="#FFF" d="M987.856,414.674h2.185v1.944h0.048c0.672-1.393,2.304-2.232,4.008-2.232c3.168,0,4.584,1.968,4.584,5.256 v7.271h-2.256v-6.336c0-2.855-0.624-4.247-2.592-4.367c-2.568,0-3.72,2.063-3.72,5.039v5.664h-2.257V414.674L987.856,414.674z"/><path fill="#FFF" d="M1013.345,414.674h-2.088v1.824h-0.048c-0.672-1.32-1.872-2.112-4.032-2.112 c-3.696,0-5.472,3.36-5.472,6.504c0,3.168,1.728,6.023,5.231,6.023c1.56,0,3.144-0.624,4.104-1.896h0.048v1.201 c0,2.591-1.416,4.198-3.792,4.198c-1.656,0-2.688-0.312-4.416-1.104l-0.24,2.088c1.968,0.673,3.096,0.84,4.393,0.84 c4.392,0,6.312-2.136,6.312-5.854V414.674L1013.345,414.674z M1007.513,425.09c-2.112,0-3.408-2.016-3.408-4.32 c0-2.088,1.128-4.56,3.408-4.56c2.399,0,3.576,2.184,3.576,4.728C1011.089,423.219,1009.625,425.09,1007.513,425.09 L1007.513,425.09z"/><path fill="#FFF" d="M1026.568,424.153c-0.552,0.456-2.279,1.224-3.768,1.224c-2.137,0-4.032-1.655-4.032-4.079h8.736 c0-3.937-1.32-6.912-5.4-6.912c-3.456,0-5.736,2.568-5.736,6.191c0,3.984,1.992,6.624,6.335,6.624 c2.018,0,3.002-0.479,3.865-0.792V424.153L1026.568,424.153z M1018.769,419.617c0.168-1.583,1.08-3.407,3.288-3.407 c1.944,0,3.048,1.536,3.048,3.407H1018.769L1018.769,419.617z"/><path fill="#FFF" d="M1030.528,414.674h2.185v1.944h0.048c0.672-1.393,2.304-2.232,4.008-2.232 c3.168,0,4.584,1.968,4.584,5.256v7.271h-2.256v-6.336c0-2.855-0.624-4.247-2.592-4.367c-2.568,0-3.721,2.063-3.721,5.039v5.664 h-2.256V414.674L1030.528,414.674z"/></g><g><path fill="#FFF" d="M667.245,521.986h-6.511l3.251-13.061c0.866-3.429,2.012-7.798,3.365-12.355h-0.14 c-2.142,4.088-4.544,8.456-6.624,11.934l-7.754,12.965h-5.208l0.204-12.825c0.08-3.476,0.297-7.845,0.545-12.073h-0.092 c-1.315,4.182-2.732,8.927-3.877,12.355l-4.462,13.061h-6.139l11.12-31.664h8.978l-0.262,12.026 c-0.119,2.96-0.166,6.577-0.482,10.101h0.186c1.571-3.523,3.63-7.235,5.271-10.101l7.053-12.026h9.07L667.245,521.986 L667.245,521.986z M622.527,509.207l-3.688,12.779h-6.696l9.214-31.664h18.371l-1.712,5.778h-11.628l-2.206,7.423h10.931 l-1.703,5.684H622.527L622.527,509.207z M712.17,499.984l-0.072,0.001c-1.497,3.035-11.792,22.001-11.792,22.001h-7.255 l1.107-13.014c0.337-3.711,0.759-6.905,1.357-10.476h-0.092c-1.511,3.382-2.929,6.765-4.912,10.664l-6.717,12.825h-7.439 l2.051-31.664h6.791l-1.451,14.094c-0.393,3.805-0.858,7.423-1.241,10.241h0.093c1.437-3.101,2.881-6.295,4.765-10.147 l7.043-14.188h7.35l-1.551,14.141c-0.391,3.806-0.854,6.953-1.312,10.054h0.091c1.409-3.288,2.924-6.719,4.482-10.101 l5.831-11.924c0.34-0.704,0.874-1.895,1.021-2.285c-7.11-25.783-30.726-44.724-58.77-44.724 c-33.671,0-60.964,27.296-60.964,60.967c0,33.668,27.293,60.96,60.964,60.96c33.669,0,60.963-27.292,60.963-60.96 C712.511,504.266,712.393,502.109,712.17,499.984"/><polyline fill="#FFF" points="712.17 499.985 712.17 499.985 712.171 499.99 712.17 499.985"/><path fill="#FFF" d="M710.312,490.19L710.312,490.19c0.001,0.006,0.003,0.013,0.005,0.018l0.001-0.001 C710.314,490.202,710.313,490.196,710.312,490.19"/><polygon fill="#FFF" points="746.766 495.347 746.766 490.334 728.902 490.334 728.902 521.987 734.937 521.987 734.937 508.69 745.929 508.69 745.929 503.679 734.937 503.679 734.937 495.347 746.766 495.347"/><path fill="#FFF" d="M761.277,498.517c-2.663,0-5.056,1.895-6.119,4.836h-0.098l-0.187-4.323h-5.293l0.009,0.168 c0.133,1.921,0.187,4.032,0.187,7.288v15.501h6.035v-11.873c0-0.646,0.092-1.241,0.184-1.736c0.517-2.589,2.417-4.196,4.956-4.196 c0.675,0,1.162,0.086,1.644,0.183l0.19,0.037v-5.715l-0.128-0.025C762.173,498.562,761.844,498.517,761.277,498.517 L761.277,498.517z"/><path fill="#FFF" d="M769.213,489.256c-2.042,0-3.526,1.442-3.526,3.43c0,1.959,1.463,3.38,3.479,3.38 c2.104,0,3.574-1.39,3.574-3.385C772.687,490.633,771.269,489.256,769.213,489.256L769.213,489.256z"/><polygon fill="#FFF" points="766.173 521.986 772.254 521.986 772.254 499.029 766.173 499.029 766.173 521.986"/><path fill="#FFF" d="M787.562,502.738c1.284,0,2.328,0.401,3.103,1.193c1.288,1.318,1.434,3.257,1.437,4.024h-9.616 C782.743,505.938,784.068,502.738,787.562,502.738L787.562,502.738z M787.889,498.518c-3.438,0-6.332,1.312-8.375,3.794 c-1.838,2.233-2.85,5.269-2.85,8.545c0,7.152,4.533,11.596,11.829,11.596c3.708,0,6.377-0.765,7.962-1.407l0.123-0.049 l-0.902-4.263l-0.173,0.065c-1.849,0.7-3.768,1.013-6.22,1.013c-4.786,0-6.648-2.832-6.81-5.541h15.124l0.023-0.13 c0.07-0.388,0.19-1.22,0.19-2.446C797.812,504.538,795.213,498.518,787.889,498.518L787.889,498.518z"/><path fill="#FFF" d="M812.78,517.579c-3.349,0-5.514-2.748-5.514-7.002c0-4.451,2.183-7.327,5.561-7.327 c2.677,0,4.326,1.97,4.773,3.918c0.086,0.43,0.136,0.973,0.136,1.457v3.395c0,0.661-0.056,1.18-0.183,1.639 C817.023,516.004,815.105,517.579,812.78,517.579L812.78,517.579z M823.771,515.459V488.66h-6.035v12.833h-0.08 c-1.212-1.92-3.418-2.976-6.223-2.976c-2.598,0-5.043,1.02-6.881,2.871c-2.226,2.238-3.438,5.567-3.414,9.375 c0,6.8,4.133,11.734,9.828,11.734c3.191,0,5.834-1.489,7.27-4.091h0.067l0.234,3.58h5.43l-0.011-0.167 C823.872,520.406,823.771,517.893,823.771,515.459L823.771,515.459z"/><path fill="#FFF" d="M841.166,498.517c-2.664,0-5.057,1.895-6.12,4.836h-0.098l-0.185-4.323h-5.298l0.014,0.168 c0.133,1.938,0.186,4.05,0.186,7.288v15.501h6.033v-11.873c0-0.637,0.094-1.236,0.185-1.736c0.518-2.589,2.417-4.196,4.959-4.196 c0.674,0,1.16,0.086,1.642,0.183l0.188,0.037v-5.715l-0.126-0.025C842.062,498.562,841.733,498.517,841.166,498.517 L841.166,498.517z"/><polygon fill="#FFF" points="846.062 521.986 852.143 521.986 852.143 499.029 846.062 499.029 846.062 521.986"/><path fill="#FFF" d="M849.102,489.256c-2.042,0-3.525,1.442-3.525,3.43c0,1.959,1.463,3.38,3.479,3.38 c2.104,0,3.573-1.39,3.573-3.384C852.575,490.633,851.158,489.256,849.102,489.256L849.102,489.256z"/><path fill="#FFF" d="M869.496,503.297c2.087,0,3.431,0.496,4.26,0.87l0.175,0.078l1.099-4.59l-0.119-0.054 c-1.419-0.659-3.617-1.084-5.6-1.084c-7.63,0-12.757,4.921-12.757,12.246c0,7.101,4.643,11.688,11.828,11.688 c2.903,0,5.305-0.634,6.481-1.177l0.111-0.051l-0.849-4.545l-0.181,0.075c-0.974,0.406-2.36,0.871-4.449,0.871 c-4.049,0-6.768-2.87-6.768-7.143c-0.025-2.129,0.67-4.018,1.954-5.316C865.893,503.943,867.557,503.297,869.496,503.297 L869.496,503.297z"/><path fill="#FFF" d="M891.429,498.518c-1.437,0-2.814,0.361-3.982,1.041c-1.179,0.635-1.906,1.493-2.623,2.585h-0.072v-13.482 h-6.08v33.326h6.08V508.3c0-0.767,0.069-1.279,0.225-1.668c0.503-1.432,1.922-3.103,4.268-3.103c3.48,0,4.212,3.05,4.212,5.607 v12.851h6.035v-13.502C899.49,503.667,897.372,498.518,891.429,498.518L891.429,498.518z"/></g><g><path fill="#FFF" d="M892.356,570.372c0,2.979,0,123.824,0,126.804c-2.98,0-123.824,0-126.805,0c0-2.979,0-123.824,0-126.804 C768.532,570.372,889.376,570.372,892.356,570.372L892.356,570.372z M764.008,567.283c-0.854,0-1.545,0.691-1.545,1.545v129.893 c0,0.853,0.691,1.545,1.545,1.545H893.9c0.854,0,1.545-0.692,1.545-1.545V568.828c0-0.854-0.691-1.545-1.545-1.545H764.008 L764.008,567.283z"/><polygon fill="#FFF" points="776.106 614.611 781.452 614.611 781.452 600.84 795.353 600.84 795.353 614.611 800.698 614.611 800.698 584.074 795.353 584.074 795.353 596.222 781.452 596.222 781.452 584.074 776.106 584.074 776.106 614.611 776.106 614.611"/><polygon fill="#FFF" points="764.439 733.42 767.686 733.42 767.686 725.058 776.125 725.058 776.125 733.42 779.371 733.42 779.371 714.879 776.125 714.879 776.125 722.254 767.686 722.254 767.686 714.879 764.439 714.879 764.439 733.42 764.439 733.42"/><path fill="#FFF" fill-rule="evenodd" d="M788.743,733.783c4.311,0,6.777-2.961,6.777-7.09 c0-4.103-2.467-7.062-6.777-7.062s-6.777,2.96-6.777,7.062C781.966,730.822,784.433,733.783,788.743,733.783L788.743,733.783 L788.743,733.783z M788.743,731.445c-2.648,0-3.817-2.414-3.817-4.752c0-2.31,1.169-4.726,3.817-4.726s3.817,2.416,3.817,4.726 C792.561,729.031,791.392,731.445,788.743,731.445L788.743,731.445L788.743,731.445z" clip-rule="evenodd"/><polygon fill="#FFF" points="798.061 733.42 801.021 733.42 801.021 714.879 798.061 714.879 798.061 733.42 798.061 733.42"/><polygon fill="#FFF" points="804.81 722.332 811.717 722.332 804.29 731.342 804.29 733.42 816.105 733.42 816.105 731.082 808.029 731.082 815.715 722.071 815.715 719.994 804.81 719.994 804.81 722.332 804.81 722.332"/><path fill="#FFF" d="M819.041,733.42h2.96v-7.973c0-2.233,1.402-3.479,2.935-3.479c1.791,0,2.362,0.987,2.362,2.831v8.621h2.96 v-7.868c0-2.26,0.857-3.584,2.857-3.584c2.31,0,2.44,1.48,2.44,3.61v7.842h2.96v-9.271c0-3.271-1.661-4.518-4.492-4.518 c-1.948,0-3.221,0.857-4.206,2.233c-0.598-1.532-2.129-2.233-3.766-2.233c-2.129,0-3.246,0.909-4.129,2.233h-0.077v-1.87h-2.805 V733.42L819.041,733.42L819.041,733.42z"/><path fill="#FFF" fill-rule="evenodd" d="M844.2,725.525c0.077-1.999,1.479-3.558,3.531-3.558 c1.999,0,3.271,1.688,3.375,3.558H844.2L844.2,725.525L844.2,725.525z M854.067,727.473c0.493-4.024-2.103-7.842-6.336-7.842 c-3.999,0-6.492,3.272-6.492,7.089c0,4.129,2.363,7.063,6.569,7.063c2.936,0,5.427-1.636,6.077-4.571h-2.805 c-0.521,1.48-1.558,2.233-3.272,2.233c-2.467,0-3.608-1.869-3.608-3.973H854.067L854.067,727.473L854.067,727.473z" clip-rule="evenodd"/><path fill="#FFF" fill-rule="evenodd" d="M869.749,714.879h-2.961v6.855h-0.052 c-0.908-1.48-2.778-2.104-4.468-2.104c-2.933,0-5.815,2.13-5.815,6.985c0,4.024,2.051,7.167,6.284,7.167 c1.688,0,3.376-0.65,4.154-2.182h0.052v1.818h2.806V714.879L869.749,714.879L869.749,714.879z M859.414,726.85 c0-2.415,0.985-4.882,3.766-4.882c2.284,0,3.712,1.766,3.712,4.726c0,2.338-1.117,4.752-3.765,4.752 C860.555,731.445,859.414,729.16,859.414,726.85L859.414,726.85L859.414,726.85z" clip-rule="evenodd"/><path fill="#FFF" fill-rule="evenodd" d="M873.563,717.683h2.96v-2.804h-2.96V717.683L873.563,717.683 L873.563,717.683z M873.563,733.42h2.96v-13.426h-2.96V733.42L873.563,733.42L873.563,733.42z" clip-rule="evenodd"/><path fill="#FFF" fill-rule="evenodd" d="M891.763,723.526c0-2.831-2.752-3.896-5.375-3.896 c-2.96,0-5.895,1.013-6.102,4.466h2.959c0.13-1.453,1.299-2.129,2.961-2.129c1.195,0,2.778,0.286,2.778,1.817 c0,1.74-1.896,1.506-4.024,1.896c-2.493,0.285-5.168,0.83-5.168,4.181c0,2.622,2.181,3.921,4.597,3.921 c1.583,0,3.479-0.494,4.647-1.636c0.234,1.22,1.091,1.636,2.285,1.636c0.493,0,1.429-0.183,1.87-0.338v-2.052 c-0.312,0.052-0.545,0.052-0.728,0.052c-0.546,0-0.701-0.285-0.701-1.013V723.526L891.763,723.526L891.763,723.526z M888.803,728.901c0,1.869-2.026,2.544-3.323,2.544c-1.039,0-2.727-0.39-2.727-1.714c0-1.557,1.142-2.024,2.414-2.232 c1.299-0.234,2.727-0.208,3.636-0.806V728.901L888.803,728.901L888.803,728.901z" clip-rule="evenodd"/><path fill="#FFF" d="M808.83,597.252h2.96v-7.973c0-2.232,1.402-3.479,2.936-3.479c1.79,0,2.362,0.986,2.362,2.83v8.621h2.96 v-7.868c0-2.259,0.856-3.583,2.856-3.583c2.311,0,2.441,1.479,2.441,3.608v7.843h2.959v-9.271c0-3.272-1.661-4.519-4.492-4.519 c-1.947,0-3.22,0.857-4.206,2.233c-0.598-1.531-2.129-2.233-3.766-2.233c-2.129,0-3.246,0.909-4.128,2.233h-0.078v-1.87h-2.805 V597.252L808.83,597.252L808.83,597.252z"/></g><g><polygon fill="#FFF" points="963.402 625.271 988.901 625.271 1013.127 706.541 987.712 706.541 963.402 625.271 963.402 625.271"/><polygon fill="#FFF" points="1042.224 624.88 1042.224 706.541 1018.009 706.541 1042.224 624.88 1042.224 624.88"/><polygon fill="#FFF" points="1039.783 625.271 1015.563 706.892 1003.081 664.987 1014.747 625.271 1039.783 625.271 1039.783 625.271"/><path fill="#FFF" d="M956.5,532.867h90.176v178.127H956.5V532.867L956.5,532.867L956.5,532.867z M958.727,535.094v85.724 h85.723v-85.724H958.727L958.727,535.094L958.727,535.094z M958.727,623.044v85.724h85.723v-85.724H958.727L958.727,623.044 L958.727,623.044z"/><path fill="#FFF" d="M960.953,577.956c0-22.443,18.192-40.636,40.635-40.636s40.636,18.192,40.636,40.636 c0,22.442-18.193,40.635-40.636,40.635S960.953,600.398,960.953,577.956L960.953,577.956L960.953,577.956z"/><path fill="none" stroke="#FFF" stroke-miterlimit="3.864" d="M960.953,577.956c0-22.443,18.192-40.636,40.635-40.636 s40.636,18.192,40.636,40.636c0,22.442-18.193,40.635-40.636,40.635S960.953,600.398,960.953,577.956L960.953,577.956 L960.953,577.956z"/><path fill="#FFF" d="M976.53,731.253c0,2.622,0.079,2.761,2.734,2.98l-0.001,0.83c-1.438-0.027-2.793-0.083-4.149-0.11 c-1.383,0.027-2.793,0.083-4.176,0.11l-0.001-0.83c2.655-0.22,2.733-0.358,2.733-2.98l0.009-11.744l0.205-0.089 c0,0-6.582,15.646-6.608,15.644h-0.542l-6.722-15.645l0.032,0.001l0.018,11.42c0,2.152,0.324,3.283,2.564,3.394l0.004,0.846 c-1.023-0.027-2.065-0.099-3.089-0.126c-0.968,0.027-1.936,0.083-2.904,0.11l0.005-0.85c2.102,0,2.253-1.235,2.253-2.477 l-0.009-11.584c0-0.718-0.084-1.143-0.223-1.502c-0.359-0.938-1.252-1-2.138-1l-0.026-0.854c0.94,0.055,1.853,0.083,2.793,0.11 c0.858-0.027,1.688-0.056,2.545-0.11l6,14.038l5.913-14.038c0.858,0.055,1.834,0.083,2.691,0.11 c0.885-0.027,1.771-0.056,2.738-0.11l0.004,0.796c-0.886,0-1.972,0.037-2.387,0.947c-0.277,0.607-0.272,1.898-0.272,2.92 L976.53,731.253L976.53,731.253L976.53,731.253z"/><path fill="#FFF" d="M988.055,728.283c-1.659,0.8-4.801,1.91-4.812,3.993c-0.005,1.021,0.643,1.829,1.774,1.897 c0.894,0.054,2.272-0.87,3.047-1.615L988.055,728.283L988.055,728.283L988.055,728.283z M987.806,727.325 c0.276-0.139,0.223-0.407,0.223-0.712c0-1.875-0.154-2.869-2.423-2.869c-1.383,0-2.386-0.002-2.603,1.385 c-0.094,0.602-0.419,1.249-1.111,1.249c-0.608,0-1.055-0.475-1.055-1.081c0-2.043,3.679-2.429,5.089-2.429 c3.07,0,4.481,0.8,4.481,3.974v4.553c0,0.688-0.108,2.643,0.97,2.643c0.545,0,0.802-0.434,1.106-0.819l0.682,0.386 c-0.443,0.912-1.597,1.763-2.619,1.763c-1.135,0-2.072-0.629-2.349-1.733c-1.3,1.049-2.935,1.733-4.649,1.733 c-1.466,0-2.877-0.882-2.877-2.427c0-2.318,2.63-3.489,4.4-4.289L987.806,727.325L987.806,727.325L987.806,727.325z"/><path fill="#FFF" d="M995.486,728.496c0-0.744,0.03-2.553-0.164-3.188c-0.248-0.993-0.94-0.881-1.825-0.881l-0.002-0.704 c1.3-0.083,2.517-0.58,3.733-0.855c0.249,0.8,0.36,1.793,0.332,2.786h-0.029c0.665-1.69,2.188-2.786,4.096-2.786 c0.857,0,1.964,0.414,1.964,1.435c0,0.524-0.439,1.082-0.965,1.082c-1.162,0-0.917-1.346-1.995-1.346 c-0.83,0-1.74,0.792-2.155,1.482c-0.637,1.131-0.634,2.305-0.634,3.574l0.01,2.43c0,2.014-0.221,2.676,2.103,2.786l-0.015,0.752 c-1.051-0.027-2.13-0.083-3.181-0.11c-1.079,0.027-2.13,0.083-3.209,0.11l0.01-0.731c2.074-0.139,1.933-0.801,1.933-2.621 L995.486,728.496L995.486,728.496L995.486,728.496z"/><g><defs><rect id="SVGID_13_" width="90.177" height="202.5" x="956.5" y="532.867"/></defs><clipPath id="SVGID_14_"><use overflow="visible" xlink:href="#SVGID_13_"/></clipPath><path fill="#FFF" d="M1021.018,731.663c0,1.849,1.117,2.644,2.983,2.78 c3.153,0,4.01-2.663,4.01-5.312c0-2.538-0.913-5.202-3.956-5.202c-0.969,0-2.164,0.527-2.663,1.391 c-0.276,0.552-0.374,1.317-0.374,2.007V731.663L1021.018,731.663L1021.018,731.663z M1021.018,724.325 c1.051-1.076,2.235-1.457,3.758-1.457c3.54,0,6.001,2.814,6.001,6.18c0,3.478-2.628,6.319-6.195,6.319 c-1.693-0.029-3.208-0.607-4.204-1.767l-1.203,1.6l-0.512,0.001v-13.906c0-0.689-0.021-2.25-0.299-2.829 c-0.332-0.689-1.154-0.634-1.79-0.717l0.015-0.675l4.426-0.884L1021.018,724.325L1021.018,724.325L1021.018,724.325z" clip-path="url(#SVGID_14_)"/><path fill="#FFF" d="M1036.165,730.648c0,1.628,0.143,3.677,2.3,3.677 c2.232-0.278,3.794-2.049,3.794-4.172l-0.026-3.293c0-2.098,0.166-2.732-2.102-3.063l0.018-0.708 c0.774,0.055,1.521,0.082,2.296,0.138c0.72-0.056,1.466-0.083,2.157-0.138v8.785c0,0.745,0.001,1.85,1.023,1.85 c0.332,0,0.692-0.056,1.052-0.083l-0.001,0.733l-3.844,0.992l-0.581-2.593c-0.989,1.583-2.502,2.604-4.62,2.593 c-2.794-0.014-3.816-1.517-3.816-3.944l-0.008-4.562c0-2.098,0.167-2.732-2.102-3.063l0.007-0.681 c0.775,0.027,1.521,0.083,2.296,0.11c0.72-0.027,1.467-0.083,2.157-0.11V730.648L1036.165,730.648L1036.165,730.648z" clip-path="url(#SVGID_14_)"/></g><path fill="#FFF" d="M1011.492,727.323c0.276-0.138,0.223-0.407,0.223-0.711c0-1.876-0.155-2.869-2.423-2.869 c-1.383,0-2.386-0.003-2.603,1.385c-0.094,0.602-0.42,1.249-1.111,1.249c-0.609,0-1.055-0.476-1.055-1.082 c0-2.042,3.679-2.429,5.089-2.429c3.07,0,4.48,0.801,4.48,3.974v4.553c0,0.689-0.108,2.643,0.971,2.643 c0.545,0,0.801-0.433,1.105-0.818l0.682,0.386c-0.442,0.911-1.596,1.764-2.619,1.764c-1.134,0-2.071-0.631-2.349-1.734 c-1.299,1.049-2.935,1.734-4.649,1.734c-1.466,0-2.876-0.884-2.876-2.429c0-2.318,2.63-3.488,4.399-4.288L1011.492,727.323 L1011.492,727.323L1011.492,727.323z M1011.741,728.281c-1.66,0.8-4.802,1.911-4.812,3.994c-0.006,1.021,0.642,1.828,1.774,1.897 c0.893,0.054,2.271-0.87,3.046-1.615L1011.741,728.281L1011.741,728.281L1011.741,728.281z"/><polygon fill="#FFF" points="985.379 706.541 960.953 706.541 960.953 624.88 985.379 706.541 985.379 706.541"/></g><g><polygon fill="#FFF" points="598.423 611.802 618.28 611.802 639.056 648.124 655.147 620.432 670.908 647.905 691.924 611.802 701.775 611.802 666.092 673.737 650.11 646.045 634.021 673.408 598.423 611.802"/><polygon fill="#FFF" points="604.963 666.294 620.013 666.294 634.242 690.813 650.113 663.011 661.716 683.287 661.716 734.157 644.859 734.157 644.859 689.28 629.207 716.098 613.555 689.28 613.555 734.157 604.963 734.157 604.963 666.294"/><polygon fill="#FFF" points="670.361 683.287 680.104 666.294 699.148 666.294 699.148 683.287 687.438 683.287 687.438 695.3 697.972 695.3 697.972 703.778 687.438 703.778 687.438 734.157 670.472 734.157 670.361 683.287"/></g></g></svg>