<?xml version="1.0" standalone="no"?>
<!DOCTYPE svg PUBLIC "-//W3C//DTD SVG 20010904//EN"
 "http://www.w3.org/TR/2001/REC-SVG-20010904/DTD/svg10.dtd">
<svg version="1.0" xmlns="http://www.w3.org/2000/svg"
 width="242.000000pt" height="242.000000pt" viewBox="0 0 242.000000 242.000000"
 preserveAspectRatio="xMidYMid meet">
<metadata>
Created by potrace 1.11, written by Peter Selinger 2001-2013
</metadata>
<g transform="translate(0.000000,242.000000) scale(0.100000,-0.100000)"
fill="#000000" stroke="none">
<path d="M332 1644 c-316 -81 -432 -493 -206 -734 108 -116 279 -165 421 -121
96 29 217 131 263 222 l20 39 -127 0 c-120 0 -128 -1 -152 -24 -76 -70 -219
-51 -278 37 -13 18 -25 46 -29 62 l-6 30 299 -1 c164 0 303 4 309 8 16 12 8
139 -12 201 -18 54 -71 138 -114 179 -99 94 -256 136 -388 102z m158 -204 c19
-5 47 -20 61 -32 32 -29 64 -77 56 -85 -7 -7 -325 -12 -344 -5 -9 3 -8 12 4
35 41 80 127 114 223 87z"/>
<path d="M1305 1652 c-71 -7 -155 -44 -206 -90 -67 -60 -94 -105 -119 -195
-16 -57 -19 -94 -16 -163 11 -223 112 -375 279 -421 12 -4 279 -8 593 -10
l570 -4 0 123 -1 123 -49 -2 -48 -2 26 25 c49 50 78 126 78 207 2 232 -167
404 -405 412 -182 6 -327 -78 -400 -233 -29 -62 -32 -75 -32 -167 0 -107 13
-145 68 -211 l25 -29 -162 2 c-88 1 -176 5 -194 8 -87 16 -142 127 -120 244
17 95 75 140 183 144 l60 2 2 121 2 121 -52 -1 c-29 0 -65 -2 -82 -4z m792
-267 c72 -47 106 -154 76 -240 -58 -167 -303 -167 -360 1 -28 79 5 187 70 231
61 42 156 45 214 8z"/>
</g>
</svg>
