<?xml version="1.0" encoding="utf-8"?>
<!-- Generator: Adobe Illustrator 16.0.4, SVG Export Plug-In . SVG Version: 6.00 Build 0)  -->
<!DOCTYPE svg PUBLIC "-//W3C//DTD SVG 1.1//EN" "http://www.w3.org/Graphics/SVG/1.1/DTD/svg11.dtd">
<svg version="1.1" id="Ebene_1" xmlns="http://www.w3.org/2000/svg" xmlns:xlink="http://www.w3.org/1999/xlink" x="0px" y="0px"
	 width="120.96px" height="44.564px" viewBox="0 0 120.96 44.564" enable-background="new 0 0 120.96 44.564" xml:space="preserve">
<g>
	<defs>
		<rect id="SVGID_1_" x="-0.001" width="120.961" height="44.565"/>
	</defs>
	<clipPath id="SVGID_2_">
		<use xlink:href="#SVGID_1_"  overflow="visible"/>
	</clipPath>
	<path clip-path="url(#SVGID_2_)" fill="#237EC6" d="M109.326,22.194c0-5.23-3.914-9.872-9.476-9.872h-0.069
		c-6.042,0-9.75,4.715-9.75,9.799c0,3.02,0.961,5.377,2.609,7.146c1.647,1.693,3.914,2.725,6.592,2.873
		c2.815,0,5.356-0.885,7.142-2.578C108.228,27.941,109.326,25.435,109.326,22.194 M70.526,44.394c-5.953,0-9.754-0.441-13.125-2.432
		c-5.021-3.168-9.395-10.607-9.395-20.7c0-8.413,4.203-20.549,19.997-21.13c0.386-0.015,3.51-0.022,3.911-0.022v12.179h-3.914
		c-5.541,0.033-8.727,3.831-8.75,9.857c0.022,6.439,3.735,9.994,8.478,9.945h13.933c0.571-0.002,2.646,0.781,2.646,0.781
		c-0.342-0.279-1.502-1.342-1.756-1.615c-3.074-3.324-3.77-6.131-4.15-10.511c0-11.125,8.176-20.628,20.942-20.628
		c13.626,0,21.442,10.02,21.442,20.628c0,4.202-1.536,7.589-4.148,10.575c-0.229,0.262-0.605,0.631-1.615,1.551
		c0,0,2.338-0.707,2.884-0.707h2.354v12.229H70.526z M12.41,17.183c0.632-2.078,3.009-6.684,8.749-6.716
		c6.62-0.038,9.101,4.771,9.392,6.716H12.41z M28.726,30.58c-1.43,1.904-3.492,3.357-7.021,3.35c-5.331-0.016-9.17-3.35-9.94-8.74
		h30.946c0.507-7.482-0.847-12.865-5.941-18.472c-3.784-4.112-9.097-6.58-15.283-6.58c-12.299,0-21.178,10.691-21.178,22.278
		c0,12.334,9.825,21.979,21.396,21.979c4.149,0,8.214-1.271,11.562-3.738c3.603-2.604,6.211-5.707,8.164-10.076H28.726z"/>
</g>
</svg>
